<svg version="1.0" viewBox="0 0 512 418.55" xml:space="preserve" xmlns="http://www.w3.org/2000/svg">
<path d="m203.31 271.44c-0.014 29.096 23.579 52.69 52.676 52.69 29.11 0.014 52.704-23.593 52.69-52.69" fill="none" stroke="#000" stroke-linecap="round" stroke-linejoin="round" stroke-width="4.2006"/><path d="m415.87 76.256c-4.1103 0.12455-8.0185 1.7459-11.379 5.1074-19.933 19.933-77.392 73.562-90.6 85.879 10.171 2.4016 18.902 8.514 24.688 16.834 13.359-17.42 45.007-57.824 63.982-73.896 9.5073-8.0553 26.578-8.2866 31.072 18.512 4.9519 29.65 24.347 141.21 29.711 172.04-11.352 5.1907-19.238 16.645-19.238 29.936h65.781c0.0112-13.925-8.6509-25.825-20.883-30.629-1.0994-5.9623-29.356-158.99-39.971-190.95-6.679-20.103-20.833-33.213-33.164-32.84zm-322.54 2.1855c-11.644 0.90655-24.241 12.227-30.359 30.654-10.613 31.963-38.878 184.99-39.977 190.95-12.228 4.8043-20.889 16.703-20.885 30.627h65.787c0.0031-13.29-7.8902-24.742-19.242-29.934 5.3631-30.834 24.761-142.4 29.719-172.05 4.482-26.798 21.553-26.567 31.064-18.512 19.277 16.326 51.654 57.786 64.59 74.684 5.5671-8.4123 14.094-14.693 24.098-17.355-13.161-11.901-70.278-63.611-90.203-83.537-4.2019-4.2019-9.2989-5.9414-14.592-5.5293zm17 67.885c-13.311-1.1474-22.033 13.185-24.25 39.773l-10.594 156.96c-13.975 3.7988-24.257 16.577-24.252 31.748h65.785c3e-3 -12.28-6.7235-22.979-16.689-28.633l-0.24804-139.07c3.2246-38.673 10.412-50.015 35.266-26.912 13.397 12.445 21.952 25.355 26.887 34.139-2.136 3.782-4.0619 7.6963-5.7383 11.744-24.097-31.473-48.695-24.701-41.283 10.168l28.869 150.49c-11.095 5.2871-18.758 16.602-18.754 29.705h65.781c0.0126-15.718-11.025-28.859-25.777-32.111l-23.51-97.674c-12.274-47.838-4.767-63.242 9.2754-43.65-1.7765 7.6906-2.753 15.687-2.793 23.908h-0.014c-3e-5 0.0937 7e-3 0.18568 8e-3 0.2793-2.3e-4 0.0942-8e-3 0.18691-8e-3 0.28124h0.014c0.28956 59.165 48.328 107.06 107.56 107.06 59.25 0 107.29-47.88 107.59-107.06h0.24999c1e-3 -8.4201-0.98807-16.604-2.8047-24.471 14.042-19.589 21.551-4.1845 9.2891 43.652l-23.525 97.674c-14.749 3.252-25.775 16.393-25.775 32.111h65.781c0.01-13.102-7.6561-24.418-18.752-29.705l28.875-150.49c7.4107-34.869-17.186-41.64-41.289-10.166-1.6748-4.0454-3.5966-7.9584-5.7305-11.738 4.9332-8.7838 13.488-21.698 26.885-34.146 24.854-23.103 32.035-11.761 35.256 26.912l-0.24023 139.07c-9.9701 5.6533-16.701 16.353-16.701 28.635h65.795c0-15.169-10.28-27.945-24.248-31.746l-10.604-156.96c-3.2205-38.673-20.205-51.417-45.059-28.311-21.912 20.361-36.445 32.651-38.041 33.998 2.0751 4.9622 3.2222 10.408 3.2188 16.123 7e-3 11.566-4.6894 22.037-12.283 29.605 1.8965 6.8661 2.9887 14.066 2.9863 21.535 0.014 44.596-36.14 80.764-80.75 80.764-44.596 0-80.748-36.167-80.734-80.777-3e-3 -7.8055 1.1631-15.328 3.2285-22.469-7.0555-7.4865-11.386-17.57-11.379-28.672-3e-3 -5.4321 1.0442-10.617 2.9297-15.379-0.4596-0.38666-16.079-13.535-38.893-34.729-7.7667-7.2211-14.766-10.941-20.816-11.463zm145.52 13.059v8e-3c-13.792 0.0389-26.96 2.6958-39.07 7.4609 9.1013 1.74 17.154 6.4259 23.123 13.035 5.2045-1.0537 10.587-1.6152 16.102-1.6152 5.8531 1e-3 11.547 0.66102 17.047 1.8457 5.8339-6.5479 13.693-11.249 22.598-13.113-12.225-4.8689-25.542-7.5739-39.49-7.6133v-8e-3c-0.0517 0-0.10264 4e-3 -0.15429 4e-3 -0.0517-7e-5 -0.10264-4e-3 -0.1543-4e-3z" stroke-width="1.4002"/><path d="m345.97 207.5c0.014 23.075-18.693 41.796-41.782 41.796s-41.796-18.721-41.782-41.796c-0.014-23.089 18.707-41.796 41.782-41.796 23.089 0 41.796 18.721 41.782 41.796z" fill="none" stroke="#000" stroke-linecap="round" stroke-linejoin="round" stroke-width="4.2006"/><path d="m250.58 207.62c0.014 23.075-18.693 41.796-41.782 41.796s-41.796-18.721-41.782-41.81c-0.014-23.075 18.707-41.796 41.782-41.796 23.089 0 41.796 18.721 41.782 41.81z" fill="none" stroke="#000" stroke-linecap="round" stroke-linejoin="round" stroke-width="4.2006"/><path d="m308.9 215.29c0 7.6871-6.2449 13.932-13.932 13.932s-13.932-6.2449-13.932-13.932c0-7.7011 6.2449-13.932 13.932-13.932 7.7011 0 13.932 6.2309 13.932 13.932z" stroke-width="1.4002"/><path d="m233.26 215.28c0 7.7011-6.2309 13.932-13.932 13.932-7.6871 0-13.932-6.2309-13.918-13.932-0.014-7.6871 6.2309-13.932 13.918-13.932 7.7011 0 13.932 6.2449 13.932 13.932z" stroke-width="1.4002"/><path d="m272.28 179.14s-19.46-167.68 154.87-167.68" fill="none" stroke="#000" stroke-linecap="round" stroke-linejoin="round" stroke-width="4.2006"/><path d="m240.91 179.7s18.25-171.3-156.08-171.3" fill="none" stroke="#000" stroke-linecap="round" stroke-linejoin="round" stroke-width="4.2006"/><circle cx="427.15" cy="11.463" r="8.4012" stroke-width="1.4002"/><circle cx="84.84" cy="8.4012" r="8.4012" stroke-width="1.4002"/>
</svg>
