<svg version="1.1" viewBox="0 0 1080 1080" xml:space="preserve" xmlns="http://www.w3.org/2000/svg">
<desc>Created with Fabric.js 5.2.4</desc>



<path d="m537.3 3.5098c-202.93-5.664-398.26 121.52-483.44 304.38-89.673 181.29-61.138 413.05 68.837 567.96 105.89 133.09 278.71 208.69 448.43 194.93 214.12-7.1743 411.39-161.65 475.91-364.95 32.573-99.242 32.938-208.35 8.4179-309.38-58.166-214.78-260.6-389.6-486.73-392.18-10.468-0.47092-20.949-0.74734-31.424-0.74687zm-0.33203 126.43c4.7918 11.704-3.2866 22.938-15.858 30.394-12.572 7.4556-29.636 11.133-42.818 7.7256-129.64 20.575-245.88 113.65-291.67 237.05-11.265 3.9186-26.237 10.872-35.32 11.877s-12.278-3.9378 0.0119-23.812c58.648-156.73 218.16-266.13 385.66-263.24zm91.838 11.338c26.273 4.5654 52.468 12.687 70.582 27.611 18.114 14.924 28.147 36.651 22.095 68.426 10.122 40.767-51.465 81.245-84.648 80.99-52.536-10.139-87.364-39.319-81.179-95.883-6.6407-20.156 5.3517-36.327 22.152-49.516 16.8-13.189 38.408-23.398 50.998-31.628zm148.12 69.283c140.9 100.23 200.94 294.79 144.61 457.81-14.522 37.706-35.625 95.109-64.319 114.21-12.688-22.014-6.8719-41.649 1.573-60.614 8.4449-18.965 19.518-37.261 25.545-57.458 55.576-142.63 8.5048-313.84-107.1-412.61-4.0461-11.85 0.55857-28.457-0.31096-41.331zm-273.72 9.5879c7.7196 15.699 1.9917 22.811-8.4289 26.665-10.421 3.8538-25.534 4.4493-36.586 7.1143-83.707 22.061-152.93 84.645-188.02 163.11-26.963-1.4826-24.334-16.714-13.708-34.165s29.248-37.124 34.27-47.49c53.582-61.396 129.5-110.41 212.48-115.23zm17.793 76.605c20.652 14.54 17.977 19.935 7.3 22.441s-29.356 2.1217-40.71 5.1046c-74.694 15.278-136.89 74.511-157.07 147.65-19.179-15.35-15.085-34.425-3.9212-52.97s29.398-36.562 38.501-49.796c40.738-41.739 96.821-71.263 155.9-72.434zm231.25 11.693c61.225 49.818 92.796 131.68 97.565 209.47-1.1689 51.005-5.5954 145.66-47.958 164.94-22.776-12.369-16.452-32.684-5.9236-55.378 10.528-22.694 25.261-47.766 19.302-69.647 6.8584-81.917-18.275-169.94-78.54-227.8-4.0489-7.4347 12.032-16.659 15.554-21.589zm-65.889 48.238c42.53 27.928 64.228 80.627 75.18 129.01 10.517 56.353 0.39943 116.63-30.402 165.2-35.769 10.785-34.785 0.29811-25.336-16.738 9.4492-17.036 27.364-40.62 25.458-56.029 22.021-78.311-10.803-162.65-70.302-215.34 8.387-2.3512 16.932-4.1029 25.402-6.112zm-475.6 101.92c27.722 9.4878 52.124 28.651 78.593 41.78 10.694 20.205 3.392 46.226 5.3749 69.049 10.204 41.476-42.43 48.094-67.465 67.26-33.97 14.284-81.418-19.518-103.01-43.909 1.026-30.045-1.1861-61.032 1.8584-90.513 25.65-14.51 50.8-30.812 77.525-43.023l7.1191-0.64258zm127.17 146.03c35.477 79.252 119.72 135.35 207.68 127.58 29.712-6.8488 53.983-11.872 30.097 22.906-59.023 17.547-126.39-3.5365-176.43-37.483-27.265-26.315-87.129-63.971-64.274-107.45 0.98803-1.8429 1.8724-3.7496 2.9282-5.5512zm-52.758 64.289c53.152 96.953 165.27 152.56 274.57 142.74 26.888 0.91191 20.623 56.964-16.16 37.59-116.57 3.9605-233.11-63.243-285.97-167.41 6.7241-6.7814 18.503-10.824 27.561-12.918zm-136.08 8.332c23.564-0.72414 38.95 8.7662 51.038 22.694s20.876 32.292 31.246 49.316c82.99 118.07 238.88 184.02 380.72 150.75 8.5946 7.9061 25.141 16.42 33.318 23.392 8.1765 6.9722 7.9827 12.403-16.904 14.143-195.95 50.887-416.24-68.055-479.42-260.3zm570.6 32.529c30.592 11.14 57.943 31.234 87.498 45.355 7.8696 30.379 1.7266 63.105 3.6895 94.461-27.073 23.333-71.536 61.175-108.59 47.423-23.055-17.758-63.909-22.245-72.883-51.126 1.3078-29.859-3.5841-61.827 2.6807-90.369 28.912-15.411 57.339-33.475 87.61-45.744z"/>
</svg>
