<svg version="1.1" viewBox="0 0 1080 1080" xml:space="preserve" xmlns="http://www.w3.org/2000/svg">
<desc>Created with Fabric.js 5.2.4</desc>



<path d="m537.3 3.5098-0.01172 0.0039063c-14.819 0.01641-29.446 0.6181-43.793 1.4922-5.4927 0.28943-10.909 0.63982-16.182 1.0508-1.1258 0.096733-2.2242 0.20042-3.3418 0.30273-6.2776 0.52515-12.081 1.361-18.086 2.0605-9.1189 1.3801-18.17 3.0034-27.152 4.8398-0.23574 0.047732-0.47729 0.078872-0.7129 0.12695-0.18664 0.037234-0.36667 0.083177-0.55273 0.12109-2.3145 0.4797-4.561 1.1371-6.8613 1.6523-1.5761 0.32671-3.2249 0.52661-4.791 0.86914-5.6119 1.1919-11.108 2.4577-16.504 3.8184-4.2083 1.0808-8.4423 2.1731-12.611 3.3691-6.0833 1.7421-11.907 3.641-17.648 5.6074-7.7115 2.5456-15.435 5.2724-23.084 8.2344-0.51003 0.17343-2.6137 0.99609-2.6875 0.99609-0.14624 0-2.5899 1.1744-3.0234 1.3184-3.5501 1.425-7.1078 2.8035-10.654 4.3203-1.1048 0.49006-1.2899 0.45679-2.5312 1.0273-6.867 2.9793-13.784 6.2898-20.67 9.6191-2.9944 1.4345-5.9698 2.8949-8.9316 4.3848-0.85989 0.43373-1.7186 0.85171-2.5762 1.2656-0.74323 0.38177-1.4725 0.6995-2.2168 1.0879-2.3944 1.1399-4.7845 2.2492-7.1992 3.5332-2.3197 1.2335-4.5195 2.7089-6.8203 3.9824-2.8219 1.5676-5.5624 3.2569-8.3516 4.875-2.4833 1.4413-4.856 3.0817-7.3164 4.5625-1.5119 0.83645-3.032 1.6635-4.5078 2.543-5.4939 3.2649-10.823 6.7058-16.15 10.158-3.2597 2.1184-6.5395 4.2096-9.7363 6.3965-5.842 3.9854-11.535 8.1194-17.166 12.326-2.371 1.776-4.7427 3.5472-7.0762 5.3613-6.1141 4.7414-12.087 9.6105-17.941 14.605-1.5668 1.3398-3.1179 2.6914-4.666 4.0488-6.3309 5.5399-12.52 11.2-18.535 17.025-0.79478 0.77066-1.5701 1.5567-2.3594 2.332-2.0763 2.0376-4.0096 4.1937-6.0508 6.2598-2.2147 2.237-4.389 4.5086-6.5606 6.7852-2.2539 2.3682-4.6196 4.6428-6.8203 7.0566-0.2265 0.25971-0.45069 0.52069-0.68945 0.77343-0.03075 0.03387-0.0591 0.06965-0.08985 0.10352-0.85087 0.93769-1.6517 1.9139-2.5 2.8535-0.10129 0.11259-0.20931 0.21935-0.31054 0.33203-0.28488 0.31446-0.55701 0.63904-0.83985 0.95508-0.71002 0.78162-1.3833 1.586-2.0879 2.3711-1.0747 1.2259-2.1601 2.4432-3.2324 3.6719-0.59591 0.68802-1.1748 1.3894-1.7695 2.0781-1.7132 1.981-3.5151 3.893-5.1797 5.9121-0.00116 0.00142-0.00274 0.00249-0.0039 0.00391-0.25189 0.29399-0.48142 0.60004-0.73242 0.89453-2.0728 2.4616-4.08 4.9609-6.1016 7.4531-3.0361 3.7139-6.0466 7.4403-8.9531 11.223-0.71722 0.93545-1.405 1.8868-2.1152 2.8262-3.6181 4.7804-7.1608 9.5983-10.582 14.479-1.0239 1.4558-2.004 2.9339-3.0117 4.3984-2.77 4.042-5.5136 8.096-8.1562 12.199-0.57904 0.89462-1.2061 1.7645-1.7793 2.6621-1.9211 2.9591-3.682 6.0104-5.541 9.0059-0.48532 0.79853-1.0113 1.5784-1.4922 2.3789-0.12754 0.209-0.23413 0.42564-0.36133 0.63476-15.156 24.795-28.335 50.713-39.26 77.52-2.3101 5.4572-4.4098 10.946-6.5254 16.445-0.41434 1.1246-0.83963 2.2438-1.2461 3.3711-5.2095 13.824-9.7857 27.761-13.725 41.746-0.66264 2.6305-1.4341 5.2404-2.0508 7.8789-0.24522 0.93006-0.47353 1.8606-0.71289 2.791-2.1352 9.3942-3.9833 18.834-5.5234 28.309-0.18171 1.0977-0.32323 2.2475-0.49805 3.3574-0.001482 0.00941-0.002424 0.01989-0.003906 0.0293-0.12858 0.83036-0.24718 1.6614-0.37109 2.4922-0.06196 0.33379-0.11261 0.66443-0.17383 0.99805-0.34927 2.0097-0.71891 4.0154-1.0449 6.0274-3.164 18.554-5.2524 36.824-5.9746 54.484-0.2129 3.6311-0.188 7.2611-0.32812 10.893 0.010613 3.8973-0.06538 7.8085 0.068359 11.686-0.68532 27.895 0.80506 55.776 4.875 83.33 0.16294 1.6811 0.3253 3.3067 0.48242 5.1035 0.46037 3.1073 0.81515 6.2294 1.3301 9.3281 0.97149 5.9131 1.953 11.824 3.123 17.676 6.2696 33.507 16.981 68.207 32.262 104.05 1.3491 3.1643 2.9636 6.1808 4.373 9.3125 1.8062 3.987 3.6749 7.9388 5.5781 11.875 4.8926 10.178 10.105 20.151 15.617 29.951 0.5828 1.0318 1.1468 2.074 1.7363 3.1016 11.839 20.721 25.011 40.523 39.393 59.359 0.09443 0.1244 0.189 0.24856 0.2832 0.37305 0.05783 0.07797 0.1179 0.15449 0.17578 0.23242 1.1917 1.5774 2.3691 3.1606 3.5879 4.7246 0.65229 0.83287 1.3542 1.6195 2.0117 2.4473 28.183 36.547 61.592 69.674 100.31 98.01 0.81192 0.61388 1.6085 1.2484 2.4238 1.8574 0.48695 0.35181 0.97626 0.70047 1.4648 1.0508 25.731 19.084 53.215 35.622 82.014 49.625 2.353 1.1597 4.7547 2.1945 7.123 3.3183 6.0491 2.8272 12.105 5.6315 18.27 8.2227 7.575 3.2454 15.238 6.2187 22.945 9.0918 0.3888 0.1416 0.7729 0.2929 1.1621 0.4336 34.287 12.687 69.745 21.725 105.88 26.447 0.38536 0.0938 2.1006 0.3476 2.2637 0.4102 0.02764 0.0106 0.67153 0.0462 0.79492 0.0605 11.944 1.4805 23.938 2.5862 35.99 3.125 0.20833 0.0022 0.41652 0.0036 0.61328 0.0118 12.568 0.5505 24.739 0.7516 36.697 0.7695 0.39472-0.0035 0.6227 0.018 1.0293 0.0137 3.1854 7e-4 6.4298-0.0758 9.7891-0.1192 6.7159-0.0824 13.369-0.2175 19.881-0.4726 1.1962-0.0413 2.3084-0.0365 3.5059-0.0821 0.53321-0.0186 1.0842-0.0176 1.6152-0.0371 3.1695-0.1258 5.9973-0.3278 9.1367-0.4824 3.8372-0.1229 4.5477-0.0967 8.9414-0.2422 1.3967-0.0462 2.8033-0.2525 4.2012-0.3144 12.574-1.2469 25.109-2.8253 37.553-4.9688 3.3726-0.5278 6.5958-1.3343 9.9297-1.9258 2.4172-0.4345 4.8136-0.9274 7.2188-1.3984 40.924-7.8986 79.476-20.48 119.71-39.494 10.368-4.9003 20.745-10.595 31.102-16.635 26.38-14.096 50.017-29.802 69.695-46.592 1.2376-0.96803 2.5502-1.8322 3.7773-2.8144 35.29-27.518 66.668-59.095 92.631-93.727 6.9734-8.9704 13.329-17.97 19.242-26.953 3.8136-5.7707 7.4328-11.952 11.072-18.098 0.68953-1.2103 1.5653-2.4371 2.2305-3.6445 0.12652-0.22967 0.30988-0.5204 0.44532-0.76367 1.2172-2.1096 2.4725-4.1294 3.668-6.2773 0.9974-1.6919 2.0461-3.5862 2.789-4.7754 0.9519-1.5239 4.4081-8.5718 6.9668-13.566 3.1468-5.7248 6.2672-11.897 9.3926-18.551 3.9887-8.1776 8.3458-17.101 9.1641-18.654 4.28-8.1248 9.5067-22.642 14.744-38.738 6.2703-16.686 11.523-35.123 15.613-54.953 2.7299-11.445 5.0732-22.507 6.7051-32.219 0.0434-0.36891 0.1056-0.6215 0.1484-0.99414 0.1073-0.66829 0.1816-1.6634 0.2832-2.3887 0.8834-8.1245 1.64-16.967 2.2442-26.377 3.1328-34.329 3.5434-69.924 0.8222-104.91-0.2207-2.5693-0.3595-5.1375-0.6172-7.707-0.6719-12.425-1.5002-23.705-2.7324-31.008-1.6647-9.8655-3.7043-19.616-5.9101-29.309-4.6295-23.631-10.73-45.67-18.422-64.912-1.5939-3.9871-3.7379-9.5024-4.7637-12.256-11.622-31.195-26.787-61.003-44.498-89.299-0.23557-0.37844-0.4548-0.76465-0.6914-1.1426-4.3717-6.9446-8.9534-13.742-13.652-20.48-1.9505-2.8107-3.919-5.6107-5.9297-8.3906-4.0883-5.6268-8.2465-11.186-12.555-16.654-2.6131-3.3295-5.3125-6.6108-8.0156-9.8926-0.0687-0.08431-0.13839-0.16761-0.20703-0.25196-0.45589-0.57854-0.77836-1.0348-1.2461-1.625-0.21237-0.26795-0.75652-0.85414-1.1504-1.2949-2.2434-2.7795-4.4657-5.5765-6.7969-8.2812-0.23536-0.26945-0.48677-0.52398-0.72265-0.79297-1.2601-1.4562-2.6074-2.8312-3.8828-4.2734-0.38099-0.42697-0.76999-0.84942-1.1562-1.2734-3.4339-4.0667-6.7281-8.2378-10.35-12.164-1.5739-1.7056-3.1412-3.4144-4.7402-5.0996-5.122-5.4006-10.335-10.713-15.713-15.896-0.91804-0.88441-1.8773-1.7315-2.8027-2.6094-11.335-10.758-23.214-21.018-35.652-30.746-0.70769-0.5531-1.3864-1.134-2.0977-1.6836-4.7134-3.6447-9.5906-7.1164-14.469-10.59-56.938-42.114-121.56-72.516-189.98-87.436-5.7731-1.4665-11.612-2.6029-17.428-3.8613-17.796-3.144-35.722-5.4396-53.773-6.248-4.0186-0.17996-7.6189-0.21391-11.529-0.35742-13.738-0.75878-27.685-1.2754-41.758-1.2598zm-0.33203 126.43 0.00391 0.0039c2.6085 0.03216 3.1357 0.19447 4.2285 0.32227 0.88572 0.48631 1.4716 1.0713 1.6894 1.7812-0.77118 1.4348-2.8183 4.4276-6.2617 8.7109-4.0632 5.0543-9.3854 12.38-11.828 16.281l-3.5957 5.7422c-0.5603 0.41674-1.0621 0.91402-1.75 1.2578-0.19198 0.08632-0.50872 0.12038-0.71289 0.19921l-13.082 0.84571c-48.798 3.1548-97.051 17.876-141.13 41.182-0.95193 0.49599-1.9294 0.94135-2.877 1.4453-2.6594 1.4346-5.2423 3.0045-7.8691 4.502-8.9621 5.0443-17.709 10.432-26.223 16.176-0.78533 0.52926-1.5899 1.0291-2.3711 1.5645-5.1414 3.525-10.152 7.2151-15.109 10.984-0.82877 0.63302-1.6706 1.2464-2.4941 1.8867-12.792 9.8945-24.913 20.583-36.297 32.01-1.1618 1.1312-2.318 2.2604-3.4629 3.4043-1.8058 1.8608-3.5723 3.7508-5.3379 5.6484-29.477 30.71-52.798 65.635-67.385 102.85-1.1072 2.6296-2.3877 5.1909-3.4219 7.8477-1.9209 4.9351-2.985 7.4603-4.1582 9.1836-0.30458 0.43592-0.55935 1.0006-0.90625 1.3418-0.73904 0.71307-1.5826 1.1773-2.75 1.5293-0.01817 0.00585-0.03251 0.01772-0.05078 0.02344-1.251 0.37096-2.8487 0.65006-5.0234 1.0625-3.9611 0.75119-12.697 3.4819-19.412 6.0684-6.7151 2.5865-13.303 5.174-14.641 5.752-0.53014 0.229-0.81461 0.21499-1.1602 0.26367-0.72695-0.07559-0.78651-1.2307-0.52344-2.9922 0.33732-1.5913 1.3656-4.7185 2.6758-8.5293 0.45056-1.3658 1.0356-3.0488 1.6582-4.7812 2.4846-6.9614 5.2674-13.751 8.0938-20.514 1.5161-3.6059 2.9908-7.2376 4.5976-10.783 2.494-5.5242 5.1886-10.918 7.9062-16.297 2.0104-3.9743 3.9942-7.9674 6.1192-11.857 2.8712-5.2541 5.9238-10.376 9.0058-15.477 2.1461-3.5586 4.2591-7.1428 6.502-10.623 3.6898-5.7098 7.5697-11.264 11.52-16.762 1.8036-2.5192 3.5607-5.0781 5.416-7.5508 4.9486-6.5695 10.105-12.955 15.416-19.193 1.0119-1.1935 1.9833-2.4265 3.0078-3.6074 19.048-21.863 40.332-41.528 63.369-58.822 33.8-24.92 71.333-45.076 110.72-59.225 37.657-13.167 77.601-20.874 118.78-22.459 0.78278-0.02885 1.5484-0.13378 2.332-0.1582 6.5282-0.21404 12.482-0.2914 16.791-0.23828zm91.838 11.338c2.2664 0.08331 5.0961 0.63998 7.7207 1.0215 4.998 1.6033 10.276 3.3362 16.895 5.6914 5.0895 2.1002 9.0864 3.7404 16.49 6.7226 14.602 5.8813 23.15 9.27 29.482 11.973 4.919 2.4065 8.9248 4.4972 11.299 5.9883 0.62331 0.69025 1.1064 1.4676 1.6348 2.2168 0.37345 1.4321 0.88001 3.9546 1.5547 7.8691 3.5053 23.526 9.5106 68.062 10.229 75.537 0.02461 0.95332-0.06492 1.6709-0.11133 2.4746-1.1121 2.7961-2.5874 5.53-4.3906 8.1973-1.7397 1.6852-3.0013 3.108-6.1895 5.5977-6.2118 4.851-17.939 14.148-26.061 20.66-8.1226 6.5124-19.409 15.429-25.082 19.811-12.337 9.5279-10.374 9.5136-32.775 0.2168-9.9385-4.1245-27.548-11.303-39.131-15.953-10.527-4.2263-18.643-7.8216-21.301-9.2656-0.92061-0.79399-1.8088-1.6099-2.5098-2.5723-1.2662-3.0226-4.7656-22.973-8.1055-44.609-2.0834-15.405-3.8362-27.691-4.627-34.17-0.12679-1.6061-0.41422-4.0208-0.48828-5.3691 1.0606-4.5232 2.8774-8.7337 5.5274-12.828 0.90167-0.76858 0.97768-1.0028 2.1777-1.9473 4.7781-3.7606 21.136-16.64 36.352-28.621 12.26-9.6548 18.552-15.592 24.197-18.234 2.1875-0.28143 4.4687-0.50512 7.2109-0.4043l0.00195-0.00195zm148.12 69.283c0.11605-0.11764 1.6197 1.0834 2.209 1.4121l5.0488 3.7715c2.9584 2.2097 5.7851 4.5398 8.6641 6.8223 2.4819 2.0944 4.7212 4.0119 7.4277 6.3789 7.7535 6.9817 15.999 14.451 23.207 21.668 3.9828 3.988 7.8368 8.0579 11.625 12.17 0.87466 0.95817 1.7546 1.9122 2.6191 2.877 3.4541 3.8204 6.843 7.6815 10.131 11.602 4.3881 5.2727 8.6905 10.598 12.787 16.043 1.2686 1.6749 2.4574 3.3918 3.6973 5.082 4.1056 5.6314 8.105 11.322 11.9 17.119 0.59126 0.89834 1.1978 1.7894 1.7812 2.6914 12.848 19.957 23.714 40.892 32.838 62.465 1.7893 4.218 3.5488 8.4436 5.1914 12.709 1.5131 3.9416 2.9023 7.9225 4.291 11.904 39.296 116.5 26.4 250.79-45.832 360.64-16.936 25.757-16.195 25.549-19.156 5.3613-0.78492-5.3515-3.064-14.509-5.0645-20.352l-2.3926-6.9883c-0.56277-2.6528-0.16781-4.8641 1.2109-7.7539l5.2969-8.8887c4.6436-7.7908 8.8733-15.95 12.943-24.221 25.792-50.516 38.98-104.98 39.842-159.54 0.69077-21.206-0.46275-42.085-3.5801-62.066-13.093-83.92-51.787-158.05-113.28-217.02l-14.686-14.082-0.00977-2.2441 0.29493-14.557 0.13281-3.4219 0.19336-4.9766c0.22229-6.6402 0.45884-14.388 0.66797-14.602zm-273.72 9.5879c0.63157 0.48989 1.2105 1.1337 1.7598 1.9082l0.12891 3.5781v2.6719c0 1.0667 0.16199 1.817 0.20117 2.9492l0.04687 1.2891 0.42969 11.988c-0.3974 0.39881-1.693 0.59399-2.7988 0.82226l-8.3047 1.2012c-2.5835 0.37318-5.1069 0.89764-7.666 1.334-19.303 2.7763-38.485 8.1113-57.127 15.633-27.847 10.781-53.526 25.657-76.35 44.24-26.015 20.758-47.867 46.209-65.314 76.01-0.36528 0.61449-0.74218 1.218-1.1035 1.8359-1.6 2.779-3.1332 5.6223-4.6562 8.4766-1.1589 2.1361-2.393 4.2085-3.5059 6.3828-3.4493 6.739-4.8195 9.3536-6.4277 12.441-0.72633 1.2111-1.664 2.9516-2.3516 4.127-0.5975 0.36909-1.1924 0.73581-1.9297 0.82227-0.32124-0.15087-0.44078-0.11923-0.87304-0.39258-1.1246-0.71121-6.1109-2.6382-11.08-4.2812-3.4778-1.1499-5.1829-1.7998-7.0039-2.4746-0.31362-0.16026-0.64685-0.32074-1.0508-0.50586-0.14786-0.27917-0.30785-0.54969-0.41601-0.85742-0.10332-0.31054-0.26689-0.57609-0.35157-0.90039-0.1626-0.60784-0.17879-1.3181-0.25195-1.9883 0.16861-0.80916 0.3243-1.6009 0.64258-2.6016 4.6043-10.851 17.837-34.316 27.965-49.084 6.2688-8.8739 13.062-17.39 20.193-25.617 21.498-24.185 47.977-46.174 76.096-64.002 4.6702-2.8978 9.3168-5.8344 14.07-8.5078 2.1134-1.2127 4.2326-2.3888 6.3555-3.5508 9.7786-5.2511 19.634-10.04 29.447-14.18 23.991-9.6078 48.392-16.134 72.035-18.443 1.1805-0.06004 2.3843-0.16076 3.5449-0.1875 0.79708-0.01749 1.6363-0.12049 2.4258-0.12305l3.2207-0.01367zm17.793 76.605h0.00196c1.4236 0.0292 1.7037 0.25796 2.2793 0.43555 1.012 0.72274 2.0058 1.623 3.2559 3.2148 1.1725 1.9934 2.4522 4.1789 5.4473 8.1602l6.291 8.3633c0.17998 0.28988 0.84757 1.2072 0.92578 1.3613l-5.6113 0.45898-9.5996 0.50781c-24.861 1.3149-48.652 6.873-70.664 15.785-1.035 0.40957-2.0641 0.82718-3.0898 1.252-2.492 1.0541-4.9646 2.1323-7.4062 3.2754-3.1242 1.4378-6.1872 2.9668-9.2168 4.5488-0.83107 0.4389-1.6757 0.85342-2.5 1.3027-13.155 7.1019-25.403 15.532-36.562 25.283-2.2061 1.902-4.2962 3.9193-6.416 5.9102-0.88468 0.84444-1.8001 1.6521-2.6699 2.5137-23.143 22.532-40.853 50.329-50.66 81.832-4.5192 14.516-2.7896 14.308-12.361 1.4922l-5.2949-7.0898c-0.85615-1.3542-1.3507-2.5053-1.5625-3.6328-7.5e-4 -0.02922-0.00324-0.05667-0.00391-0.08594-0.19511-1.1109-0.12805-2.1996 0.16602-3.4375l1.7383-4.8672c2.4772-6.94 5.5536-13.756 8.9434-20.479 1.7398-3.3159 3.4555-6.6105 5.418-10.008 0.67722-1.1695 1.3498-2.3399 2.0527-3.5 1.8457-3.0897 3.7806-5.9337 5.7031-8.8691 29.775-44.023 77.639-79.873 128.96-95.311 3.5266-1.0369 7.0682-2.0328 10.658-2.9102 3.202-0.77716 6.4026-1.5847 9.6191-2.1953 10.804-2.051 25.491-3.4473 32.16-3.3125zm231.25 11.693c2.8808 0.23442 7.6997 3.7681 13.523 9.5293 8.6811 9.4466 16.58 19.38 23.969 29.594 1.9559 2.7685 3.8722 5.1431 5.8242 8.0957 0.72267 1.0931 1.0469 1.5597 1.7773 2.6602 12.525 18.882 22.917 38.822 31.115 59.471 10.972 28.574 17.879 58.809 20.805 89.248 3.8535 57.805-6.8509 118.78-32.859 170.51-1.5974 3.1771-2.7415 5.5384-3.7012 7.1875-1.8155 2.8292-3.132 3.3568-5.2422 2.291-1.3542-0.78415-3.0669-2.1714-5.6035-4.1758-3.8225-3.0205-10.265-7.4109-14.316-9.7578-3.5972-2.0838-6.0893-3.96-6.5234-4.7441-0.01161-0.61735 0.48892-1.8091 0.77735-2.7207 0.74286-1.4415 1.466-2.8504 2.8906-5.5547 5.8215-11.051 10.678-22.436 14.896-33.988 0.6577-1.763 1.4106-3.4788 2.0274-5.2598 0.63468-1.8537 1.1011-3.7459 1.6953-5.6094 1.5268-4.7787 3.0817-9.5479 4.3223-14.436 9.815-37.726 11.411-76.984 5.4434-115.24-0.31151-2.0244-0.5936-4.0506-0.94922-6.0703-0.6185-3.4766-1.3277-6.9333-2.0742-10.389-0.6239-2.9067-1.3053-5.8022-2.0215-8.6953-0.76094-3.06-1.517-6.115-2.3789-9.1524-1.0856-3.838-2.3127-7.6451-3.5625-11.451-0.68403-2.0777-1.268-4.1801-2-6.2441-11.892-38.315-31.218-71.963-56.781-95.855l-6.6074-7.6543c-0.75563-1.4576-1.3115-2.8449-1.4629-4.0332 0.02618-0.06139 0.09058-0.1426 0.11914-0.20508l3.1309-3.3476 2.4668-2.625c3.7473-3.9857 7.7948-8.6673 8.9941-10.404 0.51205-0.74172 1.2924-1.0532 2.3066-0.9707v-0.00586zm-65.889 48.238c0.21016 0.05305 0.41265 0.06601 0.625 0.13086 1.4096 0.4476 2.8487 1.067 4.2969 1.7559 0.35637 0.16447 0.70806 0.30008 1.0664 0.47851 0.77637 0.39757 1.5876 1.0858 2.3789 1.6094 2.0279 1.9144 4.5511 4.4628 7.7461 7.7988 0.38457 0.39335 0.76728 0.78765 1.1484 1.1836 3.549 3.7413 6.8996 7.6292 10.156 11.578 0.71486 0.88312 1.4864 1.7217 2.1875 2.6152 1.2461 1.5588 2.3534 3.2051 3.5547 4.793 1.2286 1.6546 2.4308 3.327 3.6133 5.0137 1.9644 2.8632 3.9476 5.7136 5.7812 8.6602 0.66824 1.0519 1.3158 2.1153 1.9668 3.1777 10.965 18.259 19.35 37.979 25.258 58.305 0.1509 0.51258 0.31685 1.0197 0.46484 1.5332 1.9139 6.7398 3.5734 13.54 4.9356 20.381 3.3616 19.81 4.5489 40.352 3.7461 60.244-0.30671 3.1867-0.69134 6.4056-1.0996 9.6387-0.5081 4.2652-1.1194 8.5205-1.8633 12.768-0.49835 3.0404-0.98186 6.0778-1.5566 9.0996-1.6941 7.8486-3.7344 15.652-6.2441 23.363-2.9359 8.6237-7.3481 19.404-11.746 28.943-0.28349 0.59007-0.55693 1.1831-0.84571 1.7715-1.8526 3.954-3.6118 7.4679-5.2285 10.51l-1.2031 2.2734c-1.8292 3.282-3.4157 5.8051-4.3613 6.5898-1.471 1.2208-18.858 2.4251-28.748 2.4512-0.97688-0.06461-2.575-0.07059-3.3223-0.16016-1.536-0.09167-3.3762-0.15028-3.4336-0.4043-0.04353-0.01332-0.05056-0.03131-0.0918-0.04492 0.0179-0.28317 3.0606-5.0003 6.8008-10.543 2.3838-3.5327 4.4718-7.1757 6.6133-10.799 0.69316-1.1672 1.4617-2.2982 2.1289-3.4766 3.0106-5.3246 5.7576-10.735 8.2559-16.219 0.02731-0.0606 0.06064-0.11907 0.08789-0.17969 26.391-58.079 24.077-124.13-4.8516-180.12-0.78139-1.5377-1.6244-3.0399-2.4453-4.5586-1.8497-3.3732-3.76-6.7137-5.8066-10.004-1.5794-2.5602-3.2379-5.0659-4.9355-7.5586-1.7383-2.5458-3.5282-5.0596-5.3887-7.5449-1.7338-2.3065-3.5056-4.5784-5.3457-6.8145-2.8348-3.4844-5.821-6.875-8.9062-10.217-0.54134-0.57197-1.0623-1.1565-1.6113-1.7227-1.9433-2.0597-3.7574-4.1972-5.7969-6.1973-7.6401-7.4926-13.663-13.788-13.383-13.99s6.9296-1.8472 14.775-3.6582l10.627-2.4551zm-475.6 101.92c1.7338 0.02961 3.5559 0.30783 5.4199 0.69922 0.34815 0.08747 0.73442 0.28456 1.0938 0.40234 0.27781 0.15171 0.59339 0.32585 0.76172 0.41406l33.656 19 37.662 21.264c2.3082 2.3115 4.1406 4.7184 5.1816 7.502l0.33007 42.758 0.00196 0.32031-0.00196 0.32813-0.30859 40.941c-0.08048 1.2276-0.23107 1.2666-0.32812 2.1894-1.0212 2.57-2.6254 4.8898-4.7227 6.998l-2.2852 1.3652c-4.4058 2.6334-23.749 13.631-42.986 24.438-14.475 8.132-21.89 12.193-26.672 14.775-3.647 0.99771-7.2271 1.6828-10.844 1.5156-2.1389-0.28005-4.6136-1.0009-7.0371-1.6543-4.5634-2.6186-14.806-8.4127-26.807-15.137-13.379-7.4962-29.791-16.82-36.471-20.719l-9.3555-5.4609c-0.00866-0.00708-0.06469-0.03824-0.08399-0.05078-1.0179-1.2273-1.8474-2.5506-2.5234-3.9375-0.05806-0.30807-0.12845-0.38359-0.1836-0.74805l-0.00195-5.4766 0.29883-39.693 0.34961-46.373c0.36545-0.67819 0.76062-1.356 1.2109-1.9941 0.56902-0.44044 1.0322-0.8326 1.8047-1.3594l23.062-13.064c14.717-8.3359 33.765-19.144 42.33-24.021l5.4453-3.1016c1.6351-0.5077 3.3687-1.1585 4.8828-1.4766 2.38-0.43382 4.7404-0.68323 7.1191-0.64258zm127.17 146.03h0.00586c0.30371-0.50461 2.7586 3.4974 5.6602 8.7285l1.6504 3.3613c26.308 53.57 73.152 91.459 127.51 107.42 2.321 0.70719 4.6878 1.2411 7.0313 1.8652 2.3249 0.59491 4.6198 1.2783 6.9687 1.793 25.609 5.8603 52.299 6.654 78.662 1.8457 1.8968-0.31367 3.79-0.49035 5.6875-0.85742 18.015-3.4848 17.959-3.4887 15.182 0.75-1.2427 1.8966-4.3204 8.9285-6.8398 15.625l-3.7441 9.9531c-0.78297 1.283-1.9081 2.1478-3.4336 2.6406l-7.623 1.2266c-3.3086 0.53269-6.6644 0.89752-10.021 1.25-1.9349 0.16509-3.8782 0.4024-5.8066 0.52149-1.3883 0.10281-2.7853 0.15736-4.1797 0.23047-5.0395 0.22527-10.06 0.32362-15.045 0.23828-0.5021-0.01113-1.0014-8.6e-4 -1.5039-0.01563-3.7172-0.08679-7.3875-0.3856-11.068-0.64257-55.008-4.4834-111.16-30.024-149.61-70.246-12.501-13.078-23.544-27.145-31.145-38.916-0.0503-0.07996-0.10017-0.1602-0.15039-0.24024-1.8203-2.9578-3.6944-5.8805-5.3672-8.9297-1.176-2.1893-1.6731-3.8032-2.4492-5.6582-0.94094-4.4698-1.3746-8.7626-0.75781-12.656 1.54-2.6159 3.7775-6.5994 6.0723-11.049l3.2539-6.3105c0.24009-0.42795 0.97435-1.7813 1.0625-1.9277zm-52.758 64.289v0.00196c0.28698 0.86094 3.6747 6.4139 7.5273 12.34 13.08 20.118 27.967 37.967 44.32 53.641 0.2217 0.21295 0.43593 0.43633 0.6582 0.64843 3.9295 3.7419 7.9603 7.3294 12.062 10.809 0.50034 0.42445 0.98733 0.86855 1.4902 1.2891 4.0553 3.3896 8.2068 6.6258 12.424 9.7578 0.52083 0.38633 1.0294 0.79151 1.5527 1.1738 4.4882 3.2843 9.0722 6.4069 13.734 9.3984 0.18053 0.11545 0.35632 0.2385 0.53711 0.35351 46.325 29.567 101.02 44.688 161.07 43.639 0.71433-0.00796 1.4213 0.02451 2.1367 0.01171 0.02629-6.3e-4 0.05183 6.3e-4 0.07812 0l13.959-0.33593 13.424 0.0625 1.4512 8.7773c0.8324 5.0392 2.7047 12.771 4.1602 17.182 3.1905 9.6696 4.1507 8.9956-15.25 10.713-5.6469 0.49982-11.285 0.69222-16.922 0.86914-2.2245 0.04973-3.6098 0.21887-5.873 0.24219-4.0055 0.04711-7.9943-0.11902-11.984-0.26367-14.734-0.64333-29.208-2.0755-43.318-4.4297-0.97969-0.17002-1.9512-0.35649-2.9277-0.5332-2.9017-0.50996-5.7726-1.0964-8.6445-1.6777-0.93566-0.21799-1.8756-0.43161-2.8242-0.63672-9.5236-2.1229-18.849-4.6385-27.986-7.5078-1.7816-0.5741-3.5844-1.0798-5.3555-1.6856-0.67865-0.23455-1.3614-0.44266-2.0391-0.68164-1.3469-0.45777-2.6583-0.97909-3.9961-1.4531-4.9344-1.8004-9.8274-3.7118-14.668-5.7559-1.9127-0.80166-3.8014-1.6575-5.7012-2.4941-58.458-26.045-109.34-69.725-143.51-126.56-4.353-7.2401-6.524-11.472-7.1465-13.977 0.28052-1.1501 1.3261-2.1034 2.9414-3.1367 1.387-0.76448 3.3848-1.75 5.7285-2.8926 2.3737-1.0237 3.2192-1.2227 6.3496-2.7168 7.491-3.5753 12.218-5.1474 12.543-4.1719zm-136.08 8.332c1.2518-0.64613 5.1195 0.86793 13.377 3.6289 3.15 1.0533 5.3655 1.3902 8.5957 2.2871 1.486 0.40812 2.3435 0.64158 3.8301 1.0176 2.8706 0.72306 6.862 2.0365 8.4043 2.2363 8.6171 1.1167 11.397 1.699 14.373 5.8965 0.84576 1.3243 1.5274 2.115 2.8008 4.582 0.08548 0.16562 0.18581 0.31699 0.27148 0.48242 0.94597 1.8353 1.8003 3.4683 3.125 6.1465 7.6084 15.382 16.554 29.917 26.258 43.871 0.42395 0.61507 0.82036 1.2492 1.248 1.8613 4.3144 6.1201 8.8749 12.031 13.557 17.854 1.8543 2.3232 3.6637 4.6771 5.5742 6.9512 3.6962 4.3714 7.553 8.577 11.447 12.766 3.0972 3.3472 6.1826 6.6922 9.4023 9.918 3.2983 3.2929 6.7103 6.4499 10.129 9.6152 3.9258 3.6427 7.8649 7.255 11.945 10.723 3.3731 2.8655 6.8394 5.6008 10.311 8.3457 4.1416 3.2712 8.2945 6.5081 12.572 9.6016 2.3838 1.7295 4.7413 3.4824 7.1641 5.1562 1.781 1.2469 3.5122 2.6339 5.3066 3.8379 0.88909 0.59651 3.117 1.8807 4.3047 2.6387 41.026 27.232 86.806 45.669 135.18 54.525 43.117 9.6242 86.131 10.862 125.45 1.7637 3.6727-0.61826 7.3619-1.0488 11.021-1.7988l1.1699-0.24024 6.1855-0.9043 3.4824 2.6152 3.9258 3.1973c10.758 8.7628 18.426 13.846 28.664 19.002 3.0382 1.5301 4.5754 2.4665 5.7188 3.2949 1.7571 1.4034 0.80011 2.3835-2.5781 3.5762-1.2698 0.43147-2.4686 0.8478-4.4883 1.4004-1.4359 0.39244-3.009 0.81938-4.8984 1.3027-15.802 3.9464-41.738 9.2888-56.08 11.215-2.6268 0.35271-5.2523 0.58079-7.8789 0.87891-5.3312 0.61405-10.653 1.0893-15.971 1.4863-117.68 8.4617-233.37-36.912-315.89-117.48-38.116-37.713-69.348-83.353-91.178-135.22-1.1682-2.8899-2.3874-5.7515-3.4883-8.6777-2.2161-5.8911-3.5849-8.7011-2.3418-9.3535zm570.6 32.529c1.5256-0.01318 3.1278 0.45316 4.6934 0.74414 0.22611 0.0761 0.44135 0.13284 0.66015 0.19922 0.02743 0.0126 0.08541 0.04379 0.11329 0.05664 2.998 1.6571 8.0081 4.3713 15.525 8.3281 9.174 4.8286 20.746 11.097 25.715 13.93 4.9692 2.8328 17.01 9.4078 26.758 14.609l14.033 7.4883c0.34923 0.65826 0.7033 1.2549 1.0371 2.125 0.56526 1.4879 1.1087 3.1715 1.6348 5.0215 0.3786 1.3232 0.68898 3.0691 1.0176 4.7012v39.865 42.748c-1.325 4.8007-3.9956 8.3825-8.7461 11.848l-4.8066 2.6641c-7.4539 4.1323-19.182 10.509-26.062 14.168-6.8805 3.6594-15.95 8.6578-20.154 11.111-1.929 1.1257-5.7555 3.175-8.9512 4.9453-5.6897 3.0322-14.419 7.7695-16.352 8.7285-4.5248 0.98185-9.1221 0.3481-14.555-1.4688-1.5166-0.73087-1.7079-0.71138-3.6523-1.6894l-14.229-7.7188c-14.497-7.8658-34.8-18.94-45.121-24.611l-13.045-7.168c-2.8511-2.4718-4.5729-5.2561-5.7598-8.4648l-0.32617-44.842v-0.08594l0.34375-47.578c0.62877-1.5454 1.5624-2.7681 2.6191-3.9102 0.19544-0.21688 0.39397-0.43477 0.59961-0.64843l4.2109-2.293 13.77-7.375c12.05-6.4513 32.462-17.561 45.359-24.688 10.429-5.7634 15.844-8.4483 19.654-9.9941 1.3297-0.24012 2.7339-0.73506 4.0156-0.7461z"/>
</svg>
