<svg version="1.1" viewBox="0 0 136 213.92" xmlns="http://www.w3.org/2000/svg"><path d="m18.926 93.678c-10.45 13.546-18.926 28.781-18.926 47.238 0 40.006 30.358 73 68 73 37.64 0 68-32.994 68-73 0-18.46-8.4889-33.212-19.53-47.238-4.1402-4.3446-10.118-3.6986-14.469-0.91856-12.733 6.5886-19.606 9.2209-34.001 9.1565-13.922-0.0624-21.237-2.336-33.97-9.2774-4.3514-2.6592-10.964-3.3052-15.104 1.0394zm9.0742 11.238c13.198 7.2975 24.969 11 40 11 15.044 0 26.795-3.7025 40-11 7.2055 10.16 14 22.758 14 36 0 32.801-24.175 59-54 59-29.826 0-55-26.198-55-59 0-13.225 7.7788-25.832 15-36z" fill="#262f45"/><path d="m52.681 82.765h-0.01c-6.6729 0-12.107-5.4267-12.114-12.095-0.01-6.6905 5.4251-12.125 12.104-12.132 6.683 0 12.116 5.4267 12.124 12.095 0 6.6905-5.4251 12.126-12.104 12.133z" fill="#2397d4"/><path d="m85.398 73.882c-6.2309 0-11.302-5.0662-11.307-11.292-0.01-6.242 5.0612-11.316 11.296-11.322 6.2392 0 11.311 5.0651 11.317 11.291 0 6.242-5.0622 11.316-11.296 11.322h-0.01z" fill="#2397d4"/><path d="m76.088 41.594a10.095 10.095 0 1 1-20.19 0 10.095 10.095 0 1 1 20.19 0z" fill="#2397d4" stroke-width="1.4422"/><path d="m91.435 24.633a9.2875 9.2875 0 1 1-18.575 0 9.2875 9.2875 0 1 1 18.575 0z" fill="#2397d4" stroke-width=".80761"/><path d="m70.441 8.0762a8.0762 8.0762 0 1 1-16.152 0 8.0762 8.0762 0 1 1 16.152 0z" fill="#2397d4" stroke-width=".76916"/><script/></svg>
