<svg version="1.1" viewBox="0 0 1080 1080" xml:space="preserve" xmlns="http://www.w3.org/2000/svg">
<desc>Created with Fabric.js 5.2.4</desc>



<path d="m537.3 3.5098-0.01172 0.0039063c-14.819 0.01641-29.446 0.6181-43.793 1.4922-5.4927 0.28943-10.909 0.63982-16.182 1.0508-1.1258 0.096733-2.2242 0.20042-3.3418 0.30273-5.1597 0.43164-9.8916 1.1442-14.865 1.6934-6.625 0.92394-13.216 1.9377-19.766 3.125-3.4899 0.62647-6.9387 1.3416-10.4 2.041-0.15652 0.031928-0.31425 0.059716-0.47071 0.091797-1.8961 0.37626-3.807 0.71816-5.6875 1.1172-3.8777 0.84418-7.7352 1.7193-11.578 2.6582-1.4244 0.34491-2.8667 0.64422-4.2852 1.002-2.5313 0.58893-5.1202 1.1326-7.6074 1.7598-4.2083 1.0808-8.4423 2.1731-12.611 3.3691-6.0833 1.7421-11.907 3.641-17.648 5.6074-7.7115 2.5456-15.435 5.2724-23.084 8.2344-0.51003 0.17343-2.6137 0.99609-2.6875 0.99609-0.14624 0-2.5899 1.1744-3.0234 1.3184-1.4975 0.60108-2.9954 1.2239-4.4941 1.8223-0.6749 0.25187-1.5168 0.61781-2.2754 0.92383-1.295 0.52519-2.5918 1.0212-3.8848 1.5742-1.1048 0.49006-1.2899 0.45679-2.5312 1.0273-2.973 1.2899-5.964 2.7754-8.9492 4.1641-9.7418 4.15-19.607 8.8437-29.586 14.225-1.0203 0.50385-2.0326 0.95637-3.0586 1.502-2.3197 1.2335-4.5195 2.7089-6.8203 3.9824-1.2651 0.70278-2.5 1.4512-3.7441 2.1855-1.1512 0.67628-2.2971 1.323-3.4492 2.0137-0.38524 0.2266-0.77143 0.45141-1.1582 0.67578-1.8193 1.0559-3.5523 2.2669-5.3594 3.3438-2.0054 1.154-4.0201 2.2935-6.0039 3.4727-6.0243 3.5715-11.873 7.3342-17.697 11.131-2.7208 1.7782-5.4677 3.5234-8.1445 5.3496-6.2779 4.2714-12.393 8.7058-18.428 13.232-1.9445 1.4622-3.8934 2.9164-5.8125 4.4043-6.4683 5.0028-12.781 10.149-18.959 15.436-1.211 1.0383-2.4116 2.084-3.6113 3.1328-6.6741 5.8231-13.187 11.784-19.512 17.924-0.41407 0.40247-0.8179 0.81302-1.2305 1.2168-13.228 12.931-25.786 26.432-37.445 40.631-5.4744 6.4967-10.813 13.075-15.93 19.781-3.6688 4.7682-7.1312 9.638-10.605 14.506-1.0365 1.4603-2.0912 2.9098-3.1113 4.3789-8.2909 11.884-16.131 23.985-23.283 36.396-13.201 22.453-24.746 45.814-34.543 69.854-2.3101 5.4572-4.4098 10.946-6.5254 16.445-0.41434 1.1246-0.83963 2.2438-1.2461 3.3711-5.153 13.674-9.6971 27.457-13.605 41.289-0.42683 1.6874-0.90846 3.364-1.3164 5.0547-0.54708 2.0186-1.043 4.0403-1.5625 6.0606-2.1363 9.3981-3.9865 18.842-5.5273 28.32-0.18171 1.0977-0.32323 2.2475-0.49805 3.3574-0.001482 0.00941-0.002424 0.01989-0.003906 0.0293-0.12858 0.83036-0.24718 1.6614-0.37109 2.4922-0.06196 0.33379-0.11261 0.66443-0.17383 0.99805-0.34927 2.0097-0.71891 4.0154-1.0449 6.0274-3.164 18.554-5.2524 36.824-5.9746 54.484-0.21424 3.6539-0.18953 7.3066-0.33008 10.961 0.0069887 2.4778-0.091674 4.9716-0.035156 7.4414-0.95472 29.661 0.6832 59.295 5.082 88.572 0.12569 1.4233 0.25645 2.6164 0.38086 4.0469 0.45996 3.1041 0.81568 6.2228 1.3301 9.3184 0.97149 5.9131 1.953 11.824 3.123 17.676 6.2696 33.507 16.981 68.207 32.262 104.05 1.3491 3.1643 2.9636 6.1808 4.373 9.3125 1.8062 3.987 3.6749 7.9388 5.5781 11.875 4.8926 10.178 10.105 20.151 15.617 29.951 0.5828 1.0318 1.1468 2.074 1.7363 3.1016 8.4677 14.82 17.844 28.996 27.631 42.859 34.327 50.56 78.092 95.453 131.09 131.71 31.837 22.577 66.096 41.562 102.29 56.432 3.2231 1.3491 6.4872 2.5672 9.7344 3.8496 3.877 1.5005 7.7693 2.9624 11.688 4.3691 33.604 12.333 68.328 21.138 103.7 25.832 0.65493 0.1471 2.9488 0.4902 3.1777 0.5781 0.03893 0.0149 1.0499 0.0695 1.1192 0.0859 3.3704 0.4154 6.7584 0.6607 10.139 1.002 5.7711 0.6522 11.353 1.103 16.764 1.3594 2.9388 0.1882 5.8552 0.5754 8.7988 0.7128 0.19581 2e-3 0.39131 0.0041 0.57617 0.0118 12.568 0.5505 24.739 0.7516 36.697 0.7695 0.39472-0.0035 0.6227 0.018 1.0293 0.0137 3.1854 7e-4 6.4298-0.0758 9.7891-0.1192 6.7159-0.0824 13.369-0.2175 19.881-0.4726 1.1962-0.0413 2.3084-0.0365 3.5059-0.0821 0.53321-0.0186 1.0842-0.0176 1.6152-0.0371 3.1695-0.1258 5.9973-0.3278 9.1367-0.4824 3.8372-0.1229 4.5477-0.0967 8.9414-0.2422 1.3967-0.0462 2.8033-0.2525 4.2012-0.3144 12.574-1.2469 25.109-2.8253 37.553-4.9688 4.8047-0.7519 9.4183-1.8604 14.146-2.7422 3.2763-0.6162 6.5543-1.2202 9.8086-1.9023 6.9664-1.4487 13.927-3.044 20.781-4.7949 2.1731-0.5564 4.3183-1.182 6.4805-1.7676 14.391-3.8968 28.692-8.4268 42.949-13.762 1.1929-0.4444 2.4146-0.8221 3.6035-1.2754 5.9106-2.2628 11.892-4.8195 17.836-7.3438 3.3771-1.4402 6.7545-2.8722 10.096-4.3847 3.7288-1.6697 7.401-3.0702 11.158-4.8457 9.6029-4.5387 19.218-9.7123 28.814-15.242 28.482-15.01 53.985-31.931 74.732-50.033 0.33456-0.2661 0.69356-0.49845 1.0273-0.76562 35.29-27.518 66.668-59.095 92.631-93.727 1.9503-2.5089 3.5915-5.0275 5.4648-7.541 2.7379-3.6082 5.4226-7.3537 8.0898-11.166 1.7136-2.4616 3.5253-4.9138 5.1543-7.373 6.1762-9.2838 12.09-19.165 17.799-29.398 1.0562-1.7955 2.1564-3.7799 2.9394-5.0332 0.739-1.183 3.2424-6.2354 5.4082-10.531 0.395-0.72927 0.7438-1.4798 1.1348-2.2109 0.1614-0.31699 0.2683-0.52069 0.4238-0.82422 0.9738-1.7714 1.9367-3.8821 2.9063-5.7402 0.0698-0.14284 0.1451-0.27892 0.2148-0.42188 2.0921-4.0241 4.1844-7.9451 6.2715-12.389 0.2506-0.51381 0.3236-0.6542 0.5762-1.1719 0.0848-0.17951 0.1771-0.35554 0.2617-0.53515 3.6553-7.4917 7.5827-15.536 8.3262-16.947 4.28-8.1248 9.5067-22.642 14.744-38.738 5.5598-14.795 10.171-31.16 14.029-48.459 0.0962-0.40826 0.2038-0.8142 0.2988-1.2227 0.3958-1.8 0.909-3.4476 1.2852-5.2715 2.7299-11.445 5.0732-22.507 6.7051-32.219 0.0431-0.36679 0.1059-0.61781 0.1484-0.98829 0.1084-0.67518 0.1825-1.6828 0.2852-2.416 0.8824-8.1192 1.6385-16.953 2.2422-26.355 3.0477-33.397 3.4642-67.984 0.9824-102.05-0.2316-2.8342-0.3861-5.6672-0.6621-8.502-0.6827-13.315-1.5465-25.361-2.8477-33.072-1.6647-9.8655-3.7043-19.616-5.9101-29.309-4.6295-23.631-10.73-45.67-18.422-64.912-1.5939-3.9871-3.7379-9.5024-4.7637-12.256-7.2144-19.364-15.93-38.125-25.637-56.391-0.4136-0.77957-0.8246-1.56-1.2422-2.3359-5.5706-10.353-11.371-20.59-17.619-30.572-0.23557-0.37844-0.4548-0.76465-0.6914-1.1426-4.3717-6.9446-8.9534-13.742-13.652-20.48-1.9505-2.8107-3.919-5.6107-5.9297-8.3906-3.9018-5.3702-7.8836-10.668-11.982-15.895-10.663-14.304-22.309-27.901-34.486-41.072-1.3468-1.456-2.6857-2.9164-4.0508-4.3574-5.295-5.5929-10.689-11.09-16.258-16.451-0.49204-0.47333-1.0078-0.92502-1.502-1.3965-12.038-11.492-24.691-22.427-37.982-32.75-0.17349-0.13465-0.33998-0.27573-0.51368-0.41016-6.3254-4.8994-12.825-9.6099-19.43-14.225-1.0876-0.75927-2.1705-1.5221-3.2656-2.2734-53.221-37.884-112.83-65.61-175.8-80.26-7.0602-1.8849-14.201-3.3883-21.328-4.959-18.57-3.3802-37.294-5.7808-56.145-6.625-4.0186-0.17996-7.6189-0.21391-11.529-0.35742-13.738-0.75878-27.685-1.2754-41.758-1.2598zm-0.33203 126.43 0.00391 0.0039c2.8302 0.0349 3.5472 0.20331 4.5879 0.34961 0.70469 0.41347 1.3348 0.84989 1.5703 1.418-0.6392 1.2973-2.926 4.5986-6.502 9.0469-4.0632 5.0543-9.3854 12.38-11.828 16.281l-3.5957 5.7422c-0.63526 0.4725-1.124 1.1015-1.9844 1.4258l-13.561 0.87696c-48.798 3.1548-97.051 17.876-141.13 41.182-0.95193 0.49599-1.9294 0.94135-2.877 1.4453-2.6594 1.4346-5.2423 3.0045-7.8691 4.502-8.9621 5.0443-17.709 10.432-26.223 16.176-0.78533 0.52926-1.5899 1.0291-2.3711 1.5645-5.1414 3.525-10.152 7.2151-15.109 10.984-0.82877 0.63302-1.6706 1.2464-2.4941 1.8867-12.792 9.8945-24.913 20.583-36.297 32.01-1.1618 1.1312-2.318 2.2604-3.4629 3.4043-1.8058 1.8608-3.5723 3.7508-5.3379 5.6484-29.477 30.71-52.798 65.635-67.385 102.85-1.1072 2.6296-2.3877 5.1909-3.4219 7.8477-1.9209 4.9351-2.985 7.4603-4.1582 9.1836-0.30458 0.43592-0.55935 1.0006-0.90625 1.3418-0.73904 0.71307-1.5826 1.1773-2.75 1.5293-0.01817 0.00585-0.03251 0.01772-0.05078 0.02344-1.251 0.37096-2.8487 0.65006-5.0234 1.0625-3.9611 0.75119-12.697 3.4819-19.412 6.0684-6.7151 2.5865-13.303 5.174-14.641 5.752-0.53014 0.229-0.81461 0.21499-1.1602 0.26367-0.72695-0.07559-0.78651-1.2307-0.52344-2.9922 0.33732-1.5913 1.3656-4.7185 2.6758-8.5293 0.45056-1.3658 1.0356-3.0488 1.6582-4.7812 2.4846-6.9614 5.2674-13.751 8.0938-20.514 1.5161-3.6059 2.9908-7.2376 4.5976-10.783 2.494-5.5242 5.1886-10.918 7.9062-16.297 2.0104-3.9743 3.9942-7.9674 6.1192-11.857 2.8712-5.2541 5.9238-10.376 9.0058-15.477 2.1461-3.5586 4.2591-7.1428 6.502-10.623 3.6898-5.7098 7.5697-11.264 11.52-16.762 1.8036-2.5192 3.5607-5.0781 5.416-7.5508 4.9486-6.5695 10.105-12.955 15.416-19.193 1.0119-1.1935 1.9833-2.4265 3.0078-3.6074 19.048-21.863 40.332-41.528 63.369-58.822 33.8-24.92 71.333-45.076 110.72-59.225 37.657-13.167 77.601-20.874 118.78-22.459 0.78278-0.02885 1.5484-0.13378 2.332-0.1582 6.5282-0.21404 12.482-0.2914 16.791-0.23828zm91.844 11.342c2.0758 0.07632 4.5008 0.43425 6.8379 0.72071 5.108 1.6169 10.809 3.5107 17.771 5.9883 5.0895 2.1002 9.0864 3.7404 16.49 6.7226 14.808 5.9642 23.569 9.4301 29.898 12.141 0.35596 0.17654 0.93385 0.42284 1.2793 0.5957 3.7112 1.8575 6.8055 3.498 8.9961 4.7969l0.00195 0.00195c0.64876 0.38474 0.58085 0.4927 1.0644 0.81445 0.09568 0.10103 0.26898 0.20931 0.35352 0.31055 0.27211 0.32822 0.47135 0.70757 0.72852 1.0449 0.37053 1.3113 0.93322 4.1921 1.6484 8.3418 3.5053 23.526 9.5106 68.062 10.229 75.537 0.03492 1.3529-0.0503 2.4499-0.15821 3.5117-0.98612 2.3449-2.5302 4.6093-4.0058 6.8555-1.7615 1.7384-3.1654 3.2769-6.5274 5.9023-6.2118 4.851-17.939 14.148-26.061 20.66-8.1226 6.5124-19.409 15.429-25.082 19.811-12.337 9.5279-10.374 9.5136-32.775 0.2168-9.9385-4.1245-27.548-11.303-39.131-15.953-10.527-4.2263-18.643-7.8216-21.301-9.2656-0.92061-0.79399-1.8088-1.6099-2.5098-2.5723-1.2662-3.0226-4.7656-22.973-8.1055-44.609-2.2281-16.475-4.3003-30.831-4.9473-36.543-0.10444-1.5225-0.16378-2.7892-0.22656-4.0742 1.0574-4.0139 2.8409-7.7561 5.2148-11.416 0.99879-0.86454 1.1437-1.1753 2.5488-2.2812 4.7781-3.7606 21.136-16.64 36.352-28.621 12.255-9.6504 18.546-15.585 24.189-18.229 2.2211-0.26282 4.4766-0.50729 7.2246-0.40625l0.00195-0.00196zm148.12 69.279c0.11605-0.11764 1.6197 1.0834 2.209 1.4121l5.0488 3.7715c2.9584 2.2097 5.7851 4.5398 8.6641 6.8223 2.4819 2.0944 4.7212 4.0119 7.4277 6.3789 7.7535 6.9817 15.999 14.451 23.207 21.668 3.9828 3.988 7.8368 8.0579 11.625 12.17 0.87466 0.95817 1.7546 1.9122 2.6191 2.877 3.4541 3.8204 6.843 7.6815 10.131 11.602 4.3881 5.2727 8.6905 10.598 12.787 16.043 1.2686 1.6749 2.4574 3.3918 3.6973 5.082 4.1056 5.6314 8.105 11.322 11.9 17.119 0.59126 0.89834 1.1978 1.7894 1.7812 2.6914 12.848 19.957 23.714 40.892 32.838 62.465 1.7893 4.218 3.5488 8.4436 5.1914 12.709 1.5131 3.9416 2.9023 7.9225 4.291 11.904 39.296 116.5 26.4 250.79-45.832 360.64-16.936 25.757-16.195 25.549-19.156 5.3613-0.78492-5.3515-3.064-14.509-5.0645-20.352l-2.3926-6.9883c-0.56277-2.6528-0.16781-4.8641 1.2109-7.7539l5.2969-8.8887c4.6436-7.7908 8.8733-15.95 12.943-24.221 25.792-50.516 38.98-104.98 39.842-159.54 0.69077-21.206-0.46275-42.085-3.5801-62.066-13.093-83.92-51.787-158.05-113.28-217.02l-14.686-14.082-0.00977-2.2441 0.29493-14.557 0.13281-3.4219 0.19336-4.9766c0.22229-6.6402 0.45884-14.388 0.66797-14.602zm-273.27 9.5859c0.4854 0.47849 0.87582 1.2537 1.3086 1.9082l0.12891 3.5801v2.6719c0 1.0667 0.16199 1.817 0.20117 2.9492l0.04687 1.2891 0.42969 11.988c-0.3974 0.39881-1.693 0.59399-2.7988 0.82226l-8.3047 1.2012c-2.5835 0.37318-5.1069 0.89764-7.666 1.334-19.303 2.7763-38.485 8.1113-57.127 15.633-27.847 10.781-53.526 25.657-76.35 44.24-26.015 20.758-47.867 46.209-65.314 76.01-0.36528 0.61449-0.74218 1.218-1.1035 1.8359-1.6 2.779-3.1332 5.6223-4.6562 8.4766-1.1589 2.1361-2.393 4.2085-3.5059 6.3828-3.4493 6.739-4.8195 9.3536-6.4277 12.441-0.85047 1.4181-2.2108 4.0368-2.7539 4.832-0.19889 0.14924-0.39667 0.19246-0.5918 0.29492-0.13149 0.03712-0.29207 0.02581-0.42969 0.05078-0.37923-0.12703-0.69599-0.18923-1.3789-0.62109-1.1246-0.71121-6.1109-2.6382-11.08-4.2812-3.4778-1.1499-5.1829-1.7998-7.0039-2.4746-0.31362-0.16026-0.64685-0.32074-1.0508-0.50586-0.22922-0.52254-0.57534-0.961-0.74023-1.5293-0.18989-0.67082-0.17532-1.4838-0.2793-2.2148 0.16861-0.80957 0.32408-1.6022 0.64258-2.6035 4.6043-10.851 17.837-34.316 27.965-49.084 6.2688-8.8739 13.062-17.39 20.193-25.617 21.498-24.185 47.977-46.174 76.096-64.002 4.6702-2.8978 9.3168-5.8344 14.07-8.5078 2.1134-1.2127 4.2326-2.3888 6.3555-3.5508 9.7786-5.2511 19.634-10.04 29.447-14.18 11.456-4.588 23.003-8.4196 34.52-11.479 2.4456-0.61118 4.8376-1.1688 7.5293-1.7832 10.066-2.3574 20.1-4.2161 29.986-5.1816 1.1805-0.06004 2.3843-0.16076 3.5449-0.1875 0.79708-0.01749 1.6363-0.12049 2.4258-0.12305l3.6719-0.01562zm17.342 76.607h0.00196c1.4236 0.0292 1.7037 0.25796 2.2793 0.43555 1.012 0.72274 2.0058 1.623 3.2559 3.2148 1.1725 1.9934 2.4522 4.1789 5.4473 8.1602l6.291 8.3633c0.17998 0.28988 0.84757 1.2072 0.92578 1.3613l-5.6113 0.45898-9.5996 0.50781c-24.861 1.3149-48.652 6.873-70.664 15.785-1.035 0.40957-2.0641 0.82718-3.0898 1.252-2.492 1.0541-4.9646 2.1323-7.4062 3.2754-3.1242 1.4378-6.1872 2.9668-9.2168 4.5488-0.83107 0.4389-1.6757 0.85342-2.5 1.3027-13.155 7.1019-25.403 15.532-36.562 25.283-2.2061 1.902-4.2962 3.9193-6.416 5.9102-0.88468 0.84444-1.8001 1.6521-2.6699 2.5137-23.143 22.532-40.853 50.329-50.66 81.832-4.5192 14.516-2.7896 14.308-12.361 1.4922l-5.2949-7.0898c-1.7214-2.7227-1.9999-4.6326-1.4004-7.1562l1.7383-4.8672c2.4772-6.94 5.5536-13.756 8.9434-20.479 1.7398-3.3159 3.4555-6.6105 5.418-10.008 0.67722-1.1695 1.3498-2.3399 2.0527-3.5 1.8457-3.0897 3.7806-5.9337 5.7031-8.8691 29.775-44.023 77.639-79.873 128.96-95.311 3.5266-1.0369 7.0682-2.0328 10.658-2.9102 3.202-0.77716 6.4026-1.5847 9.6191-2.1953 10.804-2.051 25.491-3.4473 32.16-3.3125zm231.25 11.693c2.8808 0.23442 7.6997 3.7681 13.523 9.5293 8.6811 9.4466 16.58 19.38 23.969 29.594 1.9559 2.7685 3.8722 5.1431 5.8242 8.0957 0.72267 1.0931 1.0469 1.5597 1.7773 2.6602 12.525 18.882 22.917 38.822 31.115 59.471 10.972 28.574 17.879 58.809 20.805 89.248 3.8535 57.805-6.8509 118.78-32.859 170.51-1.5974 3.1771-2.7415 5.5384-3.7012 7.1875-1.8155 2.8292-3.132 3.3568-5.2422 2.291-1.3542-0.78415-3.0669-2.1714-5.6035-4.1758-3.8225-3.0205-10.265-7.4109-14.316-9.7578-3.5972-2.0838-6.0893-3.96-6.5234-4.7441-0.01161-0.61735 0.48892-1.8091 0.77735-2.7207 0.74286-1.4415 1.466-2.8504 2.8906-5.5547 5.8215-11.051 10.678-22.436 14.896-33.988 0.6577-1.763 1.4106-3.4788 2.0274-5.2598 0.63468-1.8537 1.1011-3.7459 1.6953-5.6094 1.5268-4.7787 3.0817-9.5479 4.3223-14.436 9.815-37.726 11.411-76.984 5.4434-115.24-0.31151-2.0244-0.5936-4.0506-0.94922-6.0703-0.6185-3.4766-1.3277-6.9333-2.0742-10.389-0.6239-2.9067-1.3053-5.8022-2.0215-8.6953-0.76094-3.06-1.517-6.115-2.3789-9.1524-1.0856-3.838-2.3127-7.6451-3.5625-11.451-0.68403-2.0777-1.268-4.1801-2-6.2441-11.892-38.315-31.218-71.963-56.781-95.855l-6.6074-7.6543c-0.75563-1.4576-1.3115-2.8449-1.4629-4.0332 0.02618-0.06139 0.09058-0.1426 0.11914-0.20508l3.1309-3.3476 2.4668-2.625c3.7473-3.9857 7.7948-8.6673 8.9941-10.404 0.51205-0.74172 1.2924-1.0532 2.3066-0.9707v-0.00586zm-65.979 48.26c0.29957 0.08292 0.58522 0.08953 0.88672 0.1836 1.0722 0.34776 2.1689 0.84619 3.2637 1.334 0.71892 0.31016 1.4349 0.60103 2.1621 0.96875 0.44163 0.22962 0.89345 0.54466 1.3379 0.79492 2.1762 1.986 4.8158 4.5688 8.5527 8.4707 0.38457 0.39335 0.76728 0.78765 1.1484 1.1836 3.549 3.7413 6.8996 7.6292 10.156 11.578 0.71486 0.88312 1.4864 1.7217 2.1875 2.6152 1.2461 1.5588 2.3534 3.2051 3.5547 4.793 1.2286 1.6546 2.4308 3.327 3.6133 5.0137 1.9644 2.8632 3.9476 5.7136 5.7812 8.6602 0.66824 1.0519 1.3158 2.1153 1.9668 3.1777 10.89 18.133 19.219 37.713 25.121 57.891 0.20991 0.71597 0.4439 1.423 0.64844 2.1406 1.8906 6.6771 3.5395 13.412 4.8887 20.188 3.423 20.172 4.6158 41.109 3.7226 61.34-0.11821 1.1511-0.19649 2.2713-0.32812 3.4297-0.69127 7.1324-1.7662 14.244-3.1152 21.328-0.23294 1.3232-0.4114 2.6482-0.65821 3.9668-1.753 8.4198-3.9488 16.784-6.6387 25.049-2.9359 8.6237-7.3481 19.404-11.746 28.943-0.28349 0.59007-0.55693 1.1831-0.84571 1.7715-1.8526 3.954-3.6118 7.4679-5.2285 10.51l-1.2031 2.2734c-1.8292 3.282-3.4157 5.8051-4.3613 6.5898-1.471 1.2208-18.858 2.4251-28.748 2.4512-0.97688-0.06461-2.575-0.07059-3.3223-0.16016-1.536-0.09167-3.3762-0.15028-3.4336-0.4043-0.04353-0.01332-0.05056-0.03131-0.0918-0.04492 0.0179-0.28317 3.0606-5.0003 6.8008-10.543 2.3838-3.5327 4.4718-7.1757 6.6133-10.799 0.69316-1.1672 1.4617-2.2982 2.1289-3.4766 3.0106-5.3246 5.7576-10.735 8.2559-16.219 0.02731-0.0606 0.06064-0.11907 0.08789-0.17969 26.391-58.079 24.077-124.13-4.8516-180.12-0.78139-1.5377-1.6244-3.0399-2.4453-4.5586-1.8497-3.3732-3.76-6.7137-5.8066-10.004-1.5794-2.5602-3.2379-5.0659-4.9355-7.5586-1.7383-2.5458-3.5282-5.0596-5.3887-7.5449-1.7338-2.3065-3.5056-4.5784-5.3457-6.8145-2.8348-3.4844-5.821-6.875-8.9062-10.217-0.54134-0.57197-1.0623-1.1565-1.6113-1.7227-1.9433-2.0597-3.7574-4.1972-5.7969-6.1973-7.6401-7.4926-13.663-13.788-13.383-13.99s6.9296-1.8472 14.775-3.6582l10.537-2.4336zm-475.52 101.9v0.00195c1.6945 0.02895 3.4773 0.30691 5.2969 0.6836 0.4634 0.11446 0.98868 0.39652 1.457 0.53515 0.1755 0.09525 0.41239 0.22585 0.5293 0.28711l33.656 19 38.145 21.535c2.153 2.1646 3.699 4.5902 4.6992 7.2754l0.23046 29.77 0.09766 13.053 0.00195 0.38281v0.15625l-0.30859 40.941c-0.1143 1.7434-0.31728 1.994-0.4668 3.1094-0.88615 2.0071-2.1806 3.9023-3.7734 5.5938l-3.0957 1.8496c-4.4058 2.6334-23.749 13.631-42.986 24.438-14.896 8.3684-22.76 12.679-27.447 15.205-3.7059 0.89181-7.346 1.2488-11.096 0.96875-1.5773-0.23499-3.1974-0.52839-4.8809-0.90039-4.0841-2.3539-15.429-8.7663-27.936-15.773-13.379-7.4962-29.791-16.82-36.471-20.719l-9.3555-5.4609c-0.08802-0.07201-0.78776-0.45768-0.85352-0.51758l-0.30273-0.27734c-0.61627-0.8547-0.90196-1.9057-1.3652-2.8398-0.08739-0.41538-0.18833-0.56496-0.26953-1.1016l-0.00195-5.4766 0.29883-39.693 0.35156-46.76c0.26597-0.46727 0.59818-0.93182 0.90625-1.3789 0.60245-0.48423 1.2052-0.97269 2.1074-1.5879l23.062-13.064c14.717-8.3359 33.765-19.144 42.33-24.021l5.3184-3.0293c1.8994-0.64686 3.8454-1.347 5.5508-1.6777 2.1958-0.3689 4.3719-0.54344 6.5703-0.50586zm127.18 146.03h0.00586c0.30371-0.50461 2.7586 3.4974 5.6602 8.7285l1.6504 3.3613c26.308 53.57 73.152 91.459 127.51 107.42 2.321 0.70719 4.6878 1.2411 7.0313 1.8652 2.3249 0.59491 4.6198 1.2783 6.9687 1.793 25.609 5.8603 52.299 6.654 78.662 1.8457 1.8968-0.31367 3.79-0.49035 5.6875-0.85742 18.015-3.4848 17.959-3.4887 15.182 0.75-1.2427 1.8966-4.3204 8.9285-6.8398 15.625l-3.7441 9.9531c-0.78297 1.283-1.9081 2.1478-3.4336 2.6406l-7.623 1.2266c-3.3086 0.53269-6.6644 0.89752-10.021 1.25-1.9349 0.16509-3.8782 0.4024-5.8066 0.52149-1.3883 0.10281-2.7853 0.15736-4.1797 0.23047-5.0395 0.22527-10.06 0.32362-15.045 0.23828-0.5021-0.01113-1.0014-8.6e-4 -1.5039-0.01563-3.7172-0.08679-7.3875-0.3856-11.068-0.64257-55.008-4.4834-111.16-30.024-149.61-70.246-12.501-13.078-23.544-27.145-31.145-38.916-0.0503-0.07996-0.10017-0.1602-0.15039-0.24024-1.8203-2.9578-3.6944-5.8805-5.3672-8.9297-1.5154-2.8211-2.3151-5.0411-3.1562-7.291-0.66655-3.7107-0.76041-7.2188-0.32812-10.521 1.5002-2.5131 3.9505-6.8989 6.3496-11.551l3.2539-6.3105c0.24009-0.42795 0.97435-1.7813 1.0625-1.9277zm-52.758 64.289v0.00196c0.28698 0.86094 3.6747 6.4139 7.5273 12.34 13.08 20.118 27.967 37.967 44.32 53.641 0.2217 0.21295 0.43593 0.43633 0.6582 0.64843 3.9295 3.7419 7.9603 7.3294 12.062 10.809 0.50034 0.42445 0.98733 0.86855 1.4902 1.2891 4.0553 3.3896 8.2068 6.6258 12.424 9.7578 0.52083 0.38633 1.0294 0.79151 1.5527 1.1738 4.4882 3.2843 9.0722 6.4069 13.734 9.3984 0.18053 0.11545 0.35632 0.2385 0.53711 0.35351 46.325 29.567 101.02 44.688 161.07 43.639 0.71433-0.00796 1.4213 0.02451 2.1367 0.01171 0.02629-6.3e-4 0.05183 6.3e-4 0.07812 0l13.959-0.33593 13.424 0.0625 1.4512 8.7773c0.8324 5.0392 2.7047 12.771 4.1602 17.182 3.1905 9.6696 4.1507 8.9956-15.25 10.713-5.6469 0.49982-11.285 0.69222-16.922 0.86914-2.2245 0.04973-3.6098 0.21887-5.873 0.24219-5.3196 0.06256-10.62-0.13117-15.916-0.34961-0.37264-0.01112-0.73258-0.01983-1.123-0.02734-13.438-0.7771-26.607-2.335-39.514-4.5449-2.6869-0.47386-5.3881-0.91738-8.0391-1.4668-1.7368-0.35092-3.3919-0.78141-5.1074-1.1524-9.5236-2.1229-18.849-4.6385-27.986-7.5078-1.7816-0.5741-3.5844-1.0798-5.3555-1.6856-0.67865-0.23455-1.3614-0.44266-2.0391-0.68164-1.3469-0.45777-2.6583-0.97909-3.9961-1.4531-4.9344-1.8004-9.8274-3.7118-14.668-5.7559-1.9127-0.80166-3.8014-1.6575-5.7012-2.4941-58.458-26.045-109.34-69.725-143.51-126.56-4.353-7.2401-6.524-11.472-7.1465-13.977 0.28052-1.1501 1.3261-2.1034 2.9414-3.1367 1.387-0.76448 3.3848-1.75 5.7285-2.8926 2.3737-1.0237 3.2192-1.2227 6.3496-2.7168 7.491-3.5753 12.218-5.1474 12.543-4.1719zm-136.08 8.332c1.2518-0.64613 5.1195 0.86793 13.377 3.6289 3.15 1.0533 5.3655 1.3902 8.5957 2.2871 1.486 0.40812 2.3435 0.64158 3.8301 1.0176 2.8706 0.72306 6.862 2.0365 8.4043 2.2363 8.6171 1.1167 11.397 1.699 14.373 5.8965 0.84576 1.3243 1.5274 2.115 2.8008 4.582 0.08548 0.16562 0.18581 0.31699 0.27148 0.48242 0.94597 1.8353 1.8003 3.4683 3.125 6.1465 7.6084 15.382 16.554 29.917 26.258 43.871 0.42395 0.61507 0.82036 1.2492 1.248 1.8613 4.3144 6.1201 8.8749 12.031 13.557 17.854 1.8543 2.3232 3.6637 4.6771 5.5742 6.9512 3.6962 4.3714 7.553 8.577 11.447 12.766 3.0972 3.3472 6.1826 6.6922 9.4023 9.918 3.2983 3.2929 6.7103 6.4499 10.129 9.6152 3.9258 3.6427 7.8649 7.255 11.945 10.723 3.3731 2.8655 6.8394 5.6008 10.311 8.3457 4.1416 3.2712 8.2945 6.5081 12.572 9.6016 2.3838 1.7295 4.7413 3.4824 7.1641 5.1562 1.781 1.2469 3.5122 2.6339 5.3066 3.8379 0.88909 0.59651 3.117 1.8807 4.3047 2.6387 39.513 26.228 83.418 44.362 129.82 53.58 46.661 11.143 93.459 12.675 135.65 1.9199 2.0576-0.37912 4.1304-0.58896 6.1836-1.0098l1.1699-0.24024 6.1855-0.9043 3.4824 2.6152 3.9258 3.1973c10.758 8.7628 18.426 13.846 28.664 19.002 3.0382 1.5301 4.5754 2.4665 5.7188 3.2949 1.7571 1.4034 0.80011 2.3835-2.5781 3.5762-1.2698 0.43147-2.4686 0.8478-4.4883 1.4004-1.4359 0.39244-3.009 0.81938-4.8984 1.3027-15.802 3.9464-41.738 9.2888-56.08 11.215-2.6268 0.35271-5.2523 0.58079-7.8789 0.87891-5.3312 0.61405-10.653 1.0893-15.971 1.4863-117.68 8.4617-233.37-36.912-315.89-117.48-38.116-37.713-69.348-83.353-91.178-135.22-1.1682-2.8899-2.3874-5.7515-3.4883-8.6777-2.2161-5.8911-3.5849-8.7011-2.3418-9.3535zm570.6 32.537c1.0292-0.0089 2.0681 0.13894 3.1055 0.25781 0.75225 0.22638 1.5044 0.4515 2.25 0.67773 0.02743 0.0126 0.08541 0.04379 0.11329 0.05664 2.998 1.6571 8.0081 4.3713 15.525 8.3281 9.174 4.8286 20.746 11.097 25.715 13.93 4.9692 2.8328 17.01 9.4078 26.758 14.609l14.32 7.6426c0.30243 0.67529 0.58803 1.5355 0.88086 2.3184 0.50511 1.3632 0.9934 2.8558 1.4668 4.5098 0.39312 1.3649 0.68599 3.3299 1.0547 4.8711v39.859 42.748c-1.325 4.8007-3.9956 8.3825-8.7461 11.848l-4.8066 2.6641c-7.4539 4.1323-19.182 10.509-26.062 14.168-6.8805 3.6594-15.95 8.6578-20.154 11.111-1.929 1.1257-5.7555 3.175-8.9512 4.9453-5.6897 3.0322-14.419 7.7695-16.352 8.7285-4.5248 0.98185-9.1221 0.3481-14.555-1.4688-1.5166-0.73087-1.7079-0.71138-3.6523-1.6894l-14.229-7.7188c-14.497-7.8658-34.8-18.94-45.121-24.611l-13.045-7.168c-2.8511-2.4718-4.5729-5.2561-5.7598-8.4648l-0.32617-44.842v-0.08594l0.34375-47.578c0.70968-1.7443 1.7031-3.167 2.9551-4.4141l4.4746-2.4375 13.77-7.375c12.05-6.4513 32.462-17.561 45.359-24.688 10.822-5.981 16.615-8.8876 20.396-10.371 1.097-0.15707 2.1997-0.35012 3.2715-0.35937v-0.00195z"/>
</svg>
