<?xml version="1.0" encoding="UTF-8" standalone="no"?>
<svg width="460" height="128" viewBox="0 0 121.708 33.867" version="1.1" id="svg8" sodipodi:docname="windows-to-zorin-os.svg" inkscape:version="1.1 (1:1.1+202105261517+ce6663b3b7)" xmlns:inkscape="http://www.inkscape.org/namespaces/inkscape" xmlns:sodipodi="http://sodipodi.sourceforge.net/DTD/sodipodi-0.dtd" xmlns="http://www.w3.org/2000/svg" xmlns:svg="http://www.w3.org/2000/svg">
  <defs id="defs12"/>
  <sodipodi:namedview id="namedview10" pagecolor="#ffffff" bordercolor="#666666" borderopacity="1.0" inkscape:pageshadow="2" inkscape:pageopacity="0.0" inkscape:pagecheckerboard="0" showgrid="false" inkscape:zoom="4.3072026" inkscape:cx="177.14514" inkscape:cy="63.846544" inkscape:window-width="3440" inkscape:window-height="1356" inkscape:window-x="0" inkscape:window-y="0" inkscape:window-maximized="1" inkscape:current-layer="svg8"/>
  <path d="M91.037 27.533l3.046 5.275h18.331l3.046-5.275zm30.529-10.599l-3.072 5.324H98.999l19.495-10.648zm-36.635 0l3.072-5.324h19.495L88.004 22.258zm6.106-10.6l3.046-5.275h18.331l3.046 5.275z" fill="#15a6f0" id="path2"/>
  <path d="M61.078 10.562l-1.466 1.467 3.847 3.847-8.955-.024v2.117l8.955.024-3.847 3.846 1.466 1.466 6.351-6.393z" fill="#333" fill-opacity=".376" id="path6"/>
  <rect style="opacity:1;fill:#808080;fill-opacity:1;stroke:none;stroke-width:0.250432" id="rect1035" width="13.758469" height="13.758469" x="5.2909555" y="2.6458595"/>
  <rect style="opacity:1;fill:#808080;fill-opacity:1;stroke:none;stroke-width:0.250432" id="rect1297" width="13.758469" height="13.758469" x="20.107759" y="2.6458595"/>
  <rect style="opacity:1;fill:#808080;fill-opacity:1;stroke:none;stroke-width:0.250432" id="rect1299" width="13.758469" height="13.758469" x="20.107759" y="17.462671"/>
  <rect style="opacity:1;fill:#808080;fill-opacity:1;stroke:none;stroke-width:0.250432" id="rect1301" width="13.758469" height="13.758469" x="5.2909532" y="17.462671"/>
<script xmlns="" id="bw-fido2-page-script"/></svg>