<svg width="280mm" height="303.26mm" version="1.1" viewBox="0 0 280 303.26" xml:space="preserve" xmlns="http://www.w3.org/2000/svg"><path d="m144.54 195.9s45.362 12.321 60.942-13.43c20.314-33.575 5.4171-51.033 27.086-67.149 27.086-20.145 62.465 10.409 40.628 53.719-20.314 40.289-68.522 60.234-94.798 53.719-27.086-6.7149-33.857-26.859-33.857-26.859z" stroke-width=".6743px"/><path d="m33.207 74.959c27.086 0 13.543 53.72 27.086 67.149l13.543 13.43s-47.4 6.7149-60.942-33.575c-9.6652-26.992 0-47.004 20.314-47.004z" stroke-width=".6743px"/><path d="m143.68 0.018831c-3.8591 0.18932-8.5755 2.5104-8.9009 7.7923 0 0-1.9968 10.688 13.543 20.144 17.553 10.682 31.739 1.3211 33.856-6.7147 2.1166-8.0359-3.3424-10.527-6.7709-10.073-0.74425 0.09862-1.4867 0.48903-2.2274 1.0228 0.0206-4.9725 0.7955-11.14-8.2796-3.9685-1.236 0.97674-2.5845 1.9343-3.9655 2.7033-3.735-9.5653-6.6096-4.9175-9.2687-0.62668-1.4879-2.7715-1.7633-7.7249-3.7483-9.2937-0.90651-0.71642-2.4834-1.0719-4.2375-0.98582z" stroke-width=".6743px"/><path d="m202.49 303.26s-91.802-20.071-125.66-80.503c-20.798-37.124-23.032-194.78 57.944-188.09 81.26 6.7149 36.855 114.22 23.312 167.95-13.543 53.719 44.401 100.65 44.401 100.65z" stroke-width=".6743px"/><path d="m9.117 202.62c-20.314 6.7149-3.6263 43.408 20.314 67.149 20.314 20.145 54.171 33.575 60.942 20.145 6.7713-13.43-20.314-6.7149-47.4-33.575-27.086-26.859-13.543-60.434-33.857-53.719z" stroke-width=".6743px"/><path d="m273.2 81.747c16.661-5.6088-2.346-27.829-15.889-41.259s-31.511-25.89-38.283-12.46c-6.7713 13.43 11.197 12.46 24.74 25.89 13.543 13.43 12.771 33.438 29.432 27.829z" stroke-width=".6743px"/></svg>
