<svg version="1.1" viewBox="0 0 42.681 32" xmlns="http://www.w3.org/2000/svg"><path d="m6.6753 0.0030297c-1.0749 0.00669-1.8775 0.010483-2.4481 0.016673-0.56938 0.00617-0.87534 0.00627-1.0754 0.025009-0.020803 0.00195-0.056822 0.00923-0.097255 0.016673-0.01223 0.00228-0.055674 0.00898-0.097255 0.02223 0.052187-0.016639-0.020769-0.00204-0.091693 0.030565-0.070932 0.032605-0.13499 0.08173-0.19451 0.13894-0.096175 0.092407-0.20761 0.24582-0.2223 0.47794-0.015462 0.24249 0.074436 0.40073 0.17784 0.51962 0.058259 0.066992 0.12303 0.12678 0.19728 0.16673 0.074249 0.039951 0.15392 0.061687 0.094482 0.038902 0.072743 0.02788 0.165 0.041063 0.15284 0.038902 0.10711 0.019047 0.20671 0.028127 0.34734 0.038902 0.2888 0.022133 0.74708 0.046685 1.3588 0.083363 5.9925 0.35935 9.8743 0.97655 13.205 1.8479-5.7648 0.26178-10.5 0.65945-14.435 1.3755-1.2853 0.23385-2.0478 0.37658-2.5148 0.48905-0.22633 0.054538-0.39815 0.097765-0.5752 0.18895-0.03241 0.016692-0.2871 0.16138-0.3918 0.4057-0.07879 0.18383-0.08655 0.33932-0.02501 0.53075 0.04786 0.14863 0.13868 0.26096 0.19172 0.31399 0.06494 0.064927 0.13887 0.11645 0.21396 0.15006 0.07509 0.033599 0.14651 0.048616 0.11116 0.038902 0.05207 0.014496 0.10368 0.020345 0.11948 0.022229 0.0019 1.3e-5 0.0037 1.3e-5 0.0055 0 0.05007 0.0058 0.09383 0.00786 0.12504 0.00833 0.07081 6.347e-4 0.14212-0.0035 0.22507-0.00833 0.16831-0.00951 0.38763-0.029965 0.653-0.055574 0.53094-0.051251 1.2412-0.12916 2.0146-0.22787 4.0298-0.51423 7.8118-0.85441 10.993-0.98922 0.70192-0.029761 1.6012-0.00128 2.4565 0-3.1968 0.82098-6.8155 2.0052-9.4865 3.3262-1.0146 0.50163-2.0045 1.0591-2.7399 1.5255-0.36727 0.23293-0.66878 0.43786-0.89753 0.62521-0.11029 0.09035-0.21702 0.18425-0.31399 0.30844-0.035755 0.04578-0.12206 0.16645-0.16394 0.31399-0.037813 0.13324-0.032795 0.24042-0.00842 0.36401 0.024528 0.1236 0.074946 0.26392 0.20006 0.38902 0.099772 0.09978 0.22065 0.16988 0.33901 0.19728 0.11836 0.02744 0.2417 0.01366 0.1834 0.01394 0.067708-3.75e-4 0.13814-0.01187 0.15006-0.01394v-0.0028c0.058106-0.0116 0.1077-0.02312 0.13895-0.03334 0.074011-0.02425 0.15079-0.05493 0.24175-0.09169 0.1827-0.07387 0.42371-0.1794 0.71692-0.31122 0.58326-0.26223 1.3716-0.63073 2.2258-1.0448l0.011096-0.0056c4.9032-2.1908 9.0408-3.7343 14.811-4.0208 0.05795 0.12852 0.11115 0.24234 0.17784 0.40014v0.0028l0.42793 0.98088c-2.3558 1.6788-3.2834 4.2674-2.8204 6.6244 0.48514 2.4706 2.3871 4.6562 5.299 5.1434 0.74602 0.12186 1.5874 0.19537 2.5455 0.2334 4.945-0.20235 7.6697 4.1194 9.2143 7.9138 0.18092 0.49441 0.33751 0.97399 0.4446 1.3671 0.10598 0.38905 0.15826 0.7499 0.1584 0.79472 5.04e-4 0.21816 0.02511 0.43052 0.09169 0.63077 0.03098 0.09316 0.08507 0.21996 0.17784 0.33901 0.10796 0.13857 0.32237 0.32234 0.64189 0.32234 0.25058 0 0.41657-0.09193 0.55852-0.23897 0.10296-0.10666 0.16142-0.23119 0.18618-0.29732 0.05512-0.1473 0.06713-0.2846 0.07502-0.39457 0.01709-0.23791 0.0045-0.50587-0.025-0.81139-0.05929-0.61352-0.19133-1.385-0.38347-2.1563-0.47129-1.8916-1.5453-4.3162-2.8704-5.927 2.1185 0.60972 4.0363 2.9129 4.5709 4.4848 0.0498 0.14625 0.12911 0.31899 0.26676 0.46682 0.05761 0.06181 0.20449 0.19291 0.40014 0.24454 0.15204 0.04012 0.27232 0.02364 0.3918-0.0084 0.1195-0.03192 0.23759-0.0793 0.35012-0.19174 0.26056-0.26056 0.24648-0.65977 0.24176-0.7308-0.01-0.15718-0.04075-0.30644-0.08058-0.4585-0.08066-0.30836-0.2058-0.66089-0.36124-1.0365-0.31065-0.7506-0.72617-1.5744-1.1504-2.1507-1.5401-2.0921-4.6641-3.7111-8.1722-4.432-0.84964-0.1746-2.7077-0.46127-4.2932-0.46127 0.04768 0-0.11454-0.0042-0.27787-0.01667-0.16333-0.0124-0.37516-0.03413-0.603-0.0528-0.45565-0.03735-0.96642-0.07924-1.2365-0.10282-2.5415-0.22192-3.6317-2.0821-3.5345-3.9209 0.09723-1.8387 1.3831-3.6012 3.9875-3.6012 0.78204 0 1.2052 0.03164 1.9061 0.2334 0.69843 0.20105 1.6761 0.59007 3.3706 1.3088 0.73488 0.31173 1.1495 0.51801 1.2977 0.61967 0.18612 0.12763 0.07463-0.01808 0.13615 0.18895 0.05111 0.17195 0.03763 0.64685 0.42516 1.0087 0.24194 0.22596 0.5135 0.309 0.83084 0.4446 0.31384 0.13411 0.64105 0.27076 0.80584 0.36124 0.69491 0.40696 0.96796 0.58537 1.5617 1.3616 0.16028 0.21089 0.47701 0.2122 0.63911 0.0028 0.6235-0.80465 0.72108-0.72673 1.5171-0.99202 0.41406-0.13455 0.34973-0.73918-0.08336-0.78361-0.46442-0.05184-1.111-0.35448-1.4839-0.63633-0.0973-0.07355-0.10251-0.09111-0.15284-0.14728 0.12808-0.16677 0.10627-0.40397-0.05003-0.54463-0.27776-0.24906-0.47789-0.63208-0.64466-1.0032-0.03973-0.0884-0.07887-0.16809-0.1167-0.25286-7.07e-4 -0.0023-2e-3 -0.0033-0.0028-0.0056-0.02191-0.06779-0.04827-0.1272-0.07225-0.17507-0.0097-0.01943-0.02561-0.03906-0.03612-0.05836-0.0063-0.01227-0.0104-0.02686-0.01667-0.03889-0.03748-0.07108-0.08121-0.14331-0.1306-0.21118-5.49e-4 -0.0011-0.0023-0.0017-0.0028-0.0028l-0.0028-0.0056c-0.01267-0.02634-0.02373-0.05284-0.03889-0.07781-0.04809-0.07915-0.10855-0.16501-0.18338-0.26118-0.08474-0.10293-0.18509-0.19346-0.27232-0.29454-1.4995-1.9703-3.393-3.6674-5.4715-4.9238-0.17406-0.1045-0.32632-0.19023-0.48628-0.25286-0.06028-0.023589-0.18647-0.070524-0.33624-0.075025-0.07054-0.00211-0.2318 0.00872-0.38068 0.091701-0.20483 0.11398-0.30152 0.25266-0.34734 0.47239-0.0068 0.032385 0.0035 0.06126 0.0028 0.094474-0.0024 0.010083-0.0155 0.018167-0.01667 0.027787-0.0076 0.061114 0.0092 0.071671 0.01944 0.10282 0.01657 0.11022 0.04164 0.19889 0.03612 0.18617l0.0028 0.00277c0.02392 0.05388 0.05712 0.10556 0.06669 0.11949 0.03035 0.04412 0.06186 0.079964 0.07502 0.094474h0.0028c0.03865 0.042441 0.07549 0.080892 0.1167 0.11949 0.08467 0.079109 0.193 0.17401 0.32512 0.2862l0.0084 0.00556 0.0056 0.00556c1.4453 1.1039 2.9943 2.4692 4.0569 3.6012-5.5941-3.9396-9.2951-0.73251-9.8394-5.6713v-1.5699c1.67e-4 -0.16573-0.10129-0.3146-0.25557-0.37512l-1.3588-0.53352c-4.008-1.5734-8.1178-2.0979-15.704-2.0507z" stroke-width="1.3338"/></svg>
