<?xml version="1.0" encoding="UTF-8" standalone="no"?>
<svg fill="none" version="1.1" viewBox="0 0 512 512" id="svg1" xmlns="http://www.w3.org/2000/svg" xmlns:svg="http://www.w3.org/2000/svg">
 <defs id="defs1" />
 <path id="path1" style="fill-rule:evenodd;stroke-width:1.00157" d="M 256,0 C 80.56689,-7.2478991 -54.344691,194.66155 19.48684,353.96696 79.925999,518.81967 318.09443,566.19432 437.01934,437.01934 555.84344,327.49987 527.27051,115.54835 389.01349,37.268632 349.1936,12.978063 302.64414,-0.06455289 256,0 Z m 44.44141,56.861328 c 9.10794,8.351117 26.64625,4.141945 33.7825,16.735099 24.12474,0.839852 60.27056,20.923431 73.52396,45.358593 7.21604,16.30256 6.75675,37.50044 28.12177,43.4031 17.53995,10.80389 44.4894,21.58584 43.43895,46.20641 -12.50443,-20.31809 -33.91684,-29.26728 -55.16419,-37.55115 -27.90349,-11.96376 -56.35262,-20.36218 -85.36707,-30.05822 10.42845,8.34818 25.05069,10.98094 37.19488,16.99088 26.40349,11.16058 53.10628,21.56676 79.4978,33.14704 28.09636,16.64451 -12.46461,12.4464 -24.37235,4.30934 -25.02229,-12.33356 -51.50943,-3.55179 -76.48304,2.85774 -24.28292,2.76137 -51.28598,14.80653 -56.36275,41.34872 -13.40981,52.45936 6.90253,106.64552 6.17151,160.26648 -2.4256,16.08355 -1.5604,43.66798 -5.69047,52.08371 -2.64451,-22.05114 -12.62979,-37.94264 -20.44763,-61.26281 -19.78594,-48.41171 -43.22334,-95.96486 -74.86363,-137.75504 -4.98627,-21.74101 2.70513,-44.44654 4.65185,-66.40361 7.71843,-26.93453 20.38977,-52.47756 34.86791,-76.37734 12.18553,-12.045024 28.69494,-33.170358 36.11411,-36.311068 -14.02721,-21.178727 16.77664,-5.047044 21.38589,-16.987874 z M 107.99609,86 c 38.95838,0 77.91676,0 116.87514,0 -6.41636,7.347127 -12.24599,12.551555 -23.10669,10 -31.89173,-0.262036 -63.88822,0.524045 -95.71449,-0.392929 C 101.0797,93.713421 102.67541,85.810199 107.99609,86 Z m 253.89649,28.85742 c -29.17689,15.13798 44.2508,38.52953 15.9155,6.45641 -4.45898,-3.68376 -10.04605,-6.3724 -15.9155,-6.45641 z M 62.001953,148 c 42.496747,0 84.993487,0 127.490227,0 -0.58436,14.28133 -14.29644,9.1937 -24.11988,10 -35.09092,-0.26403 -70.287273,0.52675 -105.312655,-0.39298 C 55.091384,155.71399 56.683502,147.81439 62.001953,148 Z M 42,209 c 44.337257,0 88.67451,0 133.01177,0 3.77777,15.62204 -13.0088,8.46529 -21.64527,10 -37.75788,-0.2613 -75.620277,0.52307 -113.312714,-0.39298 C 35.083639,216.71322 36.679405,208.81018 42,209 Z m -4.998047,62 c 47.386716,0 94.773427,0 142.160147,0 17.15394,14.54593 -5.48839,8.99466 -15.5572,10 -42.83519,-0.26331 -85.775574,0.52576 -128.545255,-0.39298 C 30.091384,278.71399 31.683502,270.81439 37.001953,271 Z M 52,332 c 55.28387,0 110.56774,0 165.85161,0 13.92207,15.18951 -8.6264,8.64591 -17.82282,10 C 150.05037,341.73653 99.966696,342.52597 50.053786,341.60702 45.083639,339.71322 46.679405,331.81018 52,332 Z m 40,62 c 51.74741,0 103.49483,0 155.24224,0 12.07534,16.08284 -11.54767,8.13259 -20.5698,10 -45.52654,-0.26115 -91.15755,0.52286 -136.618654,-0.39298 C 85.083639,401.71322 86.679405,393.81018 92,394 Z" />
</svg>
