<svg width="500pt" height="500pt" version="1.1" viewBox="0 0 500 500" xmlns="http://www.w3.org/2000/svg"><path d="m9.496 248.23c4e-3 133.81 107.69 242.28 240.51 242.28 132.82-4e-3 240.49-108.47 240.5-242.27-0.852-119.33-98.488-237.2-242.68-238.72-143.43-1.517-236.6 125.97-238.33 238.72z" fill="none" stroke="#000" stroke-width="18.992"/><path d="m137.79 217.32c1.371-71.914 23.969-123.28 41.777-123.28 21.914 0 53.418 30.137 75.336 30.137 13.696 0 44.516-21.914 68.485-21.914 12.328 0 32.129 39.043 32.812 104.79-86.422 4.953-143.84 38.617-218.41 10.265zm85.027 74.129c13.282-8.133 34.97-7.594 46.727-0.926l0.191 9.684c-12.367-6.777-34.031-6.348-46.722 0.926z" fill-rule="evenodd"/><path d="m288.07 379.64s-3.98 14.949-37.32 16.125c-36.996 1.734-41.598-12.465-41.598-12.465" fill="none" stroke="#000" stroke-linecap="round" stroke-linejoin="round" stroke-width="18.924"/><path d="m72.547 226.77c0.656-26.21 109.02 19.926 142.48 15.57 52.16-3.769 195.61-48.331 202.82-14.913 5.238 29.484-40.29 6.324-125 19.215 0 0-220.3 24.03-220.3-19.872zm60.109 66.434c10.824-15.734 59.906-20.578 95.535-4.973 0 0 5.348 15.903-1.386 26.07-5.54 16.782-56.563 33.954-86.153 14.727-11.234-9.351-12.859-21.937-7.996-35.824zm226.44-10.945c-12.696-14.262-62-12.973-95.414 6.941 0 0-3.328 16.442 4.617 25.695 7.582 15.961 60.344 26.66 87.316 3.907 9.985-10.676 10.032-23.368 3.48-36.543z" fill-rule="evenodd"/></svg>
