<?xml version="1.0" encoding="UTF-8" standalone="no"?>
<!-- Created with Inkscape (http://www.inkscape.org/) -->

<svg
   width="210mm"
   height="297mm"
   viewBox="0 0 210 297"
   version="1.1"
   id="svg1"
   inkscape:version="1.3.2 (091e20ef0f, 2023-11-25)"
   sodipodi:docname="android2.svg"
   xmlns:inkscape="http://www.inkscape.org/namespaces/inkscape"
   xmlns:sodipodi="http://sodipodi.sourceforge.net/DTD/sodipodi-0.dtd"
   xmlns="http://www.w3.org/2000/svg"
   xmlns:svg="http://www.w3.org/2000/svg">
  <sodipodi:namedview
     id="namedview1"
     pagecolor="#ffffff"
     bordercolor="#000000"
     borderopacity="0.25"
     inkscape:showpageshadow="2"
     inkscape:pageopacity="0.0"
     inkscape:pagecheckerboard="0"
     inkscape:deskcolor="#d1d1d1"
     inkscape:document-units="mm"
     inkscape:zoom="0.92559624"
     inkscape:cx="397.04137"
     inkscape:cy="561.25984"
     inkscape:window-width="3000"
     inkscape:window-height="1183"
     inkscape:window-x="0"
     inkscape:window-y="0"
     inkscape:window-maximized="1"
     inkscape:current-layer="layer1" />
  <defs
     id="defs1" />
  <g
     inkscape:label="Vrstva 1"
     inkscape:groupmode="layer"
     id="layer1">
    <path
       class="st2"
       d="m 150.01532,157.28928 c -0.0264,-0.1852 -0.0529,-0.34395 -0.0794,-0.52916 -0.18521,-1.08479 -0.39688,-2.16959 -0.66146,-3.25438 -0.44979,-1.87854 -1.03187,-3.70416 -1.71979,-5.45041 -0.58208,-1.50813 -1.24354,-2.96334 -1.98438,-4.36563 -0.9525,-1.79917 -2.01083,-3.54542 -3.20145,-5.21229 -1.45521,-2.03729 -3.06917,-3.91583 -4.81542,-5.68854 -0.74083,-0.74084 -1.50812,-1.45521 -2.30187,-2.11667 -1.71979,-1.48167 -3.54542,-2.83104 -5.47688,-4.02167 0.0265,-0.0264 0.0265,-0.0529 0.0529,-0.0794 0.87313,-1.53458 1.77271,-3.04271 2.64584,-4.57729 0.87312,-1.48167 1.71979,-2.96334 2.59291,-4.47146 0.60854,-1.05833 1.24354,-2.14313 1.85209,-3.20146 0.15874,-0.26458 0.26457,-0.50271 0.34395,-0.79375 0.23812,-0.74083 0.26458,-1.53458 0.0529,-2.27542 -0.0529,-0.1852 -0.10583,-0.37041 -0.1852,-0.52916 -0.0794,-0.18521 -0.15875,-0.34396 -0.26458,-0.50271 -0.3175,-0.55563 -0.79375,-1.03188 -1.40229,-1.37583 -0.52917,-0.3175 -1.11125,-0.50271 -1.71979,-0.55563 -0.26459,-0.0265 -0.50271,-0.0265 -0.7673,0 -0.21166,0.0265 -0.42333,0.0529 -0.60854,0.10583 -0.74083,0.18521 -1.40229,0.58209 -1.93146,1.16417 -0.1852,0.21167 -0.37041,0.44979 -0.5027,0.68792 -0.60855,1.05833 -1.24355,2.14312 -1.85209,3.20146 l -2.59291,4.47145 c -0.87313,1.53459 -1.77271,3.04271 -2.64584,4.5773 -0.10583,0.15875 -0.18521,0.34395 -0.29104,0.5027 -0.13229,-0.0529 -0.26458,-0.10583 -0.39687,-0.15875 -4.86834,-1.85208 -10.13355,-2.8575 -15.66334,-2.8575 -0.15875,0 -0.29104,0 -0.44979,0 -4.89479,0.0529 -9.604374,0.89959 -14.022916,2.43417 -0.502708,0.18521 -1.005417,0.37042 -1.508125,0.55563 -0.07937,-0.15875 -0.185208,-0.3175 -0.264583,-0.47625 -0.873125,-1.53459 -1.772709,-3.04271 -2.645834,-4.5773 -0.873125,-1.48166 -1.719791,-2.96333 -2.592916,-4.47145 -0.608542,-1.05834 -1.243542,-2.14313 -1.852084,-3.20146 -0.15875,-0.26459 -0.3175,-0.47625 -0.502708,-0.68792 -0.529167,-0.58208 -1.217083,-0.97896 -1.931458,-1.16417 -0.211667,-0.0529 -0.423334,-0.0794 -0.608542,-0.10583 -0.264583,-0.0265 -0.502708,-0.0265 -0.767292,0 -0.608541,0.0529 -1.190625,0.23813 -1.719791,0.55563 -0.582084,0.34395 -1.058334,0.8202 -1.402292,1.37583 -0.105833,0.15875 -0.185208,0.3175 -0.264583,0.50271 -0.07937,0.18521 -0.132292,0.34396 -0.185209,0.52916 -0.185208,0.74084 -0.185208,1.50813 0.05292,2.27542 0.07938,0.26458 0.211667,0.52917 0.343958,0.79375 0.608542,1.05833 1.243542,2.14313 1.852084,3.20146 0.873125,1.48167 1.719791,2.96333 2.592916,4.47146 0.873125,1.53458 1.772709,3.04271 2.645834,4.57729 0,0 0.02646,0.0265 0.02646,0.0265 -1.772708,1.11125 -3.466042,2.32833 -5.08,3.67771 -0.9525,0.79375 -1.878542,1.64041 -2.751667,2.51354 -1.772708,1.74625 -3.360208,3.65125 -4.815416,5.68854 -1.190625,1.66687 -2.248958,3.38667 -3.201458,5.21229 -0.740834,1.40229 -1.402292,2.8575 -1.984375,4.36563 -0.687917,1.7727 -1.27,3.59833 -1.719792,5.45041 -0.264583,1.05834 -0.47625,2.14313 -0.661458,3.25438 -0.02646,0.18521 -0.05292,0.34396 -0.07937,0.52916 -0.105834,0.635 -0.185209,1.27 -0.264584,1.93146 h 87.444781 c 0,-0.66146 -0.0794,-1.29646 -0.15875,-1.93146 z"
       id="path2-5"
       style="display:inline;fill:#000000;stroke-width:0.264583" />
    <path
       class="st0"
       d="m 129.27199,147.10283 c 1.74625,-1.16417 2.01084,-3.86292 0.55563,-6.00605 -1.42875,-2.16958 -4.02167,-2.96333 -5.76792,-1.79916 -1.74625,1.16416 -2.01083,3.86291 -0.55562,6.00604 1.42875,2.16958 4.02166,2.96333 5.76791,1.79917 z"
       id="path3-6"
       style="display:inline;fill:none;stroke-width:0.264583" />
    <path
       class="st0"
       d="m 89.637411,145.33012 c 1.42875,-2.16959 1.190625,-4.84188 -0.555625,-6.00604 -1.74625,-1.16417 -4.339167,-0.37042 -5.767917,1.79916 -1.42875,2.16959 -1.190625,4.84188 0.555625,6.00604 1.74625,1.16417 4.312709,0.34396 5.767917,-1.79916 z"
       id="path1-2"
       style="display:inline;fill:none;stroke-width:0.264583" />
  </g>
</svg>
