<?xml version="1.0" encoding="UTF-8" standalone="no"?>
<svg
   height="64"
   width="64"
   version="1.1"
   id="svg5"
   sodipodi:docname="antix.svg"
   inkscape:version="1.3.2 (091e20ef0f, 2023-11-25)"
   xmlns:inkscape="http://www.inkscape.org/namespaces/inkscape"
   xmlns:sodipodi="http://sodipodi.sourceforge.net/DTD/sodipodi-0.dtd"
   xmlns="http://www.w3.org/2000/svg"
   xmlns:svg="http://www.w3.org/2000/svg">
  <defs
     id="defs5" />
  <sodipodi:namedview
     id="namedview5"
     pagecolor="#ffffff"
     bordercolor="#000000"
     borderopacity="0.25"
     inkscape:showpageshadow="2"
     inkscape:pageopacity="0.0"
     inkscape:pagecheckerboard="0"
     inkscape:deskcolor="#d1d1d1"
     showgrid="false"
     inkscape:zoom="22.375"
     inkscape:cx="32"
     inkscape:cy="34.77095"
     inkscape:window-width="3065"
     inkscape:window-height="1632"
     inkscape:window-x="0"
     inkscape:window-y="0"
     inkscape:window-maximized="1"
     inkscape:current-layer="svg5" />
  <circle
     style="display:inline;fill:none;stroke:#000000;stroke-width:0.994234;stroke-opacity:1"
     cx="31.581877"
     r="27.838602"
     cy="32.249741"
     id="circle2" />
  <path
     style="display:inline;fill:#000000"
     d="m 19.728772,4.8168645 c -3.800001,0 -5.800001,0 -13.8000011,6.0000005 11.0000001,-3.0000005 18.0000001,2 28.0000001,14 -14,15 -31.0000001,36 -31.0000001,36 H 16.928771 l 22,-30 c 5,8 9,16 9,30 h 8.2 c -0.2,-11 -6.2,-24 -13.2,-35 l 6,-7 c 0,0 3,-4 7,0 0,-4 3,-6 3,-6 h -11 c -0.935424,0 -4,3 -9,8 -7,-9 -14,-16.0000005 -19.199999,-16.0000005 z"
     id="path4" />
</svg>
