<?xml version="1.0" encoding="UTF-8" standalone="no"?>
<!-- Created with Inkscape (http://www.inkscape.org/) -->

<svg
   width="210mm"
   height="297mm"
   viewBox="0 0 210 297"
   version="1.1"
   id="svg1"
   inkscape:version="1.3.2 (091e20ef0f, 2023-11-25)"
   sodipodi:docname="athenaos.svg"
   xmlns:inkscape="http://www.inkscape.org/namespaces/inkscape"
   xmlns:sodipodi="http://sodipodi.sourceforge.net/DTD/sodipodi-0.dtd"
   xmlns="http://www.w3.org/2000/svg"
   xmlns:svg="http://www.w3.org/2000/svg">
  <sodipodi:namedview
     id="namedview1"
     pagecolor="#ffffff"
     bordercolor="#000000"
     borderopacity="0.25"
     inkscape:showpageshadow="2"
     inkscape:pageopacity="0.0"
     inkscape:pagecheckerboard="0"
     inkscape:deskcolor="#d1d1d1"
     inkscape:document-units="mm"
     inkscape:zoom="0.92559624"
     inkscape:cx="397.04137"
     inkscape:cy="431.61368"
     inkscape:window-width="3461"
     inkscape:window-height="1339"
     inkscape:window-x="0"
     inkscape:window-y="0"
     inkscape:window-maximized="1"
     inkscape:current-layer="svg1" />
  <defs
     id="defs1" />
  <path
     style="clip-rule:evenodd;fill:#000000;fill-rule:evenodd;stroke-linejoin:round;stroke-miterlimit:2"
     d="m 121.459,942.94487 c 0,-0.26451 1.5833,-2.95602 3.51845,-5.98115 1.93515,-3.02512 3.92737,-6.52381 4.42715,-7.77486 0.49979,-1.25104 2.45722,-4.64027 4.34986,-7.53163 1.89263,-2.89135 4.51614,-7.3945 5.83002,-10.007 1.31388,-2.61249 2.64447,-4.97515 2.95686,-5.25034 1.31882,-1.16177 7.93796,-12.65181 7.93796,-13.77936 0,-0.67713 0.36058,-1.23114 0.80129,-1.23114 0.44072,0 1.79632,-1.91384 3.01245,-4.25298 1.21613,-2.33913 3.04333,-5.60392 4.06043,-7.25507 1.0171,-1.65116 2.75079,-4.57821 3.85266,-6.50455 1.10186,-1.92635 3.41723,-5.88642 5.14528,-8.80017 1.72804,-2.91374 3.14189,-5.72821 3.14189,-6.25437 0,-0.52617 0.45032,-0.95666 1.0007,-0.95666 0.55039,0 1.0007,-0.90063 1.0007,-2.0014 0,-1.10077 0.34353,-2.0014 0.76341,-2.0014 0.78189,0 0.97495,-0.31024 5.19002,-8.33997 1.34804,-2.56803 2.81156,-4.66913 3.25228,-4.66913 0.44071,0 0.80129,-0.90063 0.80129,-2.0014 0,-1.10077 0.39779,-2.0014 0.88399,-2.0014 0.48619,0 1.14327,-0.78805 1.46016,-1.75123 0.68445,-2.08028 4.3432,-8.56284 7.20311,-12.76246 1.12311,-1.64921 3.32764,-5.4753 4.89897,-8.50241 1.57133,-3.02712 3.39999,-6.17933 4.06369,-7.0049 0.66371,-0.82558 2.28685,-3.52747 3.60698,-6.0042 1.32014,-2.47674 2.62541,-4.72831 2.9006,-5.0035 0.59196,-0.59197 3.97183,-6.69699 7.20212,-13.0091 1.26749,-2.47674 2.66607,-4.95347 3.10795,-5.50385 0.44188,-0.55039 3.00739,-4.82838 5.70113,-9.50665 2.69375,-4.67828 5.25926,-8.95627 5.70113,-9.50665 0.44188,-0.55039 1.848,-3.02712 3.1247,-5.50385 1.2767,-2.47674 3.09149,-5.8541 4.03288,-7.50525 0.94138,-1.65116 3.47283,-6.15431 5.62544,-10.007 2.15261,-3.8527 4.23328,-7.23006 4.62371,-7.50525 0.39043,-0.2752 1.90516,-2.97709 3.36607,-6.00421 1.46092,-3.02711 4.26437,-8.20574 6.22989,-11.50805 1.96553,-3.30231 4.93271,-8.48093 6.59374,-11.50805 1.66103,-3.02711 3.36662,-5.95416 3.7902,-6.50455 0.42358,-0.55038 2.67615,-4.60322 5.0057,-9.0063 2.32954,-4.40308 5.87019,-10.70749 7.8681,-14.0098 1.9979,-3.30231 4.47212,-7.80546 5.49825,-10.007 1.02613,-2.20154 2.64824,-5.12858 3.60469,-6.50455 1.74659,-2.51269 7.38387,-12.76132 12.66006,-23.0161 1.55749,-3.02711 3.05767,-5.729 3.33374,-6.0042 0.27607,-0.27519 1.16047,-1.85129 1.96534,-3.50245 0.80486,-1.65115 2.26556,-4.19444 3.246,-5.65176 0.98044,-1.45731 4.54384,-7.98688 7.91867,-14.51015 3.37483,-6.52327 6.67383,-12.53596 7.33111,-13.36154 0.65728,-0.82557 2.8105,-4.65325 4.78493,-8.50595 1.97443,-3.85269 6.55567,-12.63383 10.18053,-19.51365 3.62486,-6.87981 10.25683,-19.81699 14.73771,-28.7493 l 8.14705,-16.24055 4.61716,3.7783 c 5.83914,4.77827 19.87418,14.19265 21.15851,14.19265 0.53399,0 0.97089,0.41997 0.97089,0.93327 0,0.51329 1.01321,1.24785 2.25158,1.63234 1.23836,0.38449 3.41322,1.51665 4.83301,2.51592 1.41979,0.99927 7.27388,4.22256 13.0091,7.16287 9.28605,4.76073 10.26333,5.51141 8.92661,6.85684 -4.01939,4.04559 -10.007,11.22051 -10.007,11.99134 0,0.47686 -0.73309,0.58569 -1.6291,0.24187 -1.85082,-0.71023 -3.19898,0.77874 -10.13657,11.1953 -2.56595,3.8527 -4.93921,7.23006 -5.27391,7.50525 -1.47808,1.21529 -11.98072,19.1376 -11.98072,20.4446 0,0.79898 -0.45031,1.731 -1.0007,2.07115 -0.55038,0.34016 -1.0007,1.92046 -1.0007,3.51179 0,1.59132 -0.63103,3.25343 -1.4023,3.69356 -1.4225,0.81179 -5.00068,10.58394 -6.18293,16.88585 -0.35599,1.89759 -1.04652,3.69692 -1.53451,3.99852 -0.48799,0.30159 -0.88726,1.37093 -0.88726,2.37631 0,2.54417 -2.25517,6.62793 -4.84056,8.76548 -2.48706,2.05626 -7.11383,16.66241 -7.14684,22.56172 -0.0115,2.06394 -0.406,3.75262 -0.87656,3.75262 -0.47056,0 -1.15803,3.03963 -1.52772,6.75473 -1.87179,18.81022 -4.64758,28.58191 -7.34972,25.87342 -0.42589,-0.42689 -0.76841,-6.47934 -0.76115,-13.44988 0.01,-9.29998 0.50689,-14.40522 1.86782,-19.17827 1.02004,-3.5775 1.93605,-7.18794 2.03557,-8.02319 0.0995,-0.83525 0.52395,-2.07362 0.94317,-2.75192 0.41921,-0.67831 0.33054,-1.23329 -0.19705,-1.23329 -0.52759,0 -1.76523,2.24135 -2.75032,4.98078 -0.98508,2.73942 -2.00375,4.76808 -2.26371,4.50812 -0.65333,-0.65333 1.63171,-7.92816 4.4821,-14.26958 1.30558,-2.90456 2.37377,-5.98725 2.37377,-6.85042 0,-0.86316 0.84012,-2.76469 1.86692,-4.22562 2.42198,-3.44595 5.33656,-9.16078 4.67203,-9.16078 -2.61699,0 -10.75045,13.51888 -13.54632,22.51575 -0.68415,2.20154 -1.63895,4.78475 -2.12177,5.74045 -0.48282,0.95571 -0.87786,3.06813 -0.87786,4.69427 0,1.62614 -0.46226,3.24231 -1.02724,3.59149 -0.56498,0.34917 -0.92872,1.1638 -0.80831,1.81028 0.12041,0.64648 -0.37566,5.84858 -1.10237,11.56024 -0.79746,6.26767 -1.12628,15.39259 -0.82939,23.0161 0.50953,13.08342 3.59784,35.39626 4.98012,35.98094 0.43372,0.18346 0.79966,1.53441 0.8132,3.0021 0.0321,3.48294 2.91735,12.01106 7.10323,20.99557 3.88807,8.34528 5.80098,9.63391 2.87559,1.93714 -1.09825,-2.88952 -1.99705,-6.17682 -1.99732,-7.30511 -2.8e-4,-1.12829 -0.54089,-2.59181 -1.20135,-3.25227 -0.66046,-0.66047 -0.92555,-1.20084 -0.5891,-1.20084 0.33646,0 -0.032,-2.75945 -0.81878,-6.1321 -3.3884,-14.52477 -4.51551,-26.0063 -3.32487,-33.86939 1.20973,-7.9892 3.54325,-13.83928 4.94623,-12.40007 1.15539,1.18523 2.98876,18.53658 2.98876,28.28626 0,4.39229 0.45032,8.26429 1.0007,8.60445 0.55039,0.34015 1.0007,2.69542 1.0007,5.23393 0,2.53851 0.61054,5.3264 1.35674,6.19532 0.74621,0.86891 2.58935,7.20878 4.09588,14.0886 1.50653,6.87981 3.14757,13.29069 3.64676,14.24639 0.49919,0.95571 0.90762,2.61781 0.90762,3.69357 0,1.07576 0.40056,2.20348 0.89014,2.50605 0.48957,0.30258 1.12764,2.01783 1.41792,3.81169 0.70158,4.3355 3.00662,12.14097 3.7706,12.7682 0.33519,0.27519 1.39611,2.75192 2.35761,5.50385 0.96149,2.75192 2.15856,5.78544 2.66015,6.74114 0.50159,0.95571 0.91198,2.41923 0.91198,3.25228 0,0.83304 0.33774,1.51509 0.75053,1.51567 0.41279,5.7e-4 1.60175,3.49051 2.64214,7.75542 1.04039,4.26491 2.07818,8.25579 2.30621,8.86863 0.24337,0.65408 -1.36436,1.39312 -3.89302,1.78953 -8.04933,1.26188 -42.05391,9.58883 -47.33771,11.59194 -1.10077,0.41731 -6.27939,2.02803 -11.50805,3.57938 -5.22866,1.55134 -9.93445,3.18513 -10.45731,3.63064 -0.52287,0.44551 -1.63751,0.81002 -2.47697,0.81002 -1.28023,0 -6.90895,1.92213 -17.58707,6.00576 -7.7704,2.97162 -16.32737,6.33754 -18.0126,7.08533 -1.10077,0.48845 -6.95486,2.86521 -13.0091,5.2817 -6.05423,2.4165 -13.03412,5.33343 -15.51085,6.48207 -25.35174,11.75747 -45.18507,21.12576 -50.035,23.63407 -2.47673,1.28092 -14.63524,7.4961 -27.0189,13.8115 -28.62645,14.59887 -36.75959,18.97468 -40.90638,22.00854 -2.32143,1.69841 -4.12512,2.25384 -4.12512,1.27031 z M 356.98538,774.80784 c -0.3168,-0.82558 -0.75298,-1.50105 -0.96929,-1.50105 -0.21631,0 -0.39329,0.67547 -0.39329,1.50105 0,0.82557 0.43618,1.50105 0.9693,1.50105 0.53311,0 0.71009,-0.67548 0.39328,-1.50105 z m 422.38753,166.74864 c -3.50023,-2.1259 -32.49956,-17.54026 -43.05991,-22.88815 -1.05888,-0.53623 -3.34057,-1.71173 -5.07042,-2.61221 -1.72985,-0.90049 -5.10721,-2.59954 -7.50525,-3.77566 -2.39804,-1.17612 -5.55025,-2.75222 -7.0049,-3.50245 -8.63525,-4.45356 -11.30754,-5.76116 -20.37127,-9.96805 -5.50385,-2.55458 -15.06969,-7.07053 -21.25742,-10.03543 -6.18772,-2.96491 -11.7771,-5.39074 -12.42083,-5.39074 -0.64373,0 -3.01124,-1.06766 -5.26114,-2.37258 -2.24989,-1.30491 -8.36871,-4.03491 -13.59736,-6.06666 -13.09785,-5.08956 -15.96345,-6.24929 -22.16664,-8.97098 -2.00953,-0.8817 -4.28362,-1.60308 -5.05353,-1.60308 -0.76992,0 -1.82765,-0.35947 -2.35052,-0.79881 -0.52287,-0.43934 -3.4274,-1.62803 -6.45451,-2.64153 -3.02712,-1.0135 -5.93165,-2.23014 -6.45452,-2.70365 -0.52287,-0.4735 -1.76734,-0.86091 -2.7655,-0.86091 -0.99816,0 -2.59678,-0.40217 -3.55249,-0.8937 -0.9557,-0.49154 -5.79048,-2.12988 -10.74395,-3.64077 -4.95346,-1.51089 -10.91191,-3.35217 -13.24099,-4.09172 -2.32908,-0.73956 -10.35836,-2.81631 -17.84285,-4.61501 l -13.60817,-3.27035 0.57716,-4.50315 c 0.31743,-2.47674 0.63787,-5.40378 0.71209,-6.50455 0.0742,-1.10077 1.46876,-7.18003 3.09899,-13.50945 1.63023,-6.32943 3.21224,-14.77284 3.51558,-18.76313 0.30334,-3.99029 0.93684,-7.25507 1.40778,-7.25507 0.47095,0 0.85626,-3.80111 0.85626,-8.4469 0,-4.64579 0.45032,-8.7252 1.0007,-9.06535 0.55039,-0.34016 1.0007,-1.7068 1.0007,-3.03698 0,-1.33017 0.89895,-3.89291 1.99766,-5.69496 l 1.99766,-3.27646 0.004,8.83951 c 0.003,6.61616 0.31837,8.73908 1.25462,8.4402 0.68798,-0.21963 1.68173,-1.83325 2.20834,-3.58584 0.52661,-1.75259 1.31466,-3.18652 1.75123,-3.18652 0.43656,0 0.79375,-1.12579 0.79375,-2.50175 0,-1.8035 0.53851,-2.50175 1.9294,-2.50175 1.59683,0 2.05248,-0.98516 2.64349,-5.71545 0.92983,-7.44214 -0.16439,-26.19828 -1.96745,-33.72426 -0.77958,-3.25395 -1.2037,-6.47318 -0.9425,-7.15386 0.2612,-0.68067 -0.006,-1.53488 -0.59401,-1.89822 -0.58791,-0.36335 -1.06893,-1.5408 -1.06893,-2.61655 0,-1.07576 -0.40816,-2.73786 -0.90702,-3.69357 -0.49886,-0.9557 -1.44064,-3.7285 -2.09284,-6.16177 -1.11704,-4.16749 -8.71869,-21.01 -9.97203,-22.09443 -0.31806,-0.27519 -1.12237,-1.73871 -1.78735,-3.25227 -1.45442,-3.31042 -3.26486,-3.66233 -2.57412,-0.50035 0.48129,2.20321 0.44696,2.19783 -1.59809,-0.25018 -3.26619,-3.90977 -5.08535,-8.026 -5.08535,-11.5067 0,-1.92272 -0.79644,-3.91438 -2.0014,-5.00485 -1.10077,-0.99618 -2.0014,-2.55391 -2.0014,-3.46162 0,-0.90772 -1.35094,-3.78061 -3.0021,-6.38421 -1.65115,-2.6036 -3.0021,-5.39977 -3.0021,-6.2137 0,-0.81393 -0.42146,-2.26181 -0.93658,-3.21752 -0.51513,-0.9557 -1.70775,-4.77727 -2.65028,-8.49237 -0.94253,-3.7151 -2.09716,-6.75473 -2.56586,-6.75473 -0.4687,0 -0.85218,0.45032 -0.85218,1.0007 0,0.55039 -0.56289,0.99848 -1.25087,0.99576 -0.78417,-0.003 -1.35389,-1.76758 -1.52697,-4.72921 -0.15185,-2.59834 -0.71474,-5.16291 -1.25087,-5.69904 -0.53613,-0.53613 -0.97479,-1.78535 -0.97479,-2.77605 0,-0.99069 -0.45031,-1.85755 -1.0007,-1.92634 -0.55038,-0.0688 -1.41625,-0.18138 -1.92415,-0.25018 -0.5079,-0.0688 -2.65624,-2.00202 -4.77408,-4.29606 -3.68768,-3.99447 -5.15916,-6.32082 -11.46,-18.11775 -1.55012,-2.90225 -3.96682,-6.50477 -5.37045,-8.0056 -2.65574,-2.83964 -4.07593,-6.47534 -3.12833,-8.00858 0.30266,-0.48973 -0.56668,-2.53419 -1.93187,-4.54326 -1.3652,-2.00906 -2.47107,-3.88555 -2.4575,-4.16997 0.22128,-4.63643 -0.10486,-5.64186 -1.72654,-5.32249 -1.37592,0.27097 -2.119,-0.94645 -3.46729,-5.68065 -1.98285,-6.96224 -2.23128,-10.52868 -0.73341,-10.52868 0.57914,0 -0.35474,-2.56505 -2.07528,-5.70011 -3.1207,-5.68632 -3.12748,-5.73203 -2.80421,-18.88758 0.25171,-10.2431 0.0448,-13.07991 -0.92681,-12.70577 -0.97946,0.37717 -1.25088,-4.7596 -1.25088,-23.67358 0,-20.54822 0.22415,-24.24129 1.50105,-24.73128 1.20807,-0.46358 1.50105,-2.7191 1.50105,-11.55565 v -10.97965 l 4.78988,-5.67501 c 2.63442,-3.12126 6.79984,-8.67478 9.25647,-12.34116 2.45663,-3.66638 5.26398,-7.16596 6.23856,-7.77685 1.52158,-0.95377 1.8574,-0.68349 2.37666,1.91281 0.33259,1.66294 0.99873,3.02353 1.48032,3.02353 0.48159,0 0.87561,0.61546 0.87561,1.36768 0,0.75222 2.25158,5.94679 5.0035,11.54349 2.75193,5.5967 5.0035,10.61018 5.0035,11.14107 0,0.53089 0.45032,0.96526 1.0007,0.96526 0.55039,0 1.0007,1.08826 1.0007,2.41836 0,1.3301 0.33774,2.56846 0.75053,2.75193 0.71749,0.31888 7.48962,13.76558 10.37359,20.59774 0.75507,1.78875 1.71324,3.25227 2.12927,3.25227 0.41603,0 0.75641,0.71104 0.75641,1.58009 0,0.86905 1.80126,4.94008 4.0028,9.04674 2.20154,4.10665 4.0028,7.8502 4.0028,8.31898 0,0.46879 1.97381,4.39085 4.38625,8.71569 2.41243,4.32485 4.7019,8.90034 5.0877,10.16777 0.38581,1.26743 2.28828,5.09511 4.22771,8.50595 3.45151,6.0701 7.68016,14.02464 20.31995,38.22393 3.44973,6.60462 8.77339,16.73671 11.83036,22.51575 3.05697,5.77905 6.89078,13.20924 8.51958,16.51155 1.6288,3.30231 3.29358,6.22936 3.69951,6.50455 0.40594,0.2752 3.77609,6.35445 7.48923,13.50945 3.71314,7.15501 7.07617,13.23426 7.47341,13.50945 0.39723,0.2752 1.5534,2.30161 2.56926,4.50315 1.01586,2.20154 2.09564,4.22796 2.39951,4.50315 0.30386,0.2752 1.70503,2.75193 3.1137,5.50385 4.18794,8.1814 8.41169,15.97641 8.94684,16.51155 0.61365,0.61366 4.09501,6.95245 7.1448,13.0091 1.24713,2.47674 2.62648,4.65326 3.06521,4.83672 0.43873,0.18346 0.79769,1.04159 0.79769,1.90694 0,0.86536 1.1274,3.05148 2.50534,4.85805 1.37793,1.80657 3.8754,6.12707 5.54992,9.60111 1.67453,3.47404 4.29293,8.34285 5.81869,10.81958 1.52575,2.47674 5.1702,9.0063 8.09877,14.51015 2.92857,5.50386 5.84433,10.68248 6.47946,11.50806 0.63513,0.82557 1.80916,2.85199 2.60894,4.50315 0.79979,1.65115 3.59398,6.60462 6.20931,11.0077 2.61533,4.40308 4.756,8.56849 4.75705,9.25647 10e-4,0.68798 0.45223,1.25088 1.00262,1.25088 0.55038,0 1.0007,0.40705 1.0007,0.90456 0,0.49751 1.64385,3.7623 3.653,7.25508 2.00915,3.49278 4.75439,8.37692 6.10053,10.85366 1.34614,2.47673 2.78642,4.95346 3.20063,5.50385 0.4142,0.55038 2.6775,4.59054 5.02955,8.97812 2.35206,4.38758 4.95368,9.01098 5.78138,10.27422 1.3986,2.13453 1.37228,2.25049 -0.37256,1.64144 -1.03262,-0.36044 -4.57937,-1.89745 -7.88168,-3.41557 -11.07683,-5.09218 -14.96759,-6.75602 -23.0161,-9.84261 -7.63565,-2.92825 -29.52066,-10.00356 -38.0266,-12.29381 -2.20154,-0.59277 -5.20555,-1.51573 -6.67558,-2.05102 -1.47002,-0.53529 -3.49644,-0.80526 -4.50315,-0.59992 -1.26305,0.25763 -0.12447,1.21026 3.67348,3.0735 3.02711,1.48508 6.62963,3.35822 8.0056,4.16253 1.37596,0.80432 8.581,4.93433 16.0112,9.17781 7.43019,4.24349 16.78292,9.89758 20.78383,12.56464 4.00091,2.66707 7.67848,4.84922 8.17238,4.84922 0.4939,0 1.04811,0.37864 1.23157,0.84143 0.44693,1.12741 10.57273,8.16487 11.74796,8.16487 0.51017,0 1.07768,0.34108 1.26114,0.75796 0.28137,0.63937 2.39827,2.3798 10.34057,8.5016 0.55038,0.42423 2.80196,2.13585 5.0035,3.80359 2.20154,1.66775 4.70745,3.61298 5.5687,4.32274 0.86125,0.70976 4.12603,3.18174 7.25508,5.4933 3.12904,2.31156 5.68917,4.714 5.68917,5.33876 0,0.62475 0.2939,0.84201 0.65311,0.4828 0.35922,-0.35922 1.72821,1.47957 3.04221,4.08619 1.31401,2.60662 3.26554,6.09025 4.33675,7.74141 1.07121,1.65115 3.19216,5.47883 4.71322,8.50595 1.52106,3.02711 3.10329,5.65395 3.51608,5.83741 0.41279,0.18347 0.75053,0.93399 0.75053,1.66784 0,0.73384 0.33773,1.48437 0.75052,1.66783 0.75916,0.3374 3.24544,4.62194 7.4523,12.84232 1.26749,2.47673 2.59124,4.7283 2.94167,5.0035 0.71726,0.56327 4.45616,7.16729 8.82368,15.58526 1.60787,3.09903 3.5193,6.37649 4.24761,7.28325 0.72831,0.90675 2.0484,2.99958 2.93354,4.65074 4.59038,8.56306 8.44196,15.41068 10.60689,18.85767 1.32894,2.11594 2.25032,4.01311 2.04751,4.21593 -0.20282,0.20281 -1.69885,-0.43909 -3.32452,-1.42646 z M 549.32297,837.58309 c -0.37064,-0.37064 -1.09282,-0.0115 -1.60485,0.79818 -1.49511,2.36411 -1.10218,3.25664 0.65857,1.49589 0.89109,-0.8911 1.31693,-1.92343 0.94628,-2.29407 z m 2.43703,-5.22708 c 0,-0.62465 1.80126,-6.42857 4.0028,-12.89759 2.20154,-6.46903 4.0028,-13.39374 4.0028,-15.38825 0,-1.9945 0.45032,-3.90468 1.0007,-4.24483 0.55039,-0.34016 1.0007,-2.59174 1.0007,-5.0035 0,-2.41177 0.37873,-4.6191 0.84162,-4.90518 0.46288,-0.28608 0.87394,-2.65887 0.91346,-5.27286 l 0.0719,-4.75272 -1.89191,2.46188 c -1.04055,1.35403 -1.90193,3.29087 -1.91416,4.30409 -0.0422,3.48996 -6.94638,36.19609 -8.9863,42.56912 -2.44309,7.63263 -2.44667,7.67069 -0.54261,5.76662 0.82558,-0.82557 1.50105,-2.01212 1.50105,-2.63678 z m 4.0028,-45.03942 c 0,-0.55039 -0.19858,-1.0007 -0.44129,-1.0007 -0.24271,0 -0.7196,0.45031 -1.05976,1.0007 -0.34015,0.55038 -0.14157,1.0007 0.4413,1.0007 0.58286,0 1.05975,-0.45032 1.05975,-1.0007 z m 1.0007,-5.50385 c 0,-1.37597 -0.40267,-2.50175 -0.89483,-2.50175 -0.49217,0 -0.8299,1.12547 -0.75053,2.50104 0.18812,3.26023 1.64536,3.26086 1.64536,7.1e-4 z m -27.32677,75.80302 c -0.2343,-0.41279 -1.90985,-3.45241 -3.72344,-6.75472 -7.3424,-13.3695 -16.9111,-24.24149 -34.99599,-39.76258 -5.77904,-4.95978 -12.93808,-11.10133 -15.90898,-13.6479 -16.58234,-14.2139 -41.13092,-38.47603 -41.13092,-40.65098 0,-0.82797 -0.45031,-1.50539 -1.0007,-1.50539 -0.55038,0 -1.00347,-0.5629 -1.00686,-1.25088 -0.003,-0.68798 -0.64822,-2.48164 -1.43295,-3.98592 -2.7765,-5.32236 -4.02121,-16.78915 -2.69449,-24.82276 1.34926,-8.17006 3.90818,-16.71591 5.25446,-17.54796 0.4843,-0.29931 0.88054,-1.38073 0.88054,-2.40315 0,-1.02242 0.33774,-2.00906 0.75053,-2.19252 0.72054,-0.32024 8.34436,-11.37216 9.14415,-13.25587 0.69101,-1.62752 5.42183,-6.59135 6.28194,-6.59135 0.4594,0 0.83528,4.70174 0.83528,10.4483 0,6.23533 0.4248,10.71083 1.05353,11.0994 0.57943,0.35811 0.87895,1.17274 0.66558,1.81028 -0.63101,1.88549 2.93391,10.94549 6.79996,17.28159 1.97762,3.24114 4.13464,6.79362 4.79338,7.89439 0.65873,1.10077 1.424,2.22655 1.70058,2.50175 0.27658,0.27519 2.50279,3.20224 4.94712,6.50455 2.44434,3.30231 5.37025,6.96278 6.50203,8.13439 1.13177,1.17161 2.9584,3.39513 4.05917,4.94117 1.10077,1.54604 3.5929,4.86544 5.53805,7.37646 11.02023,14.22606 24.56555,37.12141 30.08254,50.84785 0.49773,1.23837 1.35828,3.26478 1.91233,4.50315 0.89965,2.01082 7.57007,21.52017 7.78387,22.76593 0.13348,0.77772 0.83154,3.1797 2.03575,7.0049 2.16151,6.86603 2.76021,14.58186 0.87354,11.25787 z M 504.22675,839.2805 c -6.76844,-4.41652 -13.63669,-7.19364 -31.0217,-12.54335 -6.60462,-2.03237 -12.4362,-4.07807 -12.95906,-4.54599 -0.52287,-0.46793 -1.53828,-0.85077 -2.25648,-0.85077 -0.7182,0 -3.63946,-1.12579 -6.4917,-2.50175 -2.85223,-1.37597 -5.50335,-2.50175 -5.89137,-2.50175 -0.59641,0 -13.78004,-7.25498 -19.07989,-10.49971 -10.73504,-6.57231 -25.71953,-19.93151 -31.43706,-28.02724 -1.55481,-2.20154 -3.30294,-4.46211 -3.88473,-5.02349 -1.07785,-1.04002 -1.54924,-1.80864 -7.06142,-11.51375 -2.81856,-4.96257 -7.78097,-17.81769 -7.61432,-19.72493 0.0114,-0.13033 -0.63014,-2.38191 -1.42563,-5.0035 -0.9917,-3.26829 -1.44973,-9.64645 -1.45716,-20.29151 -0.01,-13.678 0.25099,-16.17808 2.18993,-21.0147 2.72174,-6.78928 2.70379,-12.59557 -0.0647,-20.91567 -1.74271,-5.23738 -2.1361,-8.81801 -2.1361,-19.4426 0,-14.0739 0.62638,-17.25038 5.06266,-25.67381 10.24753,-19.45758 14.05712,-28.0304 14.21495,-31.98832 l 0.16842,-4.22348 3.92371,0.62743 c 4.32572,0.69171 11.31295,5.12315 12.17964,7.72458 1.09553,3.28831 2.81255,3.78628 9.69474,2.81164 15.51641,-2.19739 17.46953,-2.42356 20.80208,-2.40883 1.92635,0.009 5.30371,0.34979 7.50525,0.75838 10.95367,2.03293 11.25297,2.02616 12.48857,-0.28258 0.70678,-1.32064 0.90825,-3.74706 0.50788,-6.11683 -0.61495,-3.63985 -0.49206,-3.92761 1.67592,-3.92415 5.68658,0.009 15.16173,8.90077 21.04995,19.7537 l 4.21115,7.76181 0.0473,13.0091 c 0.0499,13.73843 -1.73237,23.21153 -5.72844,30.44754 -1.04141,1.88575 -2.52563,6.73267 -3.29828,10.77094 -1.59401,8.33114 -3.07754,11.04569 -8.15173,14.91596 -4.3871,3.34621 -6.48689,2.44547 -7.46765,-3.20336 -3.37201,-19.42153 -10.39034,-34.52851 -20.51221,-44.15258 -4.11346,-3.91117 -11.22502,-7.08067 -13.17841,-5.87341 -0.43866,0.27111 -2.00596,0.71205 -3.4829,0.97987 -10.29501,1.86684 -16.64419,17.65942 -11.71456,29.13814 2.01429,4.69031 9.40251,13.50945 11.31753,13.50945 1.14332,0 3.72296,2.61496 3.72296,3.77393 0,0.91409 -2.03222,4.76641 -7.29904,13.83618 -9.82175,16.91367 -10.9143,37.23676 -2.84596,52.93925 6.43116,12.51622 16.33611,23.62226 34.58825,38.78247 5.4632,4.53774 10.41667,8.70722 11.0077,9.26552 0.59103,0.5583 3.10102,2.56243 5.57775,4.45361 2.47674,1.89119 6.14478,4.81176 8.15121,6.49016 2.00643,1.6784 5.3588,4.40258 7.44971,6.05374 6.55694,5.17789 22.34574,20.8462 24.95778,24.76732 3.18698,4.7842 1.66734,4.70295 -6.03455,-0.32266 z m -104.0728,-23.63748 c -2.52438,-2.21319 -5.43236,-8.41291 -5.48866,-11.70165 -0.008,-0.4881 2.2171,1.20058 4.94544,3.75263 2.72835,2.55205 5.88055,4.64009 7.0049,4.64009 1.12435,0 2.04427,0.45031 2.04427,1.0007 0,0.55038 -0.39779,1.0007 -0.88398,1.0007 -0.4862,0 -1.11951,0.90063 -1.40737,2.0014 -0.70254,2.68651 -2.60063,2.47459 -6.2146,-0.69387 z m 117.52558,-16.56821 c -1.91877,-7.1929 -11.34149,-25.98274 -18.50591,-36.90261 -3.74579,-5.70926 -10.0532,-13.75783 -14.01647,-17.88571 -9.43081,-9.82252 -10.6727,-12.38923 -10.60422,-21.91649 0.0915,-12.72932 4.41176,-21.80463 15.41031,-32.37149 3.86688,-3.7151 7.37746,-6.75473 7.8013,-6.75473 0.90365,0 6.93992,8.38305 8.64674,12.0084 1.43657,3.05136 6.10428,13.21344 10.14487,22.08641 10.78006,23.67263 14.98627,45.89698 11.82369,62.47275 -3.01823,15.81919 -5.67495,23.51645 -8.11674,23.51645 -0.85967,0 -1.9105,-1.72985 -2.58357,-4.25298 z m 27.29013,-61.45734 c -0.52156,-1.01032 -1.74557,-4.31367 -2.72001,-7.34078 -0.97444,-3.02712 -3.06093,-8.78036 -4.63663,-12.78498 -1.5757,-4.00462 -2.86492,-7.74263 -2.86492,-8.3067 0,-0.56407 1.51537,0.13025 3.36748,1.54292 3.5377,2.69834 4.00077,4.06235 7.14616,21.04981 1.36176,7.35449 1.28475,8.89418 -0.29208,5.83973 z M 361.627,717.60115 c 0,-9.34367 0.69047,-10.65817 1.48321,-2.82373 0.27032,2.67152 0.94644,5.13847 1.50248,5.48212 1.0944,0.67638 -0.88384,5.99248 -2.23516,6.00654 -0.41279,0.004 -0.75053,-3.89492 -0.75053,-8.66493 z m -19.18892,-43.03761 c 0.42703,-2.09443 0.67867,-2.34607 0.97029,-0.97029 0.21655,1.02164 -0.0429,2.29415 -0.57656,2.8278 -0.62657,0.62658 -0.76604,-0.0314 -0.39373,-1.85751 z m 1.17632,-4.82921 c 0,-0.82557 0.43618,-1.50105 0.9693,-1.50105 0.53311,0 0.71009,0.67548 0.39328,1.50105 -0.3168,0.82558 -0.75298,1.50105 -0.96929,1.50105 -0.21631,0 -0.39329,-0.67547 -0.39329,-1.50105 z m 88.09164,-2.78125 c -4.7711,-2.41421 -9.0181,-11.10671 -9.03076,-18.48362 -0.004,-2.22626 0.46797,-3.25228 1.49547,-3.25228 0.82558,0 1.50105,0.37941 1.50105,0.84312 0,0.46372 1.57611,1.69191 3.50245,2.72932 1.92635,1.0374 3.50245,2.2341 3.50245,2.65933 0,0.42522 0.63795,0.77313 1.41766,0.77313 0.77971,0 1.56776,0.36777 1.75123,0.81726 0.18346,0.44949 3.16207,2.79962 6.61914,5.2225 3.73652,2.61874 6.16787,5.01643 5.99533,5.91233 -0.70105,3.6403 -11.50894,5.43295 -16.75402,2.77891 z m 67.39507,-46.50322 c -1.15432,-3.6118 -2.80282,-6.34402 -5.38669,-8.92789 -2.58284,-2.58284 -2.60796,-2.71915 -0.82893,-4.49817 2.37166,-2.37167 3.05887,-2.31332 5.47443,0.46483 1.45241,1.67041 2.06864,3.9973 2.25265,8.50595 0.24768,6.06867 -0.39263,7.95607 -1.51146,4.45528 z m -66.42441,-31.8326 c 0,-1.13055 8.13837,-10.44761 9.9928,-11.44008 0.96599,-0.51698 3.63488,-1.36204 5.93087,-1.87792 3.53634,-0.79456 3.99638,-0.72329 3.0092,0.46619 -0.64093,0.77227 -1.55536,1.40413 -2.03206,1.40413 -0.99108,0 -4.42952,2.67273 -6.75882,5.25368 -0.86927,0.96317 -2.00079,1.75122 -2.5145,1.75122 -0.51371,0 -2.44005,1.14871 -4.28075,2.55268 -1.84071,1.40397 -3.34674,2.25452 -3.34674,1.8901 z m -8.96171,-48.58358 c -1.35145,-1.12465 -4.21881,-3.47382 -6.37192,-5.22038 -2.15311,-1.74656 -4.42538,-3.62588 -5.0495,-4.17627 -0.62411,-0.55038 -4.50449,-3.92774 -8.62306,-7.50525 -4.11857,-3.5775 -12.81486,-11.69609 -19.3251,-18.0413 l -11.8368,-11.53676 2.85925,-5.47514 c 1.57258,-3.01133 3.48083,-7.05125 4.24056,-8.9776 0.75973,-1.92635 2.31415,-4.85339 3.45428,-6.50455 1.14013,-1.65115 2.03671,-3.22726 1.99239,-3.50245 -0.0943,-0.58542 3.39211,-8.59447 8.05881,-18.51295 8.15714,-17.33701 9.5418,-20.52572 9.5418,-21.97367 0,-0.84853 0.45032,-1.54278 1.0007,-1.54278 0.55039,0 1.0007,-0.45857 1.0007,-1.01904 0,-0.56047 1.19352,-3.69404 2.65226,-6.96349 l 2.65226,-5.94446 2.70928,4.21157 c 1.49011,2.31637 5.85514,7.38309 9.70008,11.25938 6.34392,6.39567 7.05384,7.5231 7.67217,12.18431 0.37476,2.82507 0.29393,5.37595 -0.17961,5.66861 -0.47355,0.29267 -0.64582,3.14056 -0.38283,6.32865 0.34088,4.13226 1.01199,6.17196 2.33743,7.10414 1.72371,1.21228 1.85926,3.05451 1.85926,25.26768 0,15.30623 0.36143,23.96005 1.0007,23.96005 0.55039,0 1.0007,0.6975 1.0007,1.54999 0,1.34542 2.03616,1.51051 15.4282,1.25087 12.25583,-0.2376 15.21424,-0.0419 14.38762,0.95177 -0.57232,0.68798 -1.66091,1.25087 -2.4191,1.25087 -0.75818,0 -1.37852,0.34791 -1.37852,0.77314 0,0.42522 -1.5761,1.62192 -3.50245,2.65933 -1.92634,1.03741 -3.50245,2.19332 -3.50245,2.56869 0,0.37537 -1.01321,1.14517 -2.25157,1.71067 -2.35139,1.07377 -9.40829,6.59626 -13.84302,10.83309 -1.42183,1.35838 -2.82875,2.46978 -3.12649,2.46978 -0.29775,0 -2.26206,1.57611 -4.36514,3.50245 -2.10308,1.92635 -4.07352,3.48747 -4.37876,3.46916 -0.30523,-0.0183 -1.66069,-0.95346 -3.01213,-2.07811 z m 43.98621,-29.911 c 0,-0.55038 0.45032,-1.0007 1.0007,-1.0007 0.55039,0 1.0007,0.45032 1.0007,1.0007 0,0.55039 -0.45031,1.0007 -1.0007,1.0007 -0.55038,0 -1.0007,-0.45031 -1.0007,-1.0007 z m -29.0203,-36.0252 v -27.0189 h 13.50945 13.50945 v 27.0189 27.0189 H 452.19035 438.6809 Z m 4.95918,-0.48645 c 1.2941,-11.61066 2.11064,-13.25955 3.60997,-7.2898 0.72863,2.9011 0.88833,2.47696 1.40516,-3.7318 0.55169,-6.62764 0.62816,-6.80279 1.41996,-3.25227 1.38383,6.20524 2.72367,4.2574 2.4092,-3.50245 l -0.29402,-7.25508 h -5.50385 -5.50385 l -0.27275,18.26278 c -0.15001,10.04452 0.11466,18.26277 0.58816,18.26277 0.47349,0 1.4374,-5.17237 2.14202,-11.49415 z m -9.03367,-29.78472 c -0.0394,-0.68798 -0.17596,-5.19113 -0.3034,-10.007 l -0.2317,-8.75613 h 5.92396 c 5.17022,0 5.85867,-0.22282 5.4108,-1.75122 -0.28224,-0.96318 -2.38688,-7.60532 -4.67697,-14.76033 -2.2901,-7.155 -4.96625,-15.51721 -5.94701,-18.58267 -2.01852,-6.30912 -2.02061,-6.27845 1.49377,-21.94568 1.41978,-6.32943 2.79304,-12.63384 3.05169,-14.0098 0.25865,-1.37596 0.88343,-4.30301 1.3884,-6.50455 2.26541,-9.87664 0.15761,-7.70794 -3.09442,3.18381 -1.12048,3.75276 -2.43414,7.72382 -2.91923,8.82459 -0.48509,1.10077 -1.61364,4.47813 -2.50788,7.50525 -0.89424,3.02712 -2.05219,6.28579 -2.57321,7.2415 -0.52102,0.9557 -0.94731,2.61781 -0.94731,3.69356 0,1.07576 -0.39926,2.20268 -0.88725,2.50428 -2.0819,1.28668 -2.14394,7.42745 -0.12676,12.54508 3.14436,7.97732 6.01751,16.81765 6.01751,18.51516 0,0.84294 0.35729,1.53262 0.79397,1.53262 0.92161,0 3.29523,8.25278 2.57947,8.96853 -0.26409,0.26409 -0.79341,-0.0137 -1.17627,-0.61735 -0.38287,-0.60363 -1.59675,-2.30775 -2.69752,-3.78694 -1.10077,-1.47919 -3.69008,-4.95774 -5.75402,-7.73012 -2.06395,-2.77237 -3.75263,-5.68851 -3.75263,-6.48031 0,-0.79179 -1.68868,-3.19462 -3.75262,-5.33961 -8.74342,-9.08676 -8.60535,-8.80067 -6.73275,-13.95065 0.91734,-2.52285 2.23332,-5.93794 2.92442,-7.5891 0.69109,-1.65115 1.84987,-4.5782 2.57506,-6.50455 0.72519,-1.92635 1.63127,-3.95276 2.01352,-4.50315 0.38225,-0.55038 0.97084,-2.15941 1.30798,-3.5756 0.33713,-1.4162 1.8092,-4.33766 3.27126,-6.49213 1.66614,-2.45519 2.78882,-5.63924 3.008,-8.53105 0.19233,-2.53761 1.03115,-5.92057 1.86405,-7.51768 0.83289,-1.59711 1.51713,-3.39694 1.52052,-3.99962 0.003,-0.60268 0.90679,-1.91084 2.00756,-2.90702 1.10077,-0.99618 2.0014,-2.8121 2.0014,-4.03537 0,-1.22326 0.67548,-2.78471 1.50105,-3.46988 0.82558,-0.68517 1.50105,-2.54157 1.50105,-4.12533 0,-1.58376 0.40302,-2.87957 0.89559,-2.87957 0.49258,0 1.10731,-1.68868 1.36607,-3.75262 0.25875,-2.06395 1.05954,-5.32873 1.77952,-7.25508 0.71998,-1.92635 3.10107,-8.34334 5.29132,-14.25997 2.19025,-5.91664 4.28642,-10.75753 4.65815,-10.75753 0.88886,0 7.01481,16.16015 7.05588,18.61327 0.0175,1.04559 0.69298,2.7752 1.50105,3.84357 0.80807,1.06837 1.46922,3.29092 1.46922,4.939 0,1.64809 0.87074,3.92617 1.93498,5.06241 2.4298,2.59421 10.07342,22.05037 10.07342,25.64101 0,1.47045 0.91036,3.83087 2.02302,5.24538 1.11266,1.41452 1.92385,2.93877 1.80264,3.38723 -0.12121,0.44846 1.15968,3.51727 2.84641,6.81958 1.68673,3.30231 4.07369,8.93125 5.30435,12.50875 1.23066,3.5775 3.31741,8.84082 4.63722,11.69626 3.43324,7.42787 3.18316,10.60936 -1.10276,14.0291 -1.92633,1.53703 -3.50243,3.33626 -3.50245,3.99831 -1e-5,0.66205 -1.80129,2.65125 -4.00283,4.42046 -2.20154,1.7692 -4.0028,3.99147 -4.0028,4.93836 0,1.7097 -5.69474,10.63061 -9.1617,14.35196 -1.04018,1.1165 -1.4643,2.40273 -0.99722,3.02428 0.447,0.59484 0.69131,3.3331 0.54291,6.08502 -0.1484,2.75193 -0.29708,7.1425 -0.3304,9.75683 l -0.0606,4.75332 H 451.69 c -12.90415,0 -17.02921,-0.30204 -17.08359,-1.25087 z m 18.86562,-38.96783 c 0.5429,-6.04849 0.45888,-39.12028 -0.13933,-54.8478 -0.79077,-20.79015 -0.77672,-20.63831 -1.64305,-17.7591 -0.90682,3.01375 -2.48332,39.18247 -2.30071,52.7836 0.12577,9.36683 1.17351,23.72727 1.8905,25.91125 0.82715,2.51955 1.61681,0.32698 2.19259,-6.08795 z m 25.20107,-6.3237 8.21794,-11.55315 -9.32408,-23.55096 c -11.35433,-28.67902 -12.85181,-29.20588 -4.24086,-1.49206 0.75579,2.43247 1.14567,4.65117 0.8664,4.93044 -0.71261,0.71261 -3.35238,-2.90133 -4.09085,-5.60049 -0.33881,-1.23837 -1.01751,-2.25158 -1.50823,-2.25158 -1.20153,0 -1.29161,-0.49261 2.19118,11.98338 3.54664,12.70475 3.41511,15.9386 -0.32598,8.0142 -3.43778,-7.28192 -3.53445,-3.87755 -0.26917,9.47948 3.00037,12.27344 2.69077,13.6108 -1.40007,6.04779 l -2.16513,-4.0028 0.48148,6.0042 c 0.71803,8.95407 1.75232,14.53176 2.59779,14.00924 0.4134,-0.2555 4.44971,-5.66346 8.96958,-12.01769 z m -4.30056,25.86127 c -1.54351,-1.5435 -0.58257,-6.16436 1.58444,-7.6191 2.13117,-1.43068 15.70163,-14.83848 20.47859,-20.23313 1.2187,-1.37629 2.67108,-2.50234 3.22751,-2.50234 1.69662,0 -0.73473,5.05421 -3.46417,7.20118 -1.36373,1.07271 -2.47951,2.32936 -2.47951,2.79254 0,0.46319 -1.5761,2.46512 -3.50245,4.44873 -1.92634,1.98361 -3.50245,4.499 -3.50245,5.58976 0,1.09075 -0.45031,1.98319 -1.0007,1.98319 -0.55038,0 -1.0007,0.67547 -1.0007,1.50105 0,0.82558 -0.59122,1.50105 -1.31382,1.50105 -0.72261,0 -2.60812,1.35095 -4.19003,3.0021 -2.98104,3.11154 -3.7088,3.46288 -4.83671,2.33497 z m -51.38003,-5.59171 c -1.00312,-1.24082 -3.08607,-2.81813 -4.62878,-3.50514 -1.60745,-0.71584 -3.2513,-2.5296 -3.85052,-4.24851 -0.57507,-1.64967 -1.45186,-2.99941 -1.9484,-2.99941 -0.49654,0 -0.90281,-0.51007 -0.90281,-1.1335 0,-0.62342 -0.93355,-1.94316 -2.07456,-2.93275 -1.33269,-1.15584 -1.95893,-2.71709 -1.75122,-4.36587 0.29977,-2.37954 1.07097,-1.83908 10.58051,7.41487 6.33302,6.16281 10.25717,10.75523 10.25717,12.00392 0,2.7755 -3.36043,2.63733 -5.68139,-0.23361 z"
     id="path1"
     transform="matrix(0.26458333,0,0,0.26458333,-11.377083,-24.870833)"
     inkscape:label="logo" />
</svg>
