<?xml version="1.0" encoding="UTF-8" standalone="no"?>
<!-- Created with Inkscape (http://www.inkscape.org/) -->

<svg
   width="210mm"
   height="297mm"
   viewBox="0 0 210 297"
   version="1.1"
   id="svg1"
   inkscape:version="1.3.2 (091e20ef0f, 2023-11-25)"
   sodipodi:docname="batocera.svg"
   xmlns:inkscape="http://www.inkscape.org/namespaces/inkscape"
   xmlns:sodipodi="http://sodipodi.sourceforge.net/DTD/sodipodi-0.dtd"
   xmlns="http://www.w3.org/2000/svg"
   xmlns:svg="http://www.w3.org/2000/svg">
  <sodipodi:namedview
     id="namedview1"
     pagecolor="#ffffff"
     bordercolor="#000000"
     borderopacity="0.25"
     inkscape:showpageshadow="2"
     inkscape:pageopacity="0.0"
     inkscape:pagecheckerboard="0"
     inkscape:deskcolor="#d1d1d1"
     inkscape:document-units="mm"
     inkscape:zoom="0.92559624"
     inkscape:cx="397.04137"
     inkscape:cy="691.4462"
     inkscape:window-width="2801"
     inkscape:window-height="1058"
     inkscape:window-x="0"
     inkscape:window-y="0"
     inkscape:window-maximized="1"
     inkscape:current-layer="svg1" />
  <defs
     id="defs1">
    <clipPath
       id="clip0_202_10">
      <rect
         width="512"
         height="512"
         fill="#ffffff"
         id="rect2"
         x="0"
         y="0" />
    </clipPath>
  </defs>
  <path
     d="M 475.97,88 256,469 36.0296,88 Z"
     fill="url(#paint0_linear_202_10)"
     stroke="#F8922E"
     stroke-width="2"
     id="path1"
     style="fill:none;stroke:#000000;stroke-opacity:1"
     transform="matrix(0.26458333,0,0,0.26458333,36.28236,74.929164)" />
  <path
     fill-rule="evenodd"
     clip-rule="evenodd"
     d="m 309.455,70.4153 c 26.393,13.0232 32.128,48.4577 11.168,69.0077 -2.976,2.918 -8.146,6.577 -11.487,8.131 -3.341,1.555 -6.289,3.513 -6.551,4.351 -0.262,0.839 -1.858,9.072 -3.547,18.296 l -3.072,16.77 3.469,3.05 c 8.77,7.71 8.828,18.424 0.14,25.596 -18.205,15.027 -50.197,-3.796 -37.137,-21.85 1.664,-2.3 4.356,-4.871 5.981,-5.712 l 2.954,-1.53 0.444,-19.597 c 0.429,-18.952 0.374,-19.644 -1.666,-21.06 -5.195,-3.605 -14.139,-13.81 -16.342,-18.649 -10.489,-23.038 0.818,-50.5579 24.179,-58.8447 4.004,-1.4209 7.612,-1.8081 14.948,-1.6059 8.611,0.2379 10.42,0.6373 16.519,3.6469 z m -82.17,104.8917 13.04,2.409 -2.999,2.595 c -1.65,1.427 -3.913,3.967 -5.031,5.644 -2.847,4.275 -21.616,61.228 -21.603,65.558 0.011,4.115 2.888,9.347 6.411,11.658 1.345,0.882 17.467,4.798 35.827,8.7 18.359,3.902 39.775,8.51 47.591,10.241 18.926,4.191 23.537,4.033 29.284,-0.997 3.758,-3.289 4.796,-7.555 7.265,-29.846 1.379,-12.444 2.954,-26.055 3.501,-30.248 1.322,-10.133 1.309,-19.989 -0.027,-22.489 -1.055,-1.974 -0.999,-1.984 2.091,-0.384 8.937,4.627 15.994,14.746 16.937,24.283 0.699,7.074 -6.472,89.503 -8.252,94.858 -4.198,12.623 -17.486,22.651 -30.019,22.651 -3.27,0 -27.868,-4.93 -127.347,-25.527 -13.544,-2.804 -26.697,-6.116 -29.635,-7.463 -6.873,-3.152 -13.999,-10.374 -17.396,-17.631 -2.308,-4.929 -2.71,-7.147 -2.71,-14.937 0,-8.204 0.331,-9.828 3.215,-15.754 l 3.217,-6.607 0.082,4.361 c 0.364,19.151 27.987,27.536 44.055,13.372 2.997,-2.641 5.059,-5.481 5.725,-7.882 1.478,-5.326 1.299,-14.931 -0.349,-18.777 -1.891,-4.414 -7.279,-9.204 -12.716,-11.308 -5.747,-2.223 -17.825,-2.295 -22.983,-0.137 -2.096,0.877 -3.975,1.43 -4.176,1.228 -0.404,-0.404 20.185,-42.484 22.603,-46.197 5.569,-8.551 17.309,-14.725 26.793,-14.089 2.512,0.168 10.435,1.39 17.606,2.715 z m 26.3,45.475 c 4.525,4.677 13.553,8.95 22.16,10.489 13.683,2.45 28.592,-2.062 36.483,-11.039 l 4.167,-4.741 -0.669,9.118 c -0.946,12.888 -3.833,18.715 -11.847,23.901 -7.514,4.863 -14.372,6.452 -25.31,5.862 -11.342,-0.611 -19.405,-4.18 -26.16,-11.582 -6,-6.574 -6.972,-10.108 -6.385,-23.214 l 0.453,-10.086 1.924,3.963 c 1.059,2.179 3.391,5.477 5.184,7.329 z m -72.8,16.958 c 2.85,1.192 3.52,2.024 3.52,4.37 0,1.594 -0.51,3.408 -1.133,4.032 -0.833,0.835 -0.699,1.754 0.507,3.479 0.903,1.289 1.641,3.007 1.641,3.817 0,2.663 -3.25,5.19 -6.678,5.19 -4.929,0 -13.771,-2.255 -14.305,-3.649 -0.437,-1.139 5.782,-14.646 8.029,-17.441 1.345,-1.672 4.097,-1.606 8.419,0.202 z m -8.154,3.612 c -0.919,1.779 -1.446,3.46 -1.172,3.734 0.274,0.275 2.318,0.744 4.542,1.043 3.448,0.463 4.222,0.209 5.258,-1.729 1.449,-2.711 0.05,-4.564 -4.24,-5.616 -2.33,-0.573 -2.955,-0.208 -4.388,2.568 z m -3.338,7.409 c -0.539,0.676 -1.283,2.219 -1.653,3.432 -0.61,1.994 -0.128,2.327 5.052,3.488 6.307,1.413 9.075,0.578 9.075,-2.741 0,-3.161 -10.484,-6.674 -12.474,-4.179 z m 178.041,51.031 c -0.454,1.118 -1.743,4.423 -2.865,7.343 -2.614,6.801 -9.575,13.845 -15.767,15.958 -5.835,1.991 -15.972,4.399 -24.629,2.42 -3.628,-0.83 -8.196,-1.744 -10.15,-2.034 -1.954,-0.29 -7.891,-1.403 -13.195,-2.474 -11.665,-2.356 -41.132,-9.721 -62.675,-12.964 -1.257,-0.189 -2.284,-0.003 -2.284,0.415 0,1.225 30.706,9.201 66.989,17.399 23.226,5.249 21.558,4.952 31.465,5.592 7.332,0.474 9.541,0.216 14.717,-1.72 11.461,-4.285 20.431,-17.048 19.555,-27.82 -0.268,-3.288 -0.508,-3.727 -1.161,-2.115 z"
     fill="black"
     id="path10"
     style="fill:none"
     transform="matrix(0.26458333,0,0,0.26458333,36.28236,74.929164)" />
  <path
     fill-rule="evenodd"
     clip-rule="evenodd"
     d="m 224.887,168.113 13.04,2.409 -3,2.595 c -1.649,1.427 -3.912,3.967 -5.03,5.644 -2.847,4.275 -21.616,61.228 -21.603,65.558 0.011,4.115 2.888,9.347 6.411,11.658 1.345,0.882 17.467,4.797 35.827,8.699 18.359,3.902 39.775,8.511 47.591,10.242 18.926,4.19 23.537,4.033 29.284,-0.998 3.757,-3.289 4.796,-7.555 7.265,-29.845 1.379,-12.444 2.954,-26.056 3.501,-30.248 1.322,-10.133 1.309,-19.989 -0.027,-22.489 -1.055,-1.974 -0.999,-1.984 2.09,-0.385 8.937,4.628 15.995,14.746 16.938,24.283 0.699,7.074 -6.472,89.504 -8.252,94.858 -4.198,12.624 -17.487,22.652 -30.02,22.652 -3.269,0 -27.867,-4.931 -127.346,-25.527 -13.544,-2.804 -26.697,-6.117 -29.635,-7.464 -6.873,-3.151 -13.999,-10.373 -17.397,-17.63 -2.308,-4.93 -2.71,-7.148 -2.71,-14.937 0,-8.205 0.332,-9.829 3.216,-15.754 l 3.216,-6.607 0.083,4.36 c 0.364,19.151 27.987,27.537 44.055,13.373 2.996,-2.642 5.059,-5.481 5.725,-7.882 1.478,-5.326 1.299,-14.931 -0.349,-18.777 -1.891,-4.414 -7.279,-9.205 -12.716,-11.309 -5.747,-2.223 -17.825,-2.295 -22.984,-0.136 -2.096,0.876 -3.974,1.429 -4.175,1.228 -0.404,-0.405 20.185,-42.485 22.603,-46.198 5.569,-8.551 17.309,-14.724 26.793,-14.088 2.512,0.168 10.435,1.389 17.606,2.715 z m -16.88,94.322 c -2.159,-2.9 -3.507,-11.731 -2.255,-14.77 0.603,-1.465 1.032,-1.026 2.189,2.244 3.601,10.175 3.274,10.056 58.209,21.317 33.142,6.793 49.54,9.733 52.46,9.407 4.43,-0.496 9.916,-4.034 10.993,-7.093 1.044,-2.955 2.816,-2.078 2.054,1.017 -2.012,8.172 -8.217,13.467 -15.78,13.467 -2.631,0 -22.674,-3.677 -44.54,-8.173 l -48.573,-9.943 c -7.761,-1.474 -11.824,-3.532 -14.757,-7.473 z m 134.064,37.505 c 1.122,-2.92 2.411,-6.224 2.865,-7.342 0.652,-1.612 0.893,-1.173 1.161,2.115 0.876,10.772 -8.095,23.535 -19.555,27.82 -5.176,1.935 -7.385,2.193 -14.717,1.72 -9.907,-0.641 -8.239,-0.344 -31.465,-5.592 -36.283,-8.199 -66.989,-16.175 -66.989,-17.399 0,-0.418 1.027,-0.604 2.284,-0.415 21.543,3.242 51.01,8.21 62.675,10.566 5.304,1.071 11.241,2.184 13.195,2.473 1.954,0.29 6.521,1.205 10.15,2.034 8.657,1.979 18.794,1.97 24.629,-0.021 6.192,-2.113 13.153,-9.158 15.767,-15.959 z"
     fill="white"
     id="path11"
     style="fill:#000000"
     transform="matrix(0.26458333,0,0,0.26458333,36.28236,74.929164)" />
  <path
     d="m 251.187,213.588 c 4.525,4.676 13.553,8.949 22.16,10.489 13.683,2.45 28.592,-2.062 36.482,-11.039 l 4.168,-4.742 -0.669,9.118 c -0.946,12.888 -3.833,18.716 -11.847,23.901 -7.514,4.864 -14.372,6.452 -25.311,5.863 -11.341,-0.611 -19.404,-4.181 -26.159,-11.582 -6,-6.574 -6.972,-10.108 -6.385,-23.215 l 0.453,-10.086 1.924,3.963 c 1.059,2.18 3.391,5.478 5.184,7.33 z"
     fill="white"
     id="path12"
     style="fill:#000000"
     transform="matrix(0.26458333,0,0,0.26458333,36.28236,74.929164)" />
  <path
     d="m 307.056,63.2209 c 26.394,13.0232 32.129,48.4581 11.168,69.0081 -2.976,2.918 -8.145,6.577 -11.486,8.131 -3.342,1.555 -6.289,3.513 -6.551,4.351 -0.262,0.839 -1.858,9.071 -3.547,18.295 l -3.072,16.771 3.469,3.049 c 8.77,7.711 8.828,18.425 0.14,25.596 -18.205,15.028 -50.197,-3.795 -37.137,-21.849 1.664,-2.3 4.356,-4.871 5.981,-5.712 l 2.954,-1.53 0.444,-19.597 c 0.429,-18.952 0.374,-19.645 -1.666,-21.06 -5.196,-3.606 -14.139,-13.81 -16.342,-18.649 -10.489,-23.0381 0.818,-50.5583 24.179,-58.845 4.004,-1.421 7.612,-1.8082 14.948,-1.606 8.611,0.2379 10.419,0.6373 16.518,3.6469 z"
     fill="white"
     id="path13"
     style="fill:#000000"
     transform="matrix(0.26458333,0,0,0.26458333,36.28236,74.929164)" />
  <path
     d="m 200.413,255.993 c -2.475,11.661 -16.034,18.662 -30.285,15.638 -21.074,-4.472 -21.752,-15.638 -21.752,-30.801 2.474,-11.661 16.033,-18.662 30.285,-15.638 21.752,4.615 23.38,14.389 21.752,30.801 z"
     fill="#831308"
     id="path14"
     style="fill:#000000"
     transform="matrix(0.26458333,0,0,0.26458333,36.28236,74.929164)" />
  <path
     d="m 200.413,248.799 c -2.475,11.66 -16.034,18.661 -30.285,15.637 -14.252,-3.024 -23.799,-14.928 -21.325,-26.588 2.474,-11.661 16.033,-18.662 30.285,-15.638 14.251,3.024 23.799,14.928 21.325,26.589 z"
     fill="#BF1617"
     id="path15"
     style="fill:#000000"
     transform="matrix(0.26458333,0,0,0.26458333,36.28236,74.929164)" />
  <path
     fill-rule="evenodd"
     clip-rule="evenodd"
     d="m 179.586,232.944 c 2.85,1.192 3.52,2.024 3.52,4.37 0,1.594 -0.509,3.408 -1.132,4.032 -0.834,0.835 -0.7,1.753 0.507,3.478 0.902,1.29 1.64,3.008 1.64,3.818 0,2.663 -3.25,5.19 -6.677,5.19 -4.929,0 -13.772,-2.256 -14.306,-3.649 -0.436,-1.14 5.783,-14.647 8.03,-17.442 1.345,-1.672 4.096,-1.606 8.418,0.203 z m -9.325,7.346 c -0.274,-0.274 0.252,-1.955 1.172,-3.734 1.433,-2.776 2.057,-3.141 4.388,-2.569 4.29,1.052 5.689,2.905 4.239,5.617 -1.035,1.937 -1.809,2.191 -5.257,1.729 -2.224,-0.299 -4.268,-0.768 -4.542,-1.043 z m -3.82,7.107 c 0.371,-1.213 1.115,-2.757 1.654,-3.433 1.99,-2.494 12.474,1.019 12.474,4.18 0,3.318 -2.768,4.154 -9.075,2.741 -5.181,-1.162 -5.663,-1.494 -5.053,-3.488 z"
     fill="#ffffff"
     id="path16"
     transform="matrix(0.26458333,0,0,0.26458333,36.28236,74.929164)" />
</svg>
