<svg version="1.1" viewBox="0 0 280.06 187.2" xmlns="http://www.w3.org/2000/svg"><g transform="translate(-59.97 -106.4)" fill-rule="evenodd"><path d="m272.96 106.41c-17.075-0.01963-40.601 0.00933-73.078 0.01758-105.7 0.02799-114.22 0.08054-115.88 0.70117-2.225 0.82984-5.6075 4.1563-6.4023 6.2969-0.505 1.358-0.60031 12.627-0.69531 82.266l-0.11133 80.691-16.588 0.2168-0.23047 6.0156 13.984 10.984h252.08l13.992-10.912-0.23242-6.0879-16.59-0.2168-0.10352-80.891c-0.118-90.687 0.19471-82.066-3.1133-85.654-2.6415-2.8657 4.1928-3.3689-47.031-3.4277zm-186.1 8.3906h226.09l0.92578 0.86914 0.92578 0.86915v159.86h-64.023c6.0833-0.03333 9.7514-0.07764 19.26-0.09961l44.576-0.10352-44.633-0.0996c-24.549-0.054-44.754 0.02292-44.9 0.16992-0.147 0.146-0.26277 0.46022-0.25977 0.69922 4e-3 0.258 0.13327 0.23254 0.32227-0.06446 0.0073-0.01154 0.2339-0.0182 0.25781-0.02929l-0.23633 0.625c-0.65882 1.7328-2.0187 3.2496-3.6992 4.2617l1.2559-1.1348c0.715-0.646 1.3008-1.2298 1.3008-1.2988 0-0.309-0.33078-0.03817-1.4258 1.1738l-1.1484 1.2695c-0.26545 0.15906-0.51776 0.33988-0.79883 0.4707l-2.0488 0.95313-18.512 0.0039c-19.958 4e-3 -19.822 0.01671-22.668-2.1543-0.673-0.513-1.6394-1.7691-2.1484-2.7891l-0.92773-1.8535h-2.9902c1.577-0.02971 3.6232-0.05532 3.5957-0.09961-0.102-0.165-20.291-0.25708-44.863-0.20508-24.572 0.053-37.476 0.14222-28.676 0.19922 10.724 0.06979 17.796 0.07099 26.807 0.10547h-43.016v-159.49l1.6582-2.1074zm113.15 0.19532c-61.71 0-86.955 0.04456-56.1 0.10156s81.346 0.057 112.2 0 5.6084-0.10156-56.102-0.10156zm7 18.74 2.7891 0.15039c0.35233 0.01918 0.62272 0.07601 0.94726 0.11328h-3.416l-0.64258 1.5c-0.353 0.825-1.121 2.7608-1.707 4.3008-1.434 3.763-2.6372 6.8966-5.9922 15.6-0.509 1.32-1.5789 4.1092-2.3789 6.1992s-1.9079 4.9704-2.4609 6.4004c-1.497 3.871-2.8851 7.4854-3.9961 10.4-0.54499 1.43-1.3406 3.4436-1.7676 4.4746-1.114 2.689-1.0884 2.7246 1.8105 2.7246 2.897 0 2.8747 0.01872 4.2207-3.7383 0.406-1.134 1.3032-3.5017 1.9922-5.2617 0.689-1.76 1.589-4.0992 2-5.1992s1.311-3.4392 2-5.1992c0.689-1.76 1.589-4.1012 2-5.2012s1.311-3.4392 2-5.1992c0.689-1.76 1.589-4.1012 2-5.2012s1.311-3.4392 2-5.1992c0.689-1.76 1.59-4.0992 2-5.1992 0.409-1.1 1.1163-2.9466 1.5703-4.1016l0.66406-1.6855c0.06758 0.03607 0.26145 0.06753 0.28711 0.10351 0.241 0.338 0.29469 0.30386 0.17969-0.11914-0.03743-0.13912-0.15889-0.24107-0.33204-0.32812l0.02735-0.07032h-0.22656c-0.45221-0.14682-1.2185-0.21789-2.5996-0.23242l-2.9688-0.03125zm-23.566 11.064c-0.091 0-1.4876 0.69207-3.1016 1.5391-1.614 0.846-7.5228 3.8934-13.133 6.7734-5.61 2.88-11.685 6.0063-13.5 6.9473l-2.9277 1.5195c0.03871-0.08061 0.0693-0.2607 0.10938-0.30078 0.264-0.264 0.37504-0.48047 0.24804-0.48047s-0.44217 0.25536-0.70117 0.56836c-0.279 0.336-0.41026 1.4352-0.32226 2.6992l0.14648 2.1328 0.07422-2.2207c0.00766-0.22815 0.05134-0.41711 0.07226-0.63867v2.5469l3.7012 1.9102c2.035 1.05 6.2188 3.2136 9.2988 4.8086 12.015 6.221 19.812 10.195 20.002 10.195 0.109 0 0.19922-1.2332 0.19922-2.7402v-2.7402l-13.064-6.5606c-7.186-3.608-13.051-6.739-13.033-6.959s5.8975-3.3482 13.064-6.9512l13.033-6.5508v-2.75c0-1.512-0.07502-2.748-0.16602-2.748zm33.15 0c-0.102 0-0.18555 1.2342-0.18555 2.7422v2.7422l13.42 6.6641c7.381 3.665 13.336 6.795 13.232 6.957-0.103 0.162-6.1419 3.2617-13.42 6.8887l-13.232 6.5957v2.7051c0 1.488 0.10257 2.7051 0.22657 2.7051 0.198 0 9.5341-4.7498 27.373-13.924l5.4004-2.7774v-4.5605l-7.7988-3.9961c-4.29-2.198-11.631-5.9641-16.314-8.3691-4.683-2.406-8.5992-4.373-8.7012-4.373zm106.88 2.1016c-0.03726-2.1509-0.06445 16.178-0.06445 49.096 0 43.89 0.04651 61.845 0.10351 39.9s0.057-57.856 0-79.801c-0.01425-5.4862-0.02664-8.4784-0.03906-9.1953zm-246.8 0.80468c-0.037265-2.1928-0.0625 16.056-0.0625 48.891 0 43.78 0.046516 61.751 0.10352 39.934 0.057-21.818 0.057-57.64 0-79.602-0.01425-5.4907-0.028594-8.4917-0.041016-9.2227zm150.94 8.4707c0 0.11 0.53922 0.47931 1.1992 0.82031s1.1992 0.53187 1.1992 0.42187-0.53922-0.48126-1.1992-0.82226-1.1992-0.52992-1.1992-0.41992zm4 2c0 0.11 0.53922 0.47931 1.1992 0.82031s1.1992 0.53187 1.1992 0.42187-0.53922-0.48126-1.1992-0.82226-1.1992-0.52992-1.1992-0.41992zm4 2c0 0.11 0.53922 0.47931 1.1992 0.82031s1.1992 0.53187 1.1992 0.42187-0.53922-0.48126-1.1992-0.82226-1.1992-0.52992-1.1992-0.41992zm14.221 2.0781c-0.05883-0.02629-0.09915 0.55297-0.09765 1.543 2e-3 1.32 0.07701 1.8108 0.16601 1.0918s0.0871-1.7974-0.0039-2.3984c-0.02275-0.15025-0.04485-0.22756-0.06446-0.23633zm-91.822 7.9219c0 0.11 0.54117 0.47931 1.2012 0.82031s1.1992 0.53187 1.1992 0.42187-0.53922-0.48126-1.1992-0.82226-1.2012-0.52992-1.2012-0.41992zm73.031 30.715c-0.07375 1e-4 -0.1578 0.75477-0.23243 1.9043v-1.5957h-10v2.5996 2.5996h10v-0.11718c0.03154 0.20493 0.05328 0.51562 0.10157 0.51562 0.165-1e-3 0.30078-1.35 0.30078-3 0-1.9375-0.07417-2.9064-0.16992-2.9062zm-46.834 0.10547-0.19726 2.8828c-0.00243 0.03592 3e-4 0.05243-0.00196 0.08789v-2.7676h-28.799v2.4492c-0.15741-2.1835-0.28691-2.6321-0.3379-0.17578-0.03299 1.582 0.07524 2.9595 0.24024 3.0625 0.04547 0.02811 0.06587-0.15983 0.09766-0.26172v0.125h28.799v-0.22851c0.03055 0.19895 0.07047 0.32635 0.12891 0.26758 0.176-0.177 0.26431-1.4748 0.19531-2.8828l-0.125-2.5586zm13.002 0.20312v2.5996 2.5996h10.4v-5.1992h-10.4zm-0.16797 0.56055c-0.05564-0.04645-0.0945 0.71711-0.09375 2.0371 2e-3 1.76 0.07225 2.4293 0.15625 1.4883 0.085-0.94 0.08404-2.3792-0.00196-3.1992-0.0215-0.20475-0.042-0.31068-0.06054-0.32617zm-22.131 8.2363c-0.165 0-0.24855 0.94461-0.18555 2.0996 0.206 3.782 0.36478 4.155 0.42578 1 0.033-1.705-0.07523-3.0996-0.24023-3.0996zm28 0c-0.165 0-0.24855 0.94461-0.18555 2.0996 0.206 3.782 0.36478 4.155 0.42578 1 0.033-1.705-0.07523-3.0996-0.24023-3.0996zm-47.703 0.07812c-0.05578 0.05029-0.13322 0.2111-0.23047 0.46485-0.115 0.298-0.15203 1.6926-0.08203 3.0996l0.12696 2.5586 0.19335-3.1016c0.14625-2.3272 0.15954-3.1723-0.00781-3.0215zm28 0c-0.05578 0.05029-0.13322 0.2111-0.23047 0.46485-0.115 0.298-0.15203 1.6926-0.08203 3.0996l0.12696 2.5586 0.19335-3.1016c0.14625-2.3272 0.15954-3.1723-0.00781-3.0215zm-18.191 0.09571c-5.28 0-7.3857 0.056-4.6777 0.125s7.0276 0.069 9.5996 0c2.572-0.07 0.35812-0.126-4.9219-0.125zm28 0c-5.28 0-7.3857 0.056-4.6777 0.125s7.0276 0.069 9.5996 0c2.572-0.07 0.35812-0.126-4.9219-0.125zm23.4 0c-5.39 0-7.5954 0.056-4.9004 0.125 2.695 0.069 7.1058 0.069 9.8008 0 2.695-0.069 0.4896-0.125-4.9004-0.125zm28 0c-5.39 0-7.5954 0.056-4.9004 0.125 2.695 0.069 7.1058 0.069 9.8008 0 2.695-0.069 0.4896-0.125-4.9004-0.125zm-37.607 0.22851v2.8008 2.7988h19.199v-5.5996h-19.199zm28 0v2.8008 2.7988h19.199v-5.5996h-19.199zm-69.711 0.09375c-7.813-0.088-9.5467-0.00873-9.7207 0.44727-0.118 0.306-0.15879 1.523-0.09179 2.707l0.12304 2.1523 19.438 0.21289-0.11914-2.707-0.11718-2.707-9.5117-0.10547zm28.084 0c-5.185-0.059-9.5492 0.01502-9.6992 0.16602-0.151 0.15-0.27343 1.4174-0.27343 2.8144v2.5391l19.4-0.21289v-5.2012l-9.4277-0.10547zm33.059 0.4668c-0.05564-0.04645-0.09255 0.71711-0.0918 2.0371 2e-3 1.76 0.0703 2.4312 0.1543 1.4902 0.085-0.94 0.08404-2.3812-0.00196-3.2012-0.0215-0.20475-0.042-0.31069-0.06054-0.32617zm28 0.39258c-0.05625-0.08086-0.09571 0.6082-0.09571 1.8457 0 1.65 0.07025 2.325 0.15625 1.5 0.087-0.825 0.087-2.175 0-3-0.0215-0.20625-0.04179-0.31875-0.06054-0.3457zm-93.432 9.4473v2.5996 2.5996h18v-5.1992h-18zm9.0078 5.3691c-5.06 0-7.0765 0.05696-4.4785 0.12696 2.597 0.07 6.7382 0.07 9.2012 0 2.462-0.07 0.33734-0.12796-4.7226-0.12696zm5.2246 2.7227c-0.07375 1e-4 -0.1578 0.75477-0.23243 1.9043v-1.5957h-19.6v2.4492c-0.15741-2.1835-0.28691-2.6321-0.3379-0.17578-0.03299 1.582 0.07524 2.9595 0.24024 3.0625 0.04547 0.02811 0.06587-0.15983 0.09766-0.26172v0.125h19.6v-0.11718c0.03154 0.20493 0.05328 0.51562 0.10157 0.51562 0.165-1e-3 0.30078-1.35 0.30078-3 0-1.9375-0.07417-2.9064-0.16992-2.9062zm28 0c-0.07375 1e-4 -0.1578 0.75477-0.23243 1.9043v-1.5957h-14.801v2.5996 1.8398l-0.10156-1.752-0.14648-2.4902 0.02929 2.5996 0.02735 2.5996 7.3984 0.01562 7.4004 0.01368-13.408-0.22657h13.602v-0.11718c0.03154 0.20493 0.05328 0.51562 0.10157 0.51562 0.165-1e-3 0.30078-1.35 0.30078-3 0-1.9375-0.07417-2.9064-0.16992-2.9062zm-38.025 5.6797c-5.28 0-7.3857 0.056-4.6777 0.125s7.0276 0.069 9.5996 0c2.572-0.07 0.35812-0.126-4.9219-0.125zm37.895 3.4258c-0.165 0-0.24855 0.94461-0.18555 2.0996 0.206 3.782 0.36478 4.155 0.42578 1 0.033-1.705-0.07523-3.0996-0.24023-3.0996zm-47.703 0.07812c-0.05578 0.05029-0.13322 0.2111-0.23047 0.46485-0.115 0.298-0.15203 1.6926-0.08203 3.0996l0.12696 2.5586 0.19335-3.1016c0.14625-2.3272 0.15954-3.1723-0.00781-3.0215zm70.496 0.01563c-6.8213-0.06503-9.0397 0.00658-9.6465 0.30859h-0.04883v0.02539c-0.06477 0.03973-0.20627 0.06733-0.22461 0.11524-0.115 0.298-0.1454 1.6926-0.0664 3.0996l0.14453 2.5586 0.14648-5.4844v2.4863 2.7988h19.201v-5.5996h-18.174l8.6797-0.10156 9.7012-0.11523-9.7129-0.0918zm-46.688 0.09375c-12.98 0-18.233 0.05128-11.672 0.11328 6.56 0.062 17.182 0.061 23.602 0 6.419-0.062 1.0503-0.11428-11.93-0.11328zm0.08203 0.3125c-19.668-0.087-23.546-0.01273-23.723 0.44727-0.116 0.30299-0.15684 1.5191-0.08984 2.7031l0.12304 2.1523h47.201v-5.2012l-23.512-0.10156zm55.879 8.793c-5.299-0.051-9.7524 0.02683-9.8984 0.17383-0.368 0.367-0.3378 5.642 0.0332 5.873 0.165 0.102 0.23997-1.1435 0.16797-2.7695l-0.13086-2.9551h0.02539l0.11719 2.6797 0.11718 2.707h19.201v-5.1992l-18.256-0.20117 8.5254-0.10156 9.7324-0.11523-9.6348-0.0918zm-55.967 0.09765c-15.62 0-21.951 0.04838-14.07 0.10938 7.882 0.061 20.662 0.061 28.4 0 7.739-0.061 1.2899-0.11038-14.33-0.10938zm65.992 0.00977-0.19531 3.082c-0.108 1.695-0.05295 2.9368 0.12305 2.7598 0.175-0.177 0.26526-1.563 0.19726-3.082l-0.125-2.7598zm-94.193 0.20117v2.8047 2.8008l56.6-0.20508 0.12696-1.7676c0.07-0.97199 0.02058-2.1862-0.10742-2.6992l-0.23438-0.9336h-56.385zm84.207 5.7715c-5.28 0-7.3857 0.05795-4.6777 0.12695s7.0276 0.069 9.5996 0c2.572-0.07 0.35812-0.12795-4.9219-0.12695zm-56 0.01757c-15.62 0-21.951 0.04838-14.07 0.10938 7.882 0.061 20.66 0.061 28.398 0 7.739-0.061 1.2919-0.11038-14.328-0.10938zm-110.8 22.779c-4.62 1e-3 -6.4551 0.05791-4.0781 0.12891s6.1574 0.071 8.4004 0c2.243-0.071 0.29773-0.12891-4.3223-0.12891zm263.61 0c-4.62 1e-3 -6.4551 0.05791-4.0781 0.12891s6.1574 0.071 8.4004 0 0.29773-0.12891-4.3223-0.12891zm-155.73 3.0391c-0.04805-9.8e-4 -0.06836 0.03994-0.06836 0.11719 0 0.069 0.58383 0.65283 1.2988 1.2988l1.3008 1.1758-1.1758-1.3008c-0.82125-0.909-1.2113-1.2881-1.3555-1.291z"/></g></svg>
