<svg fill="none" version="1.1" viewBox="0 0 512 512" xmlns="http://www.w3.org/2000/svg"><path d="m256 0a256 256 0 0 0-256 256 256 256 0 0 0 256 256 256 256 0 0 0 256-256 256 256 0 0 0-256-256zm44.432 56.861 0.84766 0.001953c-0.0589 0.26284-0.16064 0.45472-0.24024 0.68359 5.385 6.6331 5.1622 4.2381 14.967 4.9902 12.875-5.2001 13.238 20.91 20.732 7.8652 13.743 4.5849 27.711 12.05 40.025 19.232 12.758 5.5593 23.786 15.66 30.631 27.941l-0.27539 0.07617 4.7988 9.957c0.556 1.691 0.94184 3.3965 1.3398 5.1055-1.627 23.089 23.46 27.696 38.604 39.15 13.343 7.886 29.086 19.04 27.447 36.701-3.417-1.507-14.199-20.703-24.889-24.473-6.581-1.756-13.329-5.0046-19.506-8.8086l-37.232-14.762 0.02344-0.125c-1.899-0.608-3.7429-1.3326-5.5859-2.1426l-0.04883 0.25195-53.293-17.551c0.779 0.792 1.5864 1.8157 2.3184 2.8027l54.084 22.002 0.02539-0.125 3.6934 1.7715 15.014 6.6074c3.076 0.907 6.1068 2.0253 8.5508 2.9863 15.237 7.592 34.355 10.523 45.283 24.318-4.752 5.907-23.178-1.5993-32.531-4.3223-1.128-0.46-2.3696-0.91275-3.5156-1.3438-0.186-0.07-0.41556-0.17805-0.60156-0.24805-12.597-4.681-25.95-7.4361-39.244-6.0371-0.03596 6e-3 -0.08796-0.02844-0.12696-0.02344-4.567 0.519-9.1634 1.6104-13.648 3.1934-20.109 6.971-43.232 6.3805-61.238 18.564-17.788 12.77-21.209 34.88-22.682 55.621l0.625 0.12305-1.0117 5.1406c-0.105 1.807-0.17725 3.6381-0.28125 5.4121-0.399 42.483 12.608 83.851 10.805 126.47-1.872 16.072-3.3211 36.942-3.8691 50.145-5.363-2.851-3.4732-29.099-6.4512-20.84-12.957-38.02-28.441-75.496-47.373-111.15-12.107-21.997-24.001-44.869-39.93-64.197-10.88-12.324-3.0562-30.646-1.5762-44.959-0.892-18.118 5.049-34.891 11.336-51.596 9.441-17.001 15.104-35.371 26.508-51.109 14.355-8.48 18.498-28.027 32.207-35.133 1.546 1.4311 2.6345 2.1732 3.3965 2.627l1.2285 0.37109 0.125 0.025391c2.047-1.433-12.468-24.111 2.9961-13.221 2.5394-9.606 15.574 0.097043 18.146-7.2949-0.23692-0.29184-0.34689-0.35673-0.60742-0.68555zm-192.43 29.139h116.87l-2.5664 1.5156-3.6602 5.0547c-0.82597 1.1397-1.6254 2.2833-2.3984 3.4297h-108.25c-2.761 0-5-2.2386-5-5s2.239-5 5-5zm253.89 28.857c-3.757 4e-3 -5.8316 1.2876-6.7246 2.6836-0.894 1.396-1.1872 3.8155 0.38281 7.2285 1.544 3.353 4.6613 7.0069 9.1543 9.8809 4.493 2.875 9.1166 4.1739 12.809 4.1699 3.756-4e-3 5.8287-1.2856 6.7227-2.6816 0.893-1.396 1.1882-3.8175-0.38281-7.2305-1.543-3.353-4.6613-7.0049-9.1543-9.8789-4.492-2.875-9.1156-4.1759-12.807-4.1719zm-299.89 33.143h127.49l-0.35937 0.64844-0.77734 2.0684c-0.869 2.309-1.784 4.7402-2.709 7.2832h-123.64c-2.7614 0-5-2.239-5-5s2.2386-5 5-5zm-20 61h133.01c-2e-3 0.831 0.00544 1.665 0.02344 2.502-0.253 1.656-0.6593 3.761-1.2793 6.916l-0.03125 0.14844c-0.028 0.142-0.05498 0.28759-0.08398 0.43359h-131.64c-2.7614 0-5-2.239-5-5s2.2386-5 5-5zm-5 62h142.16c1.325 2.1 2.8524 4.1789 4.6074 6.2148 1.02 1.244 2.0209 2.5052 3.0059 3.7852h-149.77c-2.7614 0-5-2.239-5-5s2.2386-5 5-5zm15 61h165.85c0.779 1.42 1.5664 2.8528 2.3613 4.2988 1.005 1.894 2.0003 3.7952 2.9863 5.7012h-171.2c-2.7614 0-5-2.239-5-5s2.2386-5 5-5zm40 62h155.24c1.373 3.322 2.7218 6.655 4.0488 10h-159.29c-2.7614 0-5-2.239-5-5s2.2386-5 5-5z" fill="#050000"/></svg>
