<svg width="165.9mm" height="157.58mm" version="1.1" xmlns="http://www.w3.org/2000/svg"><path transform="translate(-61.116 -237.44)" d="m462.21 828.56c3.2788-4.6288 16.026-21.619 28.326-37.756 27.357-35.89 42.954-64.012 56.629-102.11 16.118-44.902 15.335-48.028-18.386-73.394-30.734-23.119-54.677-38.605-59.726-38.629-1.7003-8e-3 -1.9239 11.381-0.49691 25.309 7.6666 74.831-34.461 161.51-92.057 189.41-19.146 9.2749-52.923 10.362-68.494 2.2052-55.626-29.142-70.826-119.51-34.649-206.01 1.9718-4.7145 1.1002-6.9551-2.7056-6.9551-7.7296 0-91.437 50.093-97.575 58.392-7.5411 10.195-6.0758 63.184 2.6958 97.48 4.215 16.481 14.998 44.935 23.963 63.232l16.299 33.267-22.269-23.819c-30.13-32.227-58.273-90.821-69.066-143.8l-7.9558-39.05 10.573-8.7262c5.8154-4.7994 26.455-17.319 45.866-27.82 46.912-25.381 51.696-31.181 22.747-27.578-71.39 8.883-83.743 11.52-87.583 18.695-7.657 14.307-20.341 101.55-20.185 138.83 0.14644 34.955-0.26446 36.98-5.538 27.287-3.1329-5.7584-9.5633-24.537-14.29-41.731-7.6429-27.803-8.3206-37.415-6.1274-86.902 3.3483-75.548 3.5928-76.363 23.845-79.458 9.0647-1.3851 32.577-4.9988 52.25-8.0306 19.673-3.0318 45.158-6.6636 56.634-8.0706 20.79-2.5491 27.127-8.0844 13.91-12.15-22.179-6.8221-113.05-43.336-114.76-46.116-3.3847-5.4766 6.136-30.361 30.426-79.525 16.433-33.26 31.311-56.314 52.098-80.726 16.003-18.794 29.66-32.479 30.349-30.411 0.68933 2.068-4.951 15.145-12.534 29.06-15.786 28.968-50.628 128.74-47.659 136.48 2.099 5.4698 103.81 44.158 107.19 40.774 1.093-1.093-13.747-15.268-32.977-31.501-19.23-16.232-35.494-32.269-36.143-35.636-0.6485-3.3674 8.2359-22.041 19.743-41.496 15.128-25.577 32.513-46.931 62.772-77.104 23.017-22.952 48.109-45.177 55.76-49.389l13.91-7.6585-16.607 18.191c-38.546 42.223-69.875 92.289-80.988 129.43l-5.1011 17.046 17.566 18.054c24.537 25.218 66.395 58.144 70.608 55.54 1.9328-1.1945 4.4967-9.4972 5.6976-18.45 3.2119-23.946 19.398-45.68 42.884-57.581 28.628-14.507 48.129-10.355 69.25 14.746 9.8514 11.708 10.639 15.101 9.241 39.833-0.84018 14.869-0.18357 27.035 1.4592 27.035 7.2498 0 103.37-66.528 111.75-77.345 4.9479-6.3874 0.097-48.966-8.8739-77.889-4.4469-14.338-16.889-40.717-27.65-58.62-18.06-30.049-18.692-31.931-8.2223-24.476 30.893 21.998 68.692 80.36 85.528 132.06 11.125 34.161 11.15 34.465 3.4837 42.967-4.2463 4.7093-25.524 20.311-47.284 34.669-21.76 14.359-37.487 26.799-34.95 27.645 7.62 2.54 104.85-31.335 112.82-39.307 4.2169-4.2169 7.3659-12.943 7.329-20.31-0.15994-31.939-8.0025-102.62-13.93-125.54-3.5822-13.851-5.7058-25.991-4.7191-26.978 2.6339-2.6339 24.677 32.883 36.073 58.123 12.188 26.995 27.316 99.921 25.625 123.54l-1.2534 17.509-45.705 16.734c-25.138 9.2038-56.053 19.751-68.701 23.438-25.074 7.3099-28.033 14.869-6.5058 16.616 29.75 2.4137 117.15 17.5 120.5 20.799 4.5614 4.4911-6.2692 59.506-20.905 106.19-10.126 32.3-45.778 100.43-52.553 100.43-1.5398 0 0.49466-10.584 4.521-23.521 13.589-43.662 25.13-143.79 17.399-150.96-2.0321-1.8851-18.897-5.5092-37.477-8.0535-18.58-2.5443-39.594-5.6357-46.698-6.8698-18.119-3.1474-16.437 4.2051 3.9743 17.377 40.754 26.299 58.622 41.33 58.622 49.316 0 12.804-34.648 76.691-58.652 108.15-11.954 15.665-31.816 38.904-44.138 51.642-26.198 27.084-57.458 52.982-48.236 39.963z"/></svg>
