<svg width="19.626mm" height="20.399mm" version="1.1" viewBox="0 0 19.626 20.399" xmlns="http://www.w3.org/2000/svg"><g transform="translate(-95.25 -138.38)"><path class="st3" d="m109.85 138.38c-0.10584 0-0.21146-2.1e-4 -0.3173 0.0527-0.10583 0.0265-0.1852 0.0793-0.26458 0.15864-0.0794 0.0794-0.1326 0.15875-0.18552 0.26459-0.0529 0.10583-0.0527 0.21198-0.0527 0.31781s-2e-4 0.21146 0.0527 0.31729 0.10615 0.18521 0.18552 0.26458c0.0794 0.0529 0.15875 0.10573 0.26458 0.15865 0.10584 0.0265 0.21146 0.0532 0.3173 0.0532 0.10583 0 0.21146-3.2e-4 0.31729-0.0532 0.10583-0.0265 0.18521-0.0793 0.26458-0.15865 0.0794-0.0794 0.13261-0.15875 0.18552-0.26458 0.0265-0.0794 0.0527-0.21146 0.0527-0.31729s2.1e-4 -0.21198-0.0527-0.31781c-0.0529-0.10584-0.10614-0.18521-0.18552-0.26459-0.0794-0.0529-0.15875-0.10573-0.26458-0.15864-0.10583-0.0265-0.21146-0.0527-0.31729-0.0527zm-1.4816 0.10593c-3.0692 0.42334-5.2388 1.5078-6.4559 3.2541-0.60854 0.87312-1.0056 1.8786-1.1379 3.0164-0.10583 0.9525 2.1e-4 1.7725 0.0796 2.3017v0.13229c0.0529 0.58209 0.15886 1.6408-0.42323 2.2758-0.3175 0.34396-0.79395 0.5023-1.4025 0.5023h-0.07906c-0.87312-0.0529-2.3019-0.42303-2.249-2.0634 0-0.10584 0.02636-0.21157 0.02636-0.29094 0.3175-1.8785 1.7461-3.9423 1.7461-3.9688 0.02646-0.0529 0.02656-0.10583-0.02635-0.13229-0.02646-0.0265-0.05323-0.0269-0.05323-0.0269-0.02646 0-0.05271 4.2e-4 -0.05271 0.0269l-0.10594 0.10542c-0.21167 0.21166-0.63479 0.6351-1.111 1.2966-1.2435 1.6404-2.5139 4.4453-1.5084 8.5199 0 0 4.23e-4 0.0263 0.02687 0.0527 0.21167 0.68792 0.5023 1.3228 0.89917 1.8784 0.74083 1.0583 1.7466 1.7991 2.9636 2.143 0.26458 0.0794 0.52927 0.13271 0.7674 0.15917 0.26458 0.0264 0.52916 0.0527 0.79375 0.0527 1.7727 0 3.1748-0.92615 4.6829-3.1486 0 0 0.39697-0.68771 1.032-1.3756 0.58209-0.60854 1.4817-1.3493 2.5136-1.3493 0.63499 0 1.2699 0.29074 1.8784 0.87282 1.3758 1.5081 1.0581 3.757-0.87333 5.7149-0.0265 0.0265-0.0527 0.0531-0.0527 0.0796-0.0265 0.0264-0.0795 0.0531-0.10593 0.0796-0.0529 0.0265-0.0528 0.0794-0.0264 0.13229 0.0265 0.0265 0.0531 0.0527 0.0796 0.0527s0.0262 1e-4 0.0527-0.0264h0.0264c0.0529-0.0264 0.10583-0.053 0.13229-0.10593 0.15875-0.10584 0.31771-0.21188 0.47646-0.34417 1.4287-1.0583 2.4872-2.3281 3.1486-3.7569 0.52917-1.1377 0.82-2.3812 0.84646-3.7042 0.0265-2.249-0.71417-3.9423-0.71417-3.9688-0.0265-0.0265-0.0531-0.0527-0.0796-0.0527h-0.0263c-0.0529 0.0265-0.0797 0.0794-0.0532 0.13229 0 0 0.29125 1.0054 0.34416 1.9844 0 0.44979-0.0794 0.82021-0.26458 1.0583-0.15875 0.23812-0.42344 0.34365-0.76739 0.34365-0.37042 0-0.87323-0.15855-1.4289-0.44959-0.0529-0.0529-1.7992-1.1114-3.4396-2.5931-0.97896-0.87312-1.7462-1.7462-2.249-2.5399-0.635-0.97895-0.89958-1.9048-0.79375-2.6985 0.23812-1.27 1.27-2.4344 3.0427-3.3869 0.0529-0.0265 0.0532-0.0795 0.0532-0.10594-0.0265-0.0529-0.053-0.0791-0.10594-0.0791zm1.4552 0.0527c0.10584 0 0.18521 0.0263 0.26459 0.0527 0.0794 0.0265 0.15844 0.0794 0.21135 0.1323 0.0529 0.0529 0.10584 0.13249 0.13229 0.21187 0.0265 0.0794 0.0532 0.15875 0.0532 0.26458 0 0.0794-0.0268 0.18521-0.0532 0.26459-0.0264 0.0794-0.0794 0.15895-0.13229 0.21187-0.0529 0.0794-0.13198 0.13219-0.21135 0.15865-0.0794 0.0265-0.15875 0.0527-0.26459 0.0527-0.10583 0-0.18521-0.0263-0.26458-0.0527-0.0794-0.0529-0.15896-0.10573-0.21187-0.15865-0.0529-0.0529-0.10584-0.1325-0.1323-0.21187-0.0265-0.0794-0.0527-0.18521-0.0527-0.26459 0-0.0794 0.0263-0.18521 0.0527-0.26458 0.0265-0.0794 0.0794-0.15896 0.1323-0.21187 0.0529-0.0529 0.13249-0.10584 0.21187-0.1323 0.0794-0.0264 0.15875-0.0527 0.26458-0.0527zm-0.29094 0.21188v0.84646h0.1323v-0.37052h0.13229l0.23771 0.37052h0.13229l-0.23771-0.37052c0.0529 0 0.10573-0.0263 0.15865-0.0527 0.0264-0.0265 0.0527-0.0793 0.0527-0.15865 0-0.0794-0.0262-0.1326-0.0791-0.18552-0.0265-0.0265-0.10604-0.0527-0.21187-0.0527v-0.0264zm0.10542 0.10542h0.26462c0.0265 0 0.0268 0.0269 0.0532 0.0269 0.0265 0 0.0527-1e-4 0.0527 0.0264 0.0265 0.0265 0.0264 0.0526 0.0264 0.0791s-0.0264 0.0531-0.0264 0.0796c-0.0264 0.0265-0.0262 0.0527-0.0527 0.0527-0.0264 0.0265-0.0531 0.0269-0.0796 0.0269h-0.0791v-0.0269h-0.15917z" stroke-width=".26458"/></g></svg>
