<?xml version="1.0" encoding="UTF-8" standalone="no"?>
<!-- Created with Inkscape (http://www.inkscape.org/) -->

<svg
   width="210mm"
   height="297mm"
   viewBox="0 0 210 297"
   version="1.1"
   id="svg1"
   inkscape:version="1.3.2 (091e20ef0f, 2023-11-25)"
   sodipodi:docname="tuxedoos.svg"
   xmlns:inkscape="http://www.inkscape.org/namespaces/inkscape"
   xmlns:sodipodi="http://sodipodi.sourceforge.net/DTD/sodipodi-0.dtd"
   xmlns="http://www.w3.org/2000/svg"
   xmlns:svg="http://www.w3.org/2000/svg">
  <sodipodi:namedview
     id="namedview1"
     pagecolor="#ffffff"
     bordercolor="#000000"
     borderopacity="0.25"
     inkscape:showpageshadow="2"
     inkscape:pageopacity="0.0"
     inkscape:pagecheckerboard="0"
     inkscape:deskcolor="#d1d1d1"
     inkscape:document-units="mm"
     inkscape:zoom="0.92559624"
     inkscape:cx="397.04137"
     inkscape:cy="561.80003"
     inkscape:window-width="1721"
     inkscape:window-height="1058"
     inkscape:window-x="0"
     inkscape:window-y="0"
     inkscape:window-maximized="1"
     inkscape:current-layer="layer1" />
  <defs
     id="defs1" />
  <g
     inkscape:label="Vrstva 1"
     inkscape:groupmode="layer"
     id="layer1">
    <path
       id="Logo"
       d="M 102.3264,48.427218 C 74.064931,48.449707 47.480656,62.094005 30.986002,85.042375 73.49396,84.959561 89.557343,84.851346 143.10927,84.851346 l -30.94275,47.143194 23.12061,37.43828 h -17.64585 l -14.77169,-24.74701 -21.803784,32.00955 99.478304,-0.23706 c 6.37487,-12.40182 9.70968,-26.14401 9.7282,-40.08835 -5.3e-4,-48.24412 -39.69967,-87.942732 -87.94379,-87.942732 -8e-4,0 -0.001,0 -0.002,0 z M 90.366174,95.754825 c -23.471451,0.02302 -36.356395,0.220398 -66.08974,0.217488 -6.479911,12.480397 -9.872663,26.335037 -9.892771,40.397637 0,8e-4 0,0.001 0,0.002 0,48.24412 39.698612,87.94327 87.942737,87.94379 28.36306,-0.0206 55.03174,-13.76124 71.51158,-36.84561 -42.65983,0.22067 -58.8391,0.42175 -112.452411,0.42175 l 36.160603,-51.41302 -20.42107,-33.50418 h 17.593204 l 11.993294,20.59225 17.55034,-27.736005 c -14.0282,-0.0672 -24.780076,-0.08493 -33.895766,-0.07567 z"
       style="clip-rule:evenodd;display:inline;fill:#141414;fill-rule:nonzero;stroke-width:0.264583" />
  </g>
</svg>
