<svg version="1.1" viewBox="0 0 1080 1080" xml:space="preserve" xmlns="http://www.w3.org/2000/svg">
<desc>Created with Fabric.js 5.2.4</desc>



<path d="m537.29 3.5137c-14.819 0.01641-29.446 0.61811-43.793 1.4922-5.4927 0.28943-10.909 0.63984-16.182 1.0508-1.1258 0.096733-2.2242 0.20042-3.3418 0.30273-46.468 3.8873-85.051 12.478-121.9 26.877-6.7818 2.65-12.625 4.8184-12.982 4.8184-0.54806 0-7.2088 3.1313-11.232 4.8926-12.299 4.7278-25.64 11.189-39.518 18.838-1.4294 0.73734-3.733 1.7928-4.9531 2.4434-144.31 76.945-247.7 221.17-272.54 373.97-0.18171 1.0977-0.32323 2.2475-0.49805 3.3574-0.001482 0.00941-0.002424 0.01988-0.003906 0.02929-0.12858 0.83036-0.24718 1.6614-0.37109 2.4922-0.06196 0.33379-0.11261 0.66443-0.17383 0.99805-0.34927 2.0097-0.71889 4.0153-1.0449 6.0273-3.164 18.554-5.2524 36.824-5.9746 54.484-2.4247 41.354-0.12888 82.774 6.8633 123.4 5.9211 42.986 16.967 80.408 35.008 122.14 10.788 24.956 24.128 49.089 39.178 72.338 35.844 57.225 83.272 108.38 141.35 150.08 1.8775 1.3949 3.7599 2.7631 5.6504 4.1328 2.2876 1.5982 4.59 3.1795 6.9102 4.748 75.809 53.263 161.16 86.295 240.71 87.191 1.9696 0.0222 4.7182 0.2131 7.1094 0.2754 3.9633 0.2728 7.9172 0.6057 11.895 0.7773 0.36587 0.0158 0.77729 0.0082 1.1445 0.0235 12.568 0.5505 24.739 0.7516 36.697 0.7695 0.39473-0.0035 0.62271 0.018 1.0293 0.0137 3.1854 7e-4 6.4298-0.0758 9.7891-0.1192 6.7159-0.0824 13.369-0.2175 19.881-0.4726 1.1962-0.0413 2.3084-0.0365 3.5059-0.0821 0.53321-0.0186 1.0842-0.0176 1.6152-0.0371 3.1695-0.1258 5.9973-0.3278 9.1367-0.4824 3.8372-0.1229 4.5477-0.0967 8.9414-0.2422 167.77-5.556 344.85-124.81 427.14-287.64 19.999-39.574 33.542-75.65 42.391-114.18 1.9469-7.7342 3.7726-15.511 5.3652-23.361 2.5282-12.462 4.3708-30.016 5.6309-49.641 3.141-34.419 3.5514-70.112 0.8066-105.19-0.0123-0.25409-0.0167-0.53178-0.0293-0.78516-0.0814-1.9806-0.068-3.6914-0.1582-5.6992-4.7742-106.31-51.513-209.68-122.97-293.01-14.185-17.041-29.18-32.684-44.807-46.602-22.882-21.259-47.48-40.622-73.422-57.705-0.17655-0.11675-0.34873-0.24089-0.52539-0.35742-3.7306-2.4506-7.5242-4.7838-11.309-7.1387-2.8056-1.7514-5.5935-3.5341-8.4277-5.2305-2.7786-1.659-5.5973-3.2333-8.4024-4.8398-3.8234-2.1935-7.6465-4.3825-11.518-6.4746-2.5549-1.3798-5.1383-2.6898-7.7129-4.0254-4.0328-2.0923-8.0725-4.1622-12.152-6.1426-2.805-1.3626-5.6312-2.6633-8.457-3.9727-3.7791-1.7487-7.5653-3.4721-11.381-5.123-3.3068-1.4339-6.6306-2.8082-9.9629-4.168-3.2275-1.3134-6.4602-2.6032-9.7109-3.8457-3.9567-1.5172-7.9276-2.9744-11.916-4.3848-2.5781-0.90832-5.1628-1.7873-7.7539-2.6504-4.6145-1.5432-9.2409-3.027-13.893-4.4238-1.8655-0.55792-3.7379-1.083-5.6094-1.6172-5.3241-1.526-10.661-2.9812-16.027-4.3105-1.0836-0.26748-2.1725-0.50617-3.2578-0.76562-6.0657-1.4549-12.146-2.8149-18.258-4.0117-0.19433-0.038001-0.38961-0.069681-0.58399-0.10742-20.376-3.9613-40.973-6.5817-61.697-7.5098-4.0186-0.17996-7.6186-0.21391-11.529-0.35742-13.738-0.75878-27.685-1.2754-41.758-1.2598z" fill="none"/><path d="m558.66 3.7344c-9.4621-0.31292-18.943-0.056952-28.42 0.066406-0.86331 0.012218-1.7438-0.017368-2.6055-0.0019531-1.5712 0.023902-3.1178-0.018044-4.6934 0.017578-16.243 0.40301-32.414 1.2588-48.33 2.9316-7.562 0.73873-14.974 1.7365-22.32 2.7695-1.1354 0.16469-2.263 0.33844-3.3945 0.50977-0.00586 8.87e-4 -0.01172 0.001065-0.01758 0.001953-11.202 1.6527-22.254 3.6362-33.062 6-5.6119 1.1919-11.108 2.4577-16.504 3.8184-4.2083 1.0808-8.442 2.1731-12.611 3.3691-6.0833 1.7421-11.909 3.641-17.65 5.6074-7.7115 2.5456-15.435 5.2724-23.084 8.2344-0.51003 0.17343-2.6137 0.99609-2.6875 0.99609-0.14624 0-2.5899 1.1744-3.0234 1.3184-3.5501 1.425-7.1075 2.8035-10.654 4.3203-1.1048 0.49006-1.2898 0.45674-2.5312 1.0273-6.867 2.9793-13.784 6.2898-20.67 9.6191-2.9944 1.4345-5.9698 2.8949-8.9316 4.3848-4.0022 2.0187-7.9694 3.7477-11.992 5.8867-2.3197 1.2335-4.5195 2.7089-6.8203 3.9824-2.8219 1.5676-5.5624 3.2569-8.3516 4.875-9.3689 5.4375-18.578 11.143-27.602 17.215-4.9541 3.3023-9.905 6.6042-14.738 10.068-5.1865 3.6857-10.188 7.5137-15.197 11.342-1.9565 1.5113-3.9307 2.9972-5.8652 4.5352-48.385 38.032-88.379 82.565-119.62 131.49-18.403 28.347-33.961 58.393-46.654 89.539-2.3101 5.4572-4.4098 10.946-6.5254 16.445-0.41434 1.1246-0.83964 2.2438-1.2461 3.3711-22.207 58.929-33.393 119.9-30.152 178.18-0.027718 4.2284-0.039831 8.4574 0.03125 12.699 0.043252 2.4912 0.14239 4.9882 0.2207 7.4844 0.21313 6.9954 0.562 14.003 1.0469 21.027 0.12733 1.798 0.23902 3.5925 0.38477 5.3926 0.76178 9.6511 1.7013 19.318 2.9844 29.006 0.2961 2.9767 0.54833 7.1041 0.86914 9.207 1.1845 7.7645 2.5566 15.474 4.0879 23.133 6.2696 33.507 16.981 68.208 32.262 104.05 1.3491 3.1643 2.9636 6.1808 4.373 9.3125 1.8062 3.987 3.6749 7.9388 5.5781 11.875 4.8926 10.178 10.105 20.151 15.617 29.951 0.5828 1.0318 1.1468 2.074 1.7363 3.1016 11.839 20.721 25.011 40.523 39.393 59.359 1.3494 1.7774 2.672 3.5658 4.0469 5.3301 5.0133 6.4012 10.183 12.646 15.467 18.805 2.4681 2.8844 4.9576 5.7521 7.498 8.5957 5.0528 5.6466 10.202 11.179 15.475 16.602 2.7378 2.8153 5.5344 5.5902 8.3477 8.3594 5.6651 5.581 11.402 11.06 17.293 16.381 2.3098 2.0826 4.6891 4.1156 7.0449 6.168 6.6972 5.845 13.47 11.572 20.428 17.074 0.49543 0.39142 0.94415 0.81495 1.4414 1.2051 0.88902 0.6975 1.8396 1.293 2.7324 1.9844 9.1971 7.13 18.584 13.959 28.189 20.469 1.0225 0.69014 2.0535 1.3584 3.0801 2.041 0.35211 0.23515 0.70597 0.46688 1.0586 0.70117 0.97006 0.64478 1.938 1.2913 2.9121 1.9297 75.585 49.523 162.53 79.837 251.84 83.793 6.0072 0.2661 11.554 0.2572 17.365 0.4102 6.6363 0.3292 16.783 0.8807 18.775 0.9375 32.491 0.9266 64.824-1.7965 96.664-7.2813 47.539-7.4398 91.007-21.149 136.86-42.818 18.134-8.5707 36.329-19.212 54.312-30.779 17.356-10.877 34.262-22.455 50.262-35.262 35.29-27.518 66.668-59.095 92.631-93.727 12.62-16.234 23.677-32.597 32.545-48.695 1.9585-3.5553 5.0639-8.8734 6.9023-11.816 0.9519-1.5239 4.4081-8.5714 6.9668-13.566 3.1468-5.7248 6.2672-11.897 9.3926-18.551 3.9887-8.1776 8.3458-17.101 9.1641-18.654 4.28-8.1248 9.5066-22.642 14.744-38.738 6.2703-16.686 11.523-35.123 15.613-54.953 2.7582-11.564 5.142-22.77 6.7754-32.553 1.5442-9.248 2.6172-23.64 3.3457-40.068 0.8314-11.658 1.3834-23.232 1.5762-34.695 0.0194-0.84028 0.0816-1.6733 0.0976-2.5137 0.0174-1.3588-0.0494-2.6909-0.041-4.0469 0.2079-16.58-0.4052-33.046-1.5352-49.342-0.7061-17.411-1.7529-32.834-3.3652-42.389-1.6647-9.8655-3.7044-19.616-5.9102-29.309-4.6295-23.631-10.73-45.67-18.422-64.912-1.5939-3.9871-3.7379-9.5025-4.7637-12.256-11.622-31.195-26.787-61.003-44.498-89.299-0.23557-0.37844-0.45481-0.76466-0.69141-1.1426-4.3717-6.9446-8.9531-13.742-13.652-20.48-1.9505-2.8107-3.919-5.6107-5.9297-8.3906-4.0883-5.6268-8.2468-11.186-12.555-16.654-2.6131-3.3295-5.3125-6.6108-8.0156-9.8926-3.1216-3.8304-6.1763-7.7122-9.4004-11.453-0.23536-0.26945-0.48678-0.52398-0.72266-0.79297-1.2601-1.4562-2.6074-2.8311-3.8828-4.2734-0.89276-1.0005-1.8075-1.9887-2.709-2.9844-0.78712-0.87682-1.5842-1.7437-2.377-2.6152-0.87932-0.97864-1.7665-1.9479-2.6523-2.9199-4.0336-4.3695-8.0376-8.7578-12.213-12.99-86.469-88.972-201.1-147.29-323.35-155.45-0.90491-0.060444-1.7162-0.055418-2.6172-0.11328-2.6571-0.19507-5.282-0.24664-7.9336-0.41211-8.7079-0.66918-17.45-1.2133-26.236-1.5039zm-21.688 126.21c4.1194 0.05079 6.4139 0.23542 6.6777 0.50781 0.11473 0.07982 0.09825 0.20924 0.16797 0.30469-0.17269 0.79175-3.2358 5.0839-7.1895 10.002-4.0632 5.0543-9.3853 12.382-11.828 16.283l-3.5957 5.7422c-0.63526 0.4725-1.124 1.1015-1.9844 1.4258l-13.559 0.87695c-48.798 3.1548-97.052 17.874-141.13 41.18-0.95193 0.49599-1.9294 0.94134-2.877 1.4453-2.6594 1.4346-5.2422 3.0045-7.8691 4.502-8.9621 5.0443-17.709 10.432-26.223 16.176-0.78533 0.52926-1.5899 1.0291-2.3711 1.5645-5.1414 3.525-10.152 7.2147-15.109 10.984-0.82877 0.63302-1.6706 1.2464-2.4941 1.8867-12.792 9.8945-24.913 20.583-36.297 32.01-1.1618 1.1312-2.318 2.2604-3.4629 3.4043-1.8058 1.8608-3.5723 3.7508-5.3379 5.6484-29.477 30.71-52.798 65.635-67.385 102.85-1.1072 2.6296-2.3877 5.1908-3.4219 7.8476-1.9209 4.9351-2.985 7.4603-4.1582 9.1836-0.30458 0.43592-0.55935 1.0006-0.90625 1.3418-0.73904 0.71307-1.5826 1.1773-2.75 1.5293-0.01817 0.00585-0.03251 0.01772-0.05078 0.02344-1.251 0.37096-2.8487 0.65006-5.0234 1.0625-3.9611 0.75119-12.697 3.4819-19.412 6.0684-6.7151 2.5865-13.303 5.174-14.641 5.752-0.53014 0.22902-0.81465 0.21499-1.1602 0.26367-0.72695-0.07559-0.7865-1.2307-0.52343-2.9922 0.33732-1.5913 1.3656-4.7185 2.6758-8.5293 0.45058-1.3658 1.0356-3.0488 1.6582-4.7812 2.4846-6.9614 5.2675-13.751 8.0938-20.514 1.5161-3.6059 2.9908-7.2374 4.5977-10.783 2.494-5.5242 5.1885-10.918 7.9062-16.297 2.0104-3.9743 3.9941-7.967 6.1191-11.857 2.8712-5.2541 5.9238-10.376 9.0059-15.477 2.1461-3.5586 4.2591-7.1428 6.502-10.623 3.6898-5.7098 7.5712-11.264 11.521-16.762 1.8036-2.5192 3.5607-5.0781 5.416-7.5508 4.9486-6.5695 10.105-12.955 15.416-19.193 1.0119-1.1935 1.9833-2.4265 3.0078-3.6074 19.048-21.863 40.332-41.528 63.369-58.822 33.8-24.92 71.332-45.076 110.72-59.225 37.657-13.167 77.602-20.874 118.78-22.459 0.78278-0.02885 1.5483-0.13379 2.332-0.15821 6.5282-0.21404 12.482-0.2914 16.791-0.23828zm90.408 10.156c1.1238-0.08061 2.4643 0.21487 3.7129 0.36914 5.3194 1.5197 13.58 4.4106 22.328 7.5234 5.0895 2.1002 9.0881 3.7404 16.492 6.7227 31.889 12.844 39.882 15.607 42.223 19.213 0.36369 1.1544 0.98868 4.4394 1.7461 8.834 3.5053 23.526 9.5121 68.062 10.23 75.537 0.08577 3.3227-0.26126 5.6637-1.0312 7.5332-1.678 2.0961-4.6843 4.8506-9.6602 8.7363-6.2118 4.851-17.94 14.148-26.062 20.66-8.1226 6.5124-19.409 15.427-25.082 19.809-12.337 9.5279-10.374 9.5136-32.775 0.2168-9.9385-4.1245-27.548-11.303-39.131-15.953-10.527-4.2263-18.643-7.8216-21.301-9.2656-0.92061-0.79399-1.8088-1.6099-2.5098-2.5723-1.2662-3.0226-4.7656-22.973-8.1055-44.609-2.3354-17.268-4.6708-33.31-5.1855-38.303-0.17591-1.7015-0.50117-4.1722-0.57813-5.3438l-0.02148-0.26171c0.12583-1.512 0.57101-2.8555 1.1055-3.9043 0.98447-1.1714 3.2631-3.3487 7.2695-6.502 4.7781-3.7606 21.136-16.64 36.352-28.621 16.456-12.959 22.174-19.258 29.984-19.818zm149.55 70.463c0.11605-0.11764 1.6197 1.0834 2.209 1.4121l5.0488 3.7715c2.9584 2.2097 5.7851 4.5398 8.6641 6.8223 2.4819 2.0944 4.7212 4.01 7.4277 6.377 7.7535 6.9817 15.999 14.451 23.207 21.668 3.9828 3.988 7.8368 8.058 11.625 12.17 0.87466 0.95817 1.7546 1.9122 2.6191 2.877 3.4541 3.8204 6.8431 7.6819 10.131 11.602 4.3881 5.2727 8.6904 10.598 12.787 16.043 1.2686 1.6749 2.4574 3.3918 3.6973 5.082 4.1056 5.6314 8.1046 11.322 11.9 17.119 0.59126 0.89834 1.1977 1.7894 1.7812 2.6914 12.848 19.957 23.714 40.892 32.838 62.465 1.7893 4.218 3.5488 8.4436 5.1914 12.709 1.5131 3.9416 2.9023 7.9222 4.291 11.904 39.296 116.5 26.4 250.79-45.832 360.64-16.936 25.757-16.195 25.549-19.156 5.3613-0.78492-5.3515-3.064-14.509-5.0645-20.352l-2.3926-6.9883c-0.56277-2.6528-0.16785-4.8641 1.2109-7.7539l5.2969-8.8887c4.6436-7.7908 8.8729-15.95 12.943-24.221 25.792-50.516 38.98-104.98 39.842-159.54 0.69077-21.206-0.46277-42.087-3.5801-62.068-13.093-83.92-51.788-158.05-113.28-217.02l-14.684-14.082-0.00977-2.2441 0.29493-14.557 0.13281-3.4219 0.19336-4.9766c0.22232-6.6411 0.45882-14.392 0.66797-14.604zm-272.03 9.5801 0.19726 5.4941v2.6719c0 1.0667 0.162 1.817 0.20118 2.9492l0.04687 1.2891 0.42969 11.988c-0.3974 0.39881-1.693 0.594-2.7988 0.82227l-8.3047 1.2012c-2.5835 0.37318-5.1069 0.89765-7.666 1.334-19.303 2.7763-38.485 8.1115-57.127 15.633-27.847 10.781-53.526 25.657-76.35 44.24-26.015 20.758-47.867 46.209-65.314 76.01-0.36528 0.61449-0.74217 1.218-1.1035 1.8359-1.6 2.779-3.1333 5.6223-4.6563 8.4766-1.1589 2.1361-2.3929 4.2085-3.5058 6.3828-3.4493 6.739-4.8195 9.3532-6.4277 12.441-0.96325 1.6061-2.8464 5.3342-3.1191 5.4727-0.27141 0.02405-1.0274-0.27871-2.0352-0.91602-1.1246-0.71121-6.1108-2.6382-11.08-4.2812-3.4778-1.1499-5.1829-1.7998-7.0039-2.4746-0.62442-0.31907-1.7521-0.78642-2.0918-1.0078-0.628-0.83995-0.23287-3.0258 0.66407-5.8457 4.6043-10.851 17.837-34.316 27.965-49.084 6.2688-8.8739 13.062-17.39 20.193-25.617 21.498-24.185 47.977-46.174 76.096-64.002 4.6702-2.8978 9.3165-5.8344 14.07-8.5078 2.1134-1.2127 4.2326-2.3888 6.3555-3.5508 9.7786-5.2511 19.634-10.04 29.447-14.18 23.991-9.6078 48.392-16.134 72.035-18.443 1.1805-0.06004 2.3843-0.16076 3.5449-0.1875 0.79708-0.01749 1.6363-0.12048 2.4258-0.12304l4.9121-0.02149zm16.102 76.613c1.4267 0.02889 1.7051 0.25782 2.2812 0.43555 1.012 0.72274 2.0058 1.623 3.2559 3.2148 1.1725 1.9934 2.4522 4.1789 5.4473 8.1602l6.291 8.3633c0.17998 0.28988 0.84755 1.2072 0.92578 1.3613l-5.6113 0.45898-9.5996 0.50782c-24.861 1.3149-48.652 6.8728-70.664 15.785-1.035 0.40957-2.0641 0.82723-3.0898 1.252-2.492 1.0541-4.9646 2.1323-7.4062 3.2754-3.1242 1.4378-6.1872 2.9668-9.2168 4.5488-0.83109 0.4389-1.6757 0.85338-2.5 1.3027-13.155 7.1019-25.402 15.532-36.562 25.283-2.2061 1.902-4.2962 3.9193-6.416 5.9102-0.88468 0.84444-1.8001 1.6521-2.6699 2.5137-23.143 22.532-40.853 50.329-50.66 81.832-4.5192 14.516-2.7912 14.308-12.363 1.4922l-5.2949-7.0898c-1.7214-2.7227-1.9999-4.6325-1.4004-7.1562l1.7383-4.8672c2.4772-6.94 5.5536-13.756 8.9434-20.479 1.7398-3.3159 3.4555-6.6107 5.418-10.008 0.67722-1.1695 1.3498-2.3399 2.0527-3.5 1.8457-3.0897 3.7806-5.9336 5.7031-8.8691 29.775-44.023 77.64-79.873 128.96-95.311 3.5266-1.0369 7.068-2.0328 10.658-2.9102 3.202-0.77716 6.4026-1.5847 9.6191-2.1953 10.805-2.0511 25.493-3.4475 32.162-3.3125zm231.25 11.693c2.8808 0.23442 7.6992 3.7681 13.523 9.5293 8.6811 9.4466 16.58 19.38 23.969 29.594 1.9559 2.7685 3.8722 5.1431 5.8242 8.0957 0.72267 1.0931 1.0469 1.5597 1.7773 2.6602 12.525 18.882 22.917 38.822 31.115 59.471 10.972 28.574 17.879 58.809 20.805 89.248 3.8535 57.805-6.8505 118.78-32.859 170.51-1.5974 3.1771-2.7415 5.5384-3.7012 7.1875-1.8155 2.8292-3.132 3.3568-5.2422 2.291-1.3542-0.78415-3.0669-2.1714-5.6035-4.1758-3.8225-3.0205-10.265-7.4109-14.316-9.7578-3.5972-2.0838-6.0893-3.9599-6.5234-4.7441-0.01161-0.61735 0.48892-1.8091 0.77735-2.7207 0.74288-1.4415 1.466-2.8504 2.8906-5.5547 5.8215-11.051 10.677-22.436 14.896-33.988 0.6577-1.763 1.4106-3.4788 2.0274-5.2598 0.63468-1.8537 1.1011-3.7459 1.6953-5.6094 1.5268-4.7787 3.0817-9.5463 4.3223-14.434 9.815-37.726 11.411-76.986 5.4434-115.24-0.31151-2.0244-0.5936-4.0506-0.94922-6.0703-0.6185-3.4766-1.3277-6.9316-2.0742-10.387-0.6239-2.9067-1.3053-5.8022-2.0215-8.6953-0.76094-3.06-1.517-6.1149-2.3789-9.1523-1.0856-3.838-2.3127-7.6469-3.5625-11.453-0.68403-2.0777-1.268-4.1801-2-6.2441-11.892-38.315-31.218-71.961-56.781-95.854l-6.6074-7.6543c-0.75563-1.4576-1.3115-2.8449-1.4629-4.0332 0.0262-0.06139 0.09058-0.1426 0.11914-0.20508l3.1309-3.3477 2.4668-2.625c3.7473-3.9857 7.7948-8.667 8.9941-10.404 0.51205-0.74172 1.2924-1.0532 2.3066-0.97071zm-64.186 47.85c0.70051 0.0567 1.3417 0.27336 1.9922 0.46289 2.3434 1.508 6.081 5.0822 12.418 11.699 0.38457 0.39335 0.76724 0.78766 1.1484 1.1836 3.549 3.7413 6.8993 7.6291 10.156 11.578 0.71486 0.88312 1.4864 1.7217 2.1875 2.6152 1.2461 1.5588 2.3534 3.2051 3.5547 4.793 1.2286 1.6546 2.4308 3.327 3.6133 5.0137 1.9644 2.8632 3.9476 5.7136 5.7812 8.6602 0.66824 1.0519 1.3158 2.1153 1.9668 3.1777 14.873 24.765 25.078 52.196 30.658 80.219 3.4798 20.507 4.6804 41.81 3.7012 62.352-0.01362 0.17165-0.01529 0.344-0.0293 0.51562-1.5607 17.597-5.1186 35.131-10.689 52.246-2.9359 8.6237-7.348 19.404-11.746 28.943-0.28349 0.59007-0.55693 1.1831-0.84571 1.7715-1.8526 3.954-3.6118 7.4681-5.2285 10.51l-1.2031 2.2734c-1.8292 3.282-3.4157 5.8051-4.3613 6.5898-1.471 1.2208-18.858 2.4251-28.748 2.4512-0.97688-0.06461-2.575-0.07059-3.3223-0.16016-1.536-0.09167-3.3762-0.15027-3.4336-0.40429-0.04353-0.01332-0.05056-0.03132-0.0918-0.04493 0.0179-0.28317 3.0606-5.0003 6.8008-10.543 2.3838-3.5327 4.4718-7.1759 6.6133-10.799 0.69316-1.1672 1.4617-2.2982 2.1289-3.4766 3.0106-5.3246 5.7576-10.735 8.2559-16.219 0.02731-0.0606 0.06064-0.11906 0.08789-0.17968 26.391-58.079 24.077-124.13-4.8516-180.12-0.78139-1.5377-1.6244-3.0399-2.4453-4.5586-1.8497-3.3732-3.7599-6.7138-5.8066-10.004-1.5794-2.5602-3.2379-5.0659-4.9355-7.5586-1.7383-2.5458-3.5282-5.0596-5.3887-7.5449-1.7338-2.3065-3.5056-4.5784-5.3457-6.8145-2.8348-3.4844-5.821-6.8752-8.9062-10.217-0.54134-0.57197-1.0623-1.1565-1.6113-1.7227-1.9433-2.0597-3.7574-4.1972-5.7969-6.1973-7.6401-7.4926-13.663-13.788-13.383-13.99s6.9292-1.8472 14.775-3.6582l12.33-2.8477zm-477.96 100.83c1.4684 0.15307 3.1415 0.73413 4.8223 1.3008 0.49594 0.25056 2.4254 1.3309 3.1133 1.6914l33.656 19 42.357 23.914 0.45118 0.28711 0.36523 47.322 0.00195 0.32032-0.00195 0.32812-0.30859 40.941c-0.24914 3.8001-0.56775 6.2164-1.0176 6.7773l-6.3184 3.7754c-4.4058 2.6334-23.749 13.631-42.986 24.438-15.867 8.9138-24.803 13.82-29.236 16.195-0.22665 0.10287-0.63042 0.32965-0.8457 0.42382-3.5378 1.3111-6.3245 1.6817-8.959 1.0703-0.98292-0.54177-1.1996-0.59391-2.4336-1.3145-3.058-1.7856-16.506-9.3788-29.885-16.875-13.379-7.4962-29.791-16.82-36.471-20.719l-9.3555-5.4609c-0.08802-0.07201-0.78775-0.45768-0.85351-0.51758l-1.168-1.0664c-0.27823-0.59053-0.5372-1.6169-0.76953-3.1523l-0.00196-5.4766 0.29883-39.693 0.35547-47.166c0.03103-0.08474 0.05626-0.28791 0.08789-0.35938 0.55995-0.5328 1.6711-1.3483 2.9219-2.2012l23.062-13.064c14.717-8.3359 33.765-19.146 42.33-24.023l8.3652-4.7637c0.47649-0.24254 2.3637-1.3035 2.6953-1.4629 1.9232-0.49602 3.7678-0.67294 5.7266-0.46875zm127.84 147.51c0.30371-0.50461 2.7586 3.4974 5.6602 8.7285l1.6504 3.3613c26.308 53.57 73.152 91.459 127.51 107.42 2.321 0.70719 4.6858 1.2411 7.0293 1.8652 2.3249 0.59491 4.6198 1.2783 6.9688 1.793 25.609 5.8603 52.301 6.654 78.664 1.8457 1.8968-0.31367 3.79-0.49036 5.6875-0.85743 18.015-3.4848 17.957-3.4887 15.18 0.75-1.2427 1.8966-4.3203 8.9285-6.8398 15.625l-3.7441 9.9531c-0.78297 1.283-1.9081 2.1478-3.4336 2.6406l-7.623 1.2266c-3.3086 0.53269-6.6629 0.89752-10.02 1.25-1.9349 0.16509-3.8781 0.40239-5.8066 0.52148-1.3883 0.10281-2.7853 0.15736-4.1797 0.23047-5.0395 0.22527-10.06 0.32362-15.045 0.23828-0.5021-0.01113-1.0014-8.5e-4 -1.5039-0.01562-3.7172-0.08679-7.3891-0.38561-11.07-0.64258-55.008-4.4834-111.16-30.024-149.61-70.246-12.501-13.078-23.544-27.145-31.145-38.916-0.0503-0.07996-0.10017-0.1602-0.15039-0.24024-1.8203-2.9578-3.6944-5.8824-5.3672-8.9316-4.1909-7.8017-5.979-13.693-4.3926-16.16 1.2503-1.9447 4.5155-7.8857 7.2578-13.203l3.2539-6.3105c0.24009-0.42795 0.97435-1.7813 1.0625-1.9277zm-52.764 64.291c0.28698 0.86094 3.6747 6.414 7.5274 12.34 13.08 20.118 27.967 37.965 44.32 53.639 0.2217 0.21295 0.43593 0.43634 0.6582 0.64844 3.9295 3.7419 7.9598 7.3298 12.062 10.809 0.50034 0.42445 0.9873 0.86859 1.4902 1.2891 4.0553 3.3896 8.207 6.6258 12.424 9.7578 0.52083 0.38633 1.0294 0.79148 1.5527 1.1738 4.4882 3.2843 9.0718 6.4069 13.734 9.3984 0.18053 0.11545 0.35632 0.23851 0.53711 0.35352 46.325 29.567 101.02 44.688 161.07 43.639 0.71433-0.00796 1.4194 0.02452 2.1348 0.01172 0.02629-6.3e-4 0.05183 6.3e-4 0.07812 0l13.959-0.33594 13.424 0.0625 1.4512 8.7774c0.8324 5.0392 2.7047 12.771 4.1602 17.182 3.1905 9.6696 4.1507 8.9957-15.25 10.713-5.6469 0.49982-11.285 0.69222-16.922 0.86914-2.2245 0.04973-3.6097 0.21887-5.873 0.24219-5.3196 0.06256-10.62-0.13117-15.916-0.34961-1.5839-0.04726-3.4127-0.04868-4.7734-0.11719-0.48605-0.02832-0.97118-0.06506-1.457-0.0957-5.8106-0.35976-11.591-0.95212-17.355-1.6426-0.44984-0.06052-0.90439-0.10976-1.3535-0.17188-3.5085-0.5062-7.025-1.0095-10.449-1.5859-4.4572-0.74898-8.9053-1.5177-13.287-2.4258-1.7368-0.35092-3.3919-0.78136-5.1074-1.1523-9.5236-2.1229-18.849-4.6385-27.986-7.5078-1.7816-0.5741-3.5844-1.0798-5.3555-1.6856-0.67865-0.23457-1.3614-0.44266-2.0391-0.68164-1.3469-0.45777-2.6583-0.97907-3.9961-1.4531-4.9344-1.8004-9.8274-3.7118-14.668-5.7559-1.9127-0.80166-3.8014-1.6575-5.7012-2.4941-58.458-26.045-109.34-69.726-143.51-126.56-4.353-7.2401-6.524-11.47-7.1465-13.975 0.28052-1.1501 1.3261-2.1034 2.9414-3.1367 1.387-0.7645 3.3848-1.75 5.7285-2.8926 2.3737-1.0237 3.2192-1.2227 6.3496-2.7168 7.491-3.5753 12.218-5.1474 12.543-4.1719zm-136.08 8.3301c1.2499-0.64848 5.1196 0.86662 13.381 3.6289 3.15 1.0533 5.3655 1.3902 8.5957 2.2871 1.486 0.40812 2.3435 0.6416 3.8301 1.0176 2.8706 0.72306 6.862 2.0365 8.4043 2.2363 8.6171 1.1167 11.397 1.699 14.373 5.8965 0.84576 1.3243 1.5274 2.115 2.8008 4.582 0.08548 0.16562 0.18581 0.31697 0.27148 0.48242 0.94597 1.8353 1.8003 3.4683 3.125 6.1465 7.6084 15.382 16.554 29.917 26.258 43.871 0.42395 0.61507 0.82031 1.2492 1.248 1.8613 4.3144 6.1201 8.8732 12.029 13.555 17.852 1.8543 2.3232 3.6637 4.6771 5.5742 6.9512 3.6962 4.3714 7.5547 8.5774 11.449 12.766 3.0972 3.3472 6.1827 6.6922 9.4024 9.918 3.2983 3.2929 6.7104 6.4499 10.129 9.6152 3.9258 3.6427 7.8646 7.2553 11.945 10.723 3.3731 2.8655 6.8378 5.6008 10.309 8.3457 4.1416 3.2712 8.2962 6.5081 12.574 9.6016 2.3838 1.7295 4.7413 3.4823 7.1641 5.1562 1.781 1.2469 3.5121 2.6339 5.3066 3.8379 0.88911 0.59651 3.117 1.8807 4.3047 2.6387 44.445 29.502 94.429 48.83 147.29 56.664 4.7247 0.75205 9.4609 1.3368 14.211 1.9023 2.8308 0.30548 5.6531 0.62782 8.498 0.86719 33.796 3.2153 68.028 1.9472 101.65-4.9434l1.1699-0.24023 6.1855-0.9043 3.4824 2.6152 3.9258 3.1973c10.758 8.7628 18.426 13.846 28.664 19.002 3.0382 1.5301 4.5754 2.4665 5.7188 3.2949 1.7571 1.4034 0.80014 2.3835-2.5781 3.5762-1.2698 0.43147-2.4686 0.84781-4.4883 1.4004-1.4359 0.39244-3.009 0.81934-4.8984 1.3027-15.802 3.9464-41.738 9.289-56.08 11.215-2.6268 0.35271-5.2523 0.58078-7.8789 0.8789-5.3312 0.61405-10.653 1.0893-15.971 1.4863-117.68 8.4617-233.37-36.911-315.89-117.48-38.116-37.713-69.348-83.354-91.178-135.22-1.1682-2.8899-2.3874-5.7515-3.4883-8.6777-2.2185-5.8974-3.5898-8.7089-2.3398-9.3574zm572.56 32.451c1.012 0.15681 2.2711 0.68004 3.3965 1.0215 0.02743 0.0126 0.0854 0.04379 0.11328 0.05664 2.998 1.6571 8.0077 4.3713 15.525 8.3281 9.174 4.8286 20.746 11.097 25.715 13.93 4.9692 2.8328 17.01 9.4074 26.758 14.609l15.5 8.2715 1.5352 0.85157 0.6875 0.48828v49.59 42.748c-1.325 4.8007-3.9956 8.3808-8.7461 11.846l-4.8066 2.6641c-7.4539 4.1323-19.182 10.509-26.062 14.168-6.8805 3.6594-15.95 8.6595-20.154 11.113-1.929 1.1257-5.7555 3.175-8.9512 4.9453-5.6897 3.0322-14.419 7.7695-16.352 8.7285-4.5248 0.98185-9.1224 0.34805-14.555-1.4688-1.5166-0.73087-1.708-0.71133-3.6524-1.6894l-14.229-7.7188c-14.497-7.8658-34.8-18.942-45.121-24.613l-13.045-7.168c-2.8511-2.4718-4.5729-5.2542-5.7598-8.4629l-0.32617-44.842v-0.08594l0.34375-47.578c0.70968-1.7443 1.7031-3.167 2.9551-4.4141l4.4746-2.4375 13.771-7.375c12.05-6.4513 32.462-17.562 45.359-24.689 11.203-6.1913 17.366-9.318 21.113-10.736 1.4688-0.18486 2.9216-0.32648 4.5117-0.08008z"/><path d="m496.06 1070.1c-234.01-13.563-430.12-186.65-482.99-426.29-43.551-197.39 43.543-419.48 212.04-540.71 30.459-21.915 107.01-63.614 116.78-63.614 0.3507 0 6.2895-2.2085 13.197-4.9078 158.52-61.944 364.54-31.394 503.97 74.733 4.2847 3.2612 9.4405 7.1805 11.457 8.7095s5.2373 4.3438 7.1566 6.255c1.9193 1.9112 5.6409 5.0388 8.2702 6.95 2.6293 1.9112 7.6341 6.2898 11.122 9.73 3.4877 3.4402 10.078 9.701 14.645 13.913 8.7886 8.1044 32.525 33.586 39.597 42.509 15.838 19.983 22.878 29.788 40.331 56.168 57.396 86.76 86.343 203.65 79.346 320.4-6.5981 110.09-57.255 237.79-121.08 305.22-1.1485 1.2134-4.5902 5.221-7.6482 8.9058-6.5743 7.9218-42.267 43.477-51.644 51.444-3.5988 3.058-8.1505 7.0984-10.115 8.9786-67.615 64.722-198.38 116.51-308.68 122.25-34.018 1.7688-34.392 1.7657-75.755-0.6317zm95.91-124.2c17.776-2.6699 47.757-9.3487 60.914-13.57l6.7038-2.1508-11.718-6.5689c-13.764-7.7158-18.607-10.999-28.388-19.245-3.9812-3.3564-7.7405-5.7922-8.354-5.4131-11.059 6.8351-94.031 9.3486-128.9 3.905-124.5-19.436-223.22-92.011-281-206.58-3.9408-7.8136-4.5638-8.3805-10.359-9.4266-13.391-2.4171-26.032-5.7392-34.374-9.0336-11.121-4.3923-11.28-4.1275-5.8282 9.6925 48.962 124.11 158.09 220.52 282.85 249.89 6.8805 1.6198 16.263 3.8262 20.85 4.9031 8.8856 2.086 26.296 4.5602 44.48 6.3207 19.269 1.8656 73.034 0.29123 93.13-2.7271zm140.5-45.056c36.568-19.91 63.55-34.582 71.108-38.666l8.6644-4.6821 0.0231-50.221 0.0231-50.221-19.808-10.787c-10.894-5.9329-24.499-13.423-30.232-16.644-5.7338-3.2212-17.652-9.6879-26.485-14.37l-16.06-8.5137-5.4847 2.902c-7.4177 3.9247-35.303 19.095-63.17 34.366l-22.935 12.568v100.71l13.9 7.8733c7.645 4.3303 25.784 14.324 40.31 22.209s28.286 15.48 30.58 16.88c5.8532 3.5715 7.1752 3.3414 19.566-3.4052zm-159.26-52.26c5.4008-0.43043 5.9681-2.1792 3.4785-10.723-1.3088-4.4912-3.1234-12.544-4.0325-17.896l-1.653-9.73-10.364 0.695c-112.57 7.549-211.73-41.275-268.18-132.05-4.0409-6.4982-7.5155-12.013-7.7214-12.255-0.20591-0.24205-7.0166 2.8042-15.135 6.7693l-14.76 7.2094 5.1071 9.2157c60.971 110.02 178.36 169.52 313.26 158.76zm296.32-73.446c123.56-177.62 90.36-417.29-76.704-553.68-8.0272-6.5535-15.22-12.277-15.985-12.718-0.90209-0.52065-1.3834 6.8772-1.3713 21.076l0.0187 21.878 18.879 18.645c122.97 121.44 147.51 307.4 60.027 454.79l-8.8874 14.973 3.6163 10.742c1.989 5.9082 4.6116 17.153 5.828 24.99 2.7045 17.422 1.9494 17.458 14.578-0.695zm-315.09-14.265c21.656-2.0814 20.775-1.6644 24.346-11.525 1.715-4.7366 4.923-12.209 7.1287-16.604 4.6722-9.3113 5.1935-9.1058-12.846-5.0659-88.473 19.813-184.24-26.63-226.03-109.61-8.8946-17.664-8.9923-17.744-12.113-9.9462-1.2525 3.1302-4.4515 9.0903-7.109 13.245l-4.8318 7.5533 2.948 5.8679c33.322 66.326 102.62 115.68 174.99 124.61 25.017 3.0895 34.091 3.3392 53.515 1.4724zm264.22-85.679c59.244-116.52 38.713-257.57-52.017-357.37-12.78-14.056-14.004-14.682-17.698-9.035-1.3752 2.1024-5.5742 7.0753-9.3312 11.051l-6.8308 7.2284 11.752 13.622c76.296 88.43 92.723 208.06 42.768 311.44l-8.2347 17.042 3.7508 2.2732c8.4519 5.1223 22.702 15.012 24.157 16.764 2.6748 3.2229 4.4031 1.2964 11.684-13.024zm-104.45-21.333h17.063l8.5363-15.725c48.687-89.69 30.518-205.94-43.361-277.43l-6.3261-6.1219-16.099 3.9242c-8.8544 2.1583-15.926 4.3412-15.714 4.8509 0.21179 0.50966 4.8152 4.7216 10.23 9.36 77.052 66.005 90.683 192.02 29.616 273.79-5.9228 7.93-6.5268 9.4748-3.2071 8.2008 1.2093-0.46404 9.877-0.84371 19.262-0.84371zm-471.25-24.686c16.887-9.4971 35.552-20.085 41.477-23.528l10.772-6.2604v-96.767l-18.418-10.409c-77.753-43.944-65.257-39.956-86.708-27.669-9.075 5.1978-22.129 12.612-29.01 16.476s-18.296 10.292-25.368 14.284l-12.858 7.258v96.774l9.3825 5.5147c5.1604 3.0331 20.954 11.961 35.098 19.84 14.143 7.8791 29.115 16.351 33.271 18.826 9.008 5.3652 4.7675 6.8008 42.36-14.34zm93.254-169.12c27.238-81.413 107.42-139.79 191.99-139.79 14.986 0 14.688 0.31431 7.7242-8.1471-2.9186-3.5463-6.7674-8.8659-8.5528-11.821l-3.2463-5.3734-11.255 0.95766c-84.609 7.1994-162.45 64.197-194.18 142.19l-5.4598 13.419 3.6127 4.9304c1.987 2.7117 5.8444 8.2237 8.572 12.249 2.7276 4.0252 5.1295 7.1482 5.3376 6.9402s2.6628-7.2064 5.455-15.552zm-180.99-43.813c5.956-2.407 15.026-5.3469 20.155-6.5332 12.956-2.9965 12.767-2.9181 13.707-5.6659 42.833-125.19 177.88-228.2 311.15-237.34 21.443-1.4712 20.7-1.1703 26.818-10.858 3.006-4.7597 8.669-12.402 12.584-16.983l7.1189-8.3285-5.8857-0.86958c-6.785-1.0024-43.727 0.77817-60.096 2.8966-153.93 19.922-283.81 125.65-335 272.71-5.3424 15.348-5.6825 17.099-3.1198 16.057 0.95563-0.38855 6.6106-2.6758 12.567-5.0828zm123.32-12.779c40.575-82.368 117.94-139.65 208.56-154.41l19.369-3.1552 0.012-27.378-8.6875 0.98609c-102.68 11.655-195.32 76.149-243.74 169.69-10.936 21.128-10.931 20.509-0.2018 24.108 4.7781 1.603 9.6258 3.521 10.772 4.262 4.6262 2.9896 6.3624 1.2301 13.914-14.101zm383.83-86.98c5.6208-4.3729 16.484-12.974 24.14-19.112 7.6564-6.1389 17.357-13.78 21.557-16.98 4.2002-3.1998 10.053-7.9065 13.006-10.459l5.3692-4.6413-3.7959-28.461c-2.0878-15.653-5.1349-36.867-6.7715-47.141l-2.9756-18.68-42.395-17.099c-23.317-9.4044-43.093-17.105-43.945-17.113-1.3914-0.0124-67.317 51.184-73.103 56.77-2.6302 2.5394 8.0194 91.338 11.45 95.471 0.8625 1.0393 8.5556 4.6659 17.096 8.0592 32.03 12.726 61.022 24.598 63.256 25.902 4.2379 2.4734 6.8196 1.4902 17.112-6.5172z"/><path d="m540.24 0.41797c-20.534 0.2505-41.113 2.0918-61.643 5.2344-1.5463 0.17375-3.0891 0.41308-4.6348 0.60156-15.538 1.6966-30.871 4.0574-45.941 7.1328-2.8684 0.57222-5.664 1.2291-8.4961 1.8535-7.6435 1.7052-15.195 3.5912-22.67 5.6602-2.9225 0.82378-5.8843 1.5897-8.7559 2.4746-11.213 3.3506-22.285 6.9689-33.016 11.162-6.9079 2.6993-12.851 4.9082-13.209 4.9082-1.1902 0-5.8939 1.9703-11.557 4.5117-21.228 7.9472-43.381 19.265-65.621 33.113-2.0771 1.1603-4.179 2.2919-6.2129 3.5039-5.4939 3.2649-10.825 6.7056-16.152 10.158-3.2597 2.1184-6.5395 4.2096-9.7363 6.3965-5.842 3.9854-11.535 8.1192-17.166 12.326-2.371 1.776-4.7427 3.5472-7.0762 5.3613-6.1141 4.7414-12.087 9.612-17.941 14.607-1.5668 1.3398-3.1179 2.6914-4.666 4.0488-6.3309 5.5399-12.52 11.2-18.535 17.025-0.79478 0.77066-1.5701 1.5566-2.3594 2.332-2.0763 2.0376-4.0096 4.1937-6.0508 6.2598-2.2147 2.237-4.3891 4.5086-6.5606 6.7852-2.2539 2.3682-4.6196 4.6428-6.8203 7.0566-0.2265 0.25971-0.45069 0.52067-0.68945 0.77344-0.03075 0.03387-0.0591 0.06964-0.08985 0.10351-0.8509 0.93769-1.6517 1.9139-2.5 2.8535-0.10132 0.11259-0.20931 0.21935-0.31054 0.33203-2.0883 2.3052-4.1166 4.6564-6.1602 6.998-0.59591 0.68802-1.1748 1.3894-1.7695 2.0781-1.7132 1.981-3.5151 3.893-5.1797 5.9121-0.00116 0.00142-0.00274 0.00249-0.0039 0.00391-18.321 21.385-34.351 44.023-48.465 67.52-21.195 34.732-37.69 71.222-49.795 108.73-0.33451 0.9987-0.61139 2.0026-0.93945 3.002-0.11782 0.37279-0.23264 0.74615-0.34961 1.1191-0.1235 0.3824-0.28765 0.7556-0.4082 1.1387-1e-3 0.00317-9.54e-4 0.0066-0.001954 0.00977-0.13759 0.43622-0.22821 0.8813-0.36133 1.3184-1.4416 4.6776-2.8288 9.3646-4.1367 14.07-0.094896 0.32879-0.18894 0.65737-0.2832 0.98633-1.7542 6.1024-3.4867 12.201-5.0078 18.322-3.9979 15.068-6.7034 28.74-8.7559 42.697-0.78566 4.6322-1.6593 9.263-2.2793 13.898-0.9198 6.6954-1.5397 13.376-2.1953 20.061-0.3027 3.2034-0.75116 6.4078-0.99414 9.6094-0.15765 1.9841-0.18043 3.9571-0.31445 5.9394-0.056138 0.7946-0.094002 1.5866-0.14648 2.3809-0.069511 1.0471-0.083087 2.097-0.14648 3.1445-0.3696 6.5236-0.69493 13.041-0.81445 19.541-0.017627 0.7775-0.01504 1.5544-0.029297 2.332-0.033216 1.6762-0.14065 3.3487-0.1582 5.0254-0.79415 33.732 2.0554 66.951 7.9238 99.4 0.34623 2.1177 0.67594 4.2384 1.0488 6.3418 0.49944 2.5724 1.0174 5.1357 1.5566 7.6973 5.0717 26.051 12.21 50.852 21.479 73.803 1.6825 4.6299 3.292 9.277 5.1094 13.871 4.4465 11.291 9.2001 22.473 14.471 33.473 0.11344 0.23705 0.22601 0.47402 0.33984 0.71093 1.2837 2.6683 2.4996 5.3625 3.832 8.0117 1.2725 2.53 2.7423 4.9283 4.0527 7.4336 0.91615 1.7571 1.8535 3.5044 2.791 5.2539 0.50108 0.93978 1.0612 1.8555 1.5684 2.793 0.97325 1.7749 1.8019 3.6033 2.7988 5.3691 1.1291 1.9999 1.6108 2.7453 2.5645 4.4219 1.8256 3.1894 3.6402 6.3799 5.5273 9.5254 1.7287 2.9148 4.3297 7.1436 6.1523 10.014 39.177 65.121 93.109 122.14 161.34 165.3 2.2902 1.5301 4.5588 3.0889 6.8848 4.5742 3.347 2.1351 6.7207 4.1408 10.094 6.1719 26.042 15.801 53.634 29.368 82.639 40.422 0.94689 0.3626 1.9019 0.7073 2.8516 1.0645 2.7805 1.0405 5.6418 1.9248 8.4434 2.9238 0.61946 0.2233 1.245 0.4256 1.8652 0.6465 4.8812 1.7199 9.7203 3.5199 14.684 5.0859 1.9761 0.6275 3.98 1.1911 5.9688 1.791 1.1105 0.342 2.235 0.6307 3.3476 0.9649 4.2496 1.3173 8.4454 2.3801 12.676 3.5644 3.2265 0.877 6.4425 1.7881 9.6856 2.5997 6.8943 1.7684 13.708 3.3337 20.5 4.7226 0.18884 0.0388 0.37947 0.0688 0.56836 0.1074 6.3604 1.2912 12.763 2.7043 18.998 3.6465 7.7928 1.1777 15.13 2.5102 16.305 2.961 0.29855 0.1145 6.6696 0.4628 8.5859 0.6542 8.1085 0.9741 15.861 1.5692 23.27 1.7774 0.97856 0.0564 0.93647 0.0912 1.9316 0.1465 0.4414 0.0245 0.7972 0.0248 1.2363 0.0488 0.17665 0.0144 0.35246 0.0437 0.5293 0.0547 1.4366 0.0897 3.1807 0.1107 4.7988 0.1582 0.45539 0.0227 0.85758 0.0306 1.3105 0.0527 0.4505 0.0323 0.88851 0.078 1.3398 0.1094 0.57788 0.0529 1.1686 0.1087 1.6973 0.1445 0.71802 0.0474 1.4158 0.1487 2.1348 0.1934 0.50865 0.0316 1.081 0.029 1.5938 0.0586 2.5464 0.1549 5.0922 0.1872 7.6387 0.3008 0.18754 0.0083 0.37496 0.0153 0.5625 0.0234 1.2434 0.0546 2.4818 0.0655 3.7246 0.1152 5.5132 0.2473 12.179 0.6058 15.051 0.6661 1.1253 0.0236 5.2459-0.2643 6.9707-0.295 0.00261 1e-4 0.00521 0 0.00782 0 0.88412 0.0275 1.7682 0.0767 2.6523 0.0664 0.1543-0.0017 0.3086 0.0137 0.46289 0.0118 0.56653-7e-3 1.1312-0.0654 1.6973-0.084 1.5793-0.0309 3.8163-0.2101 5.4277-0.2598 0.02345-6e-4 0.04686-0.0013 0.07031-0.0019 5.4374-0.0804 10.72-0.2858 15.875-0.5118 1.7094-0.0714 3.3361-0.173 5.0059-0.2597 5.9961-0.3235 12.024-0.6851 17.766-1.2149 0.05724-0.0053 0.12445-0.0063 0.18164-0.0117 3.2501-0.2321 5.3435-0.5577 8.2227-0.8301 1.7978-0.2141 3.8951-0.3303 5.6172-0.5683 0.66624-0.0921 0.87609-0.1565 1.5215-0.2461 2.8327-0.3527 6.7611-0.6157 8.9043-1.0156 0.92222-0.1722 3.1082-0.5657 4.7832-0.8692 83.702-11.528 160.94-44.63 227-93.059 29.928-20.52 57.356-45.077 82.125-72.533 0.70505-0.76419 1.3814-1.554 2.082-2.3223 2.4535-2.753 4.9153-5.4947 7.3145-8.3047 5.2421-5.9898 10.351-12.093 15.326-18.312 2.2233-2.6734 4.2727-5.2468 6.3047-7.8262 0.01079-0.01402 0.02045-0.02894 0.03124-0.04297 1.2023-1.5267 2.1928-2.9433 3.3164-4.4297 27.77-35.719 50.643-74.732 67.201-116.22 17.366-40.298 29.189-82.423 34.512-125.18 0.295-1.9315 0.6787-3.6145 0.9571-5.5566 1.8754-13.084 3.0347-27.726 3.6425-43.09 2.1533-34.212 1.1509-68.768-3.4746-103.26-0.0271-0.334-0.1981-2.2462-0.207-2.377-0.0049-0.07196-0.1119-0.55532-0.1231-0.6543-0.015-0.13225-0.1363-0.69293-0.1582-0.85742-1.678-11.841-3.927-23.649-6.4453-35.438-0.9002-4.635-1.7416-9.3938-2.748-13.785-1.0154-4.4305-2.3633-8.8055-3.5137-13.215-6.3728-25.712-15.292-51.114-26.553-75.93-0.6791-1.5208-1.4151-3.0178-2.1094-4.5332-1.5484-3.4979-3.2494-6.9147-4.873-10.375-4.0745-9.1315-8.251-17.481-12.469-25.307-0.0404-0.07525-0.0826-0.14938-0.123-0.22461-2.9334-5.4316-5.8702-10.475-8.8282-15.123-6.9111-11.875-14.277-23.476-22.123-34.791-0.0575-0.08203-0.06522-0.09728-0.12304-0.17969-6.1959-8.9276-12.688-17.656-19.453-26.211-9.7892-12.896-19.975-25.507-31.014-37.475-1.5739-1.7056-3.1412-3.4144-4.7402-5.0996-5.122-5.4006-10.335-10.713-15.713-15.896-0.91804-0.88441-1.8773-1.7315-2.8027-2.6094-11.335-10.758-23.214-21.018-35.652-30.746-0.70769-0.5531-1.3864-1.134-2.0977-1.6836-6.0797-4.7012-12.325-9.2216-18.662-13.66-1.7924-1.2545-3.607-2.4839-5.4199-3.7168-14.97-10.188-30.863-19.347-47.215-27.969-4.067-2.2463-8.176-4.3648-12.293-6.4863-1.3026-0.64106-2.5153-1.3884-3.8262-2.0195-1.8087-0.87021-3.5994-1.7606-5.4238-2.6113-0.20573-0.095988-0.42106-0.17964-0.62696-0.27539-0.33801-0.1735-0.68126-0.32928-1.0195-0.50195-3.3884-1.6373-6.7145-3.4416-10.133-4.9922-21.131-10.197-42.699-18.754-64.494-25.494-50.666-16.838-103.58-25.767-156.88-25.117zm-5.1504 128.36 1.4043 0.02929c8.0823 0.94381 8.5114 3.9426 3.916 9.3262-0.00809 0.00947-0.00948 0.01199-0.01758 0.02148-0.30447 0.35669-0.80315 1.1105-1.1406 1.5195-3.5832 4.3428-8.6248 10.957-11.977 15.924l-0.13281 0.19531c-0.00406 0.00601-0.00962 0.01353-0.01367 0.01953l-2.6524 3.9316-1.9355 2.8672c-0.6997 0.61947-1.2979 1.3576-2.252 1.7559-5.1e-4 2.2e-4 -0.00339 0.00174-0.0039 0.00195-0.64686 0.26983-1.9184 0.38526-2.7461 0.5918-1.1025 0.27519-2.2633 0.54861-3.6621 0.78906l-5.7695 0.41407c-40.538 0.79057-82.546 11.88-122.59 30.717-2.4062 1.0942-4.7474 2.3378-7.1328 3.4844-3.7084 1.8408-7.439 3.5841-11.105 5.5547-24.598 12.836-47.99 28.302-69.395 46.201-21.802 18.095-41.418 38.624-58.459 60.977-2.85 3.717-5.6315 7.4741-8.3281 11.293-1.1947 1.702-2.4223 3.3778-3.5859 5.0996-4.012 5.9005-7.7859 11.942-11.416 18.062-0.60546 1.0272-1.2122 2.0507-1.8066 3.084-8.6049 14.863-16.063 30.322-22.207 46.297-3.7422 9.3763-4.6001 9.7767-18.5 13.576-0.98391 0.26895-2.0386 0.72402-3.1309 1.0488-2.7431 0.82584-4.608 1.1764-7.2949 2.1211-1.9118 0.67219-3.0482 1.2557-5.0098 2.002-1.2454 0.46317-3.0766 0.95351-4.0254 1.3496-1.442 0.602-2.1031 0.84925-3.2715 1.3379-2.5346 1.0074-5.0367 1.9719-6.4648 2.3574-0.76347 0.21014-1.4228 0.32824-1.8574 0.27734-1.033-0.22697-1.3086-1.2793-0.98437-3.2051 0.44149-1.7242 1.2428-4.0772 2.2949-7.3027 1.9111-5.8588 4.1915-11.549 6.3672-17.287 1.241-3.1805 2.4184-6.4085 3.7227-9.541 0.70489-1.7042 1.3416-3.454 2.0664-5.1445 0.72217-1.6965 1.542-3.3407 2.2871-5.0254 3.3128-7.4332 6.758-14.762 10.428-21.906 0.08164-0.15871 0.1545-0.32385 0.23633-0.48242 1.5062-2.9025 3.1246-5.7363 4.6992-8.5977 2.8439-5.2239 5.7607-10.385 8.7949-15.443 3.9719-6.5208 8.0653-12.961 12.389-19.236 0.48187-0.71181 0.95364-1.4325 1.4394-2.1406 15.967-22.867 34.261-43.991 54.404-63.135 1.5887-1.4754 3.2004-2.9285 4.8125-4.3828 3.8523-3.4697 7.6975-6.9465 11.678-10.291 1.8528-1.5593 3.7788-3.0374 5.6582-4.5684 15.89-12.925 32.692-24.817 50.217-35.484 19.181-11.409 39.243-21.42 60.068-29.725 0.98515-0.38051 1.962-0.77498 2.9512-1.1484 5.2097-2.0325 10.494-3.8822 15.787-5.709 7.4508-2.4777 14.965-4.8378 22.621-6.9219 0.98845-0.27548 1.9659-0.577 2.957-0.8457 30.358-8.0316 62.262-12.977 95.424-14.561 0.00654-2.7e-4 0.01299 2.6e-4 0.01953 0 0.58983-0.02815 0.80392-0.01685 1.3672-0.04297 3.9682-0.12013 8.3001-0.32454 10.859-0.09961zm93.717 12.502c4.3222 0.1589 9.4053 0.93666 14.725 1.9453 8.3077 3.1353 13.534 4.9445 26.197 10.021 0.72255 0.29097 1.0591 0.45313 1.7793 0.74414 3.5214 1.4155 3.8117 1.6433 7.1875 3.0156 13.98 6.2744 26.739 12.367 31.998 15.67 1.0959 1.2136 1.9961 2.5483 2.873 3.8984 0.38842 1.6857 0.74655 3.148 1.2871 6.1582 1.2115 7.1822 3.0881 19.467 5.3691 35.674 0.29406 2.2681 0.56825 4.2709 1.0391 7.916 0.69955 5.416 1.0456 7.8405 1.5449 11.762 0.09656 0.72798 0.14031 1.1065 0.23242 1.8066 0.92845 7.5955 1.7552 14.435 2.1094 18.264-1.6752 5.3349-4.5151 10.257-8.5977 15.199-0.34868 0.30612-0.33922 0.35971-0.71289 0.68359-4.5926 3.9218-10.962 9.0693-17.463 14.268-4.9667 3.8806-11.48 8.9811-21.578 17.006-12.391 9.4969-22.326 16.778-24.799 17.85-0.5 0.22339-0.90698 0.32193-1.3496 0.4668-0.88418-0.04779-1.8262-0.14968-3.0332-0.43164-2.2086-0.59369-14.349-5.3986-24.844-9.498-6.2916-2.5855-7.4483-3.16-15.516-6.4141-19.903-8.028-30.473-12.319-36.428-14.879-2.472-1.3247-4.8726-2.6984-6.0058-3.9863-0.09203-0.10963-0.17871-0.22253-0.26758-0.33398-0.28962-0.60927-0.46683-1.6228-0.71875-2.3027-0.79022-3.1856-2.7896-16.448-4.8203-30.709-0.81907-6.1039-0.79791-6.0926-1.7656-13.254-2.0746-15.352-2.3999-20.012-3.3418-28.611-0.32828-3.1894-0.73976-6.8423-0.89843-8.832 1.1478-5.5046 3.2404-10.529 6.7266-15.416 2.5013-2.3412 6.0899-5.4539 9.3516-8.3398 6.2442-4.9451 12.99-10.259 20.359-15.938 9.4645-7.2906 18.666-14.261 25.754-19.502 2.5024-1.7199 3.663-2.3046 5.4863-3.4453 2.4142-0.34793 5.0315-0.5686 8.1191-0.45508zm148.54 67.852c3.5872 2.2305 8.0543 5.7728 12.516 9.3184 9.7552 8.256 22.002 19.36 31.67 28.887 4.9025 4.9429 9.8159 9.9288 14.717 15.254 14.616 16.487 28.787 34.635 40.646 52.209 1.2494 1.9003 2.5525 3.7748 3.7676 5.6914 0.6286 0.96784 1.1537 1.8934 1.7656 2.8555 4.4574 7.1595 8.6261 14.447 12.607 21.814 2.1702 4.0446 4.3286 8.0926 6.3516 12.199 1.4616 2.936 2.9111 5.8761 4.2988 8.8398 1.559 3.3726 2.9169 6.8179 4.3789 10.227 2.6647 6.119 5.1863 12.285 7.541 18.504 2.5137 6.7687 4.8778 13.583 7.0234 20.459 0.60264 1.8872 1.1791 3.7796 1.7539 5.6738 2.4381 8.2308 4.6457 16.521 6.5625 24.869 0.50406 2.2806 0.9402 4.5769 1.4062 6.8672 1.3834 6.5282 2.641 13.078 3.709 19.656 9.8999 64.065 5.345 130.89-13.969 192.94-0.09641 0.30302-0.19584 0.60535-0.29297 0.9082-2.7404 8.732-5.9169 17.312-9.2383 25.83-0.91645 2.3127-1.7308 4.6526-2.6914 6.9531-3.2298 7.8463-6.8006 15.541-10.531 23.158-1.8103 3.6546-3.6938 7.2887-5.6133 10.912-2.9177 5.5043-5.9877 10.925-9.1758 16.281-0.26575 0.44935-0.5117 0.90477-0.7793 1.3535-1.5841 2.6315-3.1927 5.2533-4.8418 7.8594-0.46099 0.73672-0.9421 1.4662-1.4082 2.2012-4.5249 7.0122-9.1919 13.939-14.201 20.641-2.2515 3.0445-4.1539 5.5795-5.1699 6.7598-0.38247 0.40954-0.74121 0.70139-1.0488 0.90625-0.20957 0.11771-0.4397 0.29545-0.62891 0.34961-0.2473 0.04826-0.46322-0.05066-0.66797-0.20703-0.22602-0.43599-0.43844-0.78544-0.72851-1.8379-0.11977-0.32833-0.24296-0.75334-0.35547-1.2031-0.34824-1.4544-0.70758-3.5985-1.0703-5.5703-0.3333-2.3516-0.64032-4.4921-1.0957-8.0195-0.20818-1.6125-1.4058-5.4782-2.1074-8.3945-0.31274-1.3863-0.59353-2.3325-0.91797-3.6484-0.7806-2.9543-1.0825-5.0438-1.9726-7.8555l-0.00781-0.02539-2.5801-8.1562c-0.18588-0.78987-0.29085-1.4992-0.36719-2.168-0.03019-0.5149-0.16764-1.1332-0.14258-1.6211 0.04708-0.79545 0.21693-1.64 0.45703-2.5215 0.12526-0.50942 0.36142-1.0864 0.55469-1.6191 0.12571-0.32796 0.32802-0.71569 0.48242-1.0645l3.6641-6.2012 1.4062-2.3633c0.03672-0.06171 0.06489-0.12578 0.10157-0.1875l0.69531-1.1777c2.7082-4.5838 4.9698-9.3032 7.4648-13.953 0.69546-1.3243 1.41-2.463 2.1016-3.8125 0.16626-0.31141 0.2937-0.63552 0.45898-0.94727 0.03221-0.0621 0.06744-0.12342 0.09961-0.18554 3.5761-6.822 6.8962-13.715 10.006-20.688 1.2088-2.6847 2.3746-5.3767 3.5137-8.082 2.4263-5.816 4.7364-11.651 6.8457-17.551 1.4712-4.0822 2.7955-8.1932 4.1133-12.312 1.1032-3.4719 2.4334-6.8905 3.4297-10.385 0.53336-1.8435 0.88488-3.709 1.3887-5.5566 0.96851-3.5953 1.7684-7.217 2.623-10.834 1.6846-7.001 3.2866-14.001 4.5527-21.043 0.04505-0.23555 0.09839-0.48053 0.13086-0.70118 0.19262-1.3092 0.34096-2.3098 0.54687-3.7031 0.00733-0.04546 0.01026-0.09126 0.01758-0.13672 10.988-65.82 3.8289-132.82-20.562-194.69-1.0391-2.6473-1.9002-5.3478-3.002-7.9746-2.0971-4.9798-4.5683-9.8285-6.8906-14.732-2.2305-4.7248-4.3099-9.5023-6.748-14.146-1.9337-3.6754-4.1769-7.2218-6.2402-10.846-3.1883-5.6068-6.2936-11.246-9.791-16.713-2.3719-3.7087-5.0592-7.2647-7.5723-10.908-1.9949-2.8879-3.9222-5.8081-6.0059-8.6504-1.6224-2.219-3.1403-4.4923-4.8164-6.6797-3.9662-5.1864-8.3324-10.155-12.598-15.182-1.4619-1.7092-2.802-3.4954-4.2988-5.1816-1.0485-1.1853-2.0144-2.4169-3.0801-3.5918-8.12-9.0186-16.626-17.812-25.736-26.223l-5.1641-4.7676c-1.6477-1.7946-2.4453-2.945-3.1562-4.041v-12.814c0.3644-4.4881 0.55943-10.218 0.30078-16.059-0.127-2.868 0.02417-2.933-0.01953-5.2148 0.20827-4.9675 0.52969-8.0199 1.0137-8.1309 0.19222-0.04787 0.36432-0.14345 0.60156-0.09961zm-275.98 9.7637c1.8648 0.59576 3.5181 2.2814 4.7988 4.9492l0.31836 4.8633v2.5566 1.0098 0.02149 12.41c-0.03759 0.11625-0.04767 0.30141-0.08985 0.4082-0.08286 0.10437-0.25548 0.21297-0.44531 0.32618-0.50785 0.2739-1.0994 0.54283-2.3066 0.85547-0.06035 0.01628-0.11997 0.03081-0.18164 0.04687-0.59034 0.1498-2.919 0.52446-3.7148 0.69531l-0.55859 0.07032c-0.18215 0.02279-0.35897 0.06085-0.54102 0.08398l-0.15429 0.01953c-2.7545 0.33728-5.4561 0.8503-8.1875 1.2656-2.0204 0.10911-4.0122 0.12798-6.0723 0.36328-18.698 2.0967-38.369 8.0506-57.992 16.828-1.7437 0.77345-3.4872 1.4623-5.2285 2.2812-1.5574 0.73862-3.1045 1.5772-4.6582 2.3633-28.6 12.97-54.81 30.656-77.725 52.402-0.4969 0.46831-0.96151 0.96571-1.4551 1.4375-0.42318 0.40736-0.83499 0.82813-1.2559 1.2383-0.18537 0.17662-0.37391 0.34985-0.55859 0.52734-0.3735 0.35957-0.72847 0.73643-1.0938 1.1035-0.22281 0.22067-0.44777 0.4387-0.66992 0.66015-1.5206 1.5134-3.0933 2.9645-4.5801 4.5176-0.95087 0.99126-1.857 2.0311-2.7949 3.0371-0.98791 1.022-2.0123 2.0108-2.9746 3.0566-0.85165 0.92607-1.6483 1.8967-2.4844 2.8359-0.4906 0.55207-0.95906 1.1181-1.4453 1.6738-2.4588 2.7648-4.9149 5.5314-7.2461 8.4004-0.64843 0.79763-1.2416 1.6349-1.8809 2.4394-2.8664 3.6096-5.6955 7.2447-8.373 10.992-0.70554 0.98617-1.3393 2.0185-2.0312 3.0137-2.5039 3.6062-4.9918 7.2229-7.3145 10.947-0.89411 1.4313-1.7072 2.9087-2.5469 4.3711-0.22081 0.36705-0.42746 0.73941-0.64649 1.1074-1.7835 3.0184-3.6143 6.0085-5.2754 9.0977-0.75307 1.3985-1.3916 2.8541-2.1191 4.2656-1.4631 2.73-2.9699 5.4254-4.3574 8.2148-0.06897 0.13696-0.148 0.26523-0.2168 0.40234-2.5519 5.0855-3.4968 6.6682-4.8574 9.1465-2.9568 4.3865-5.8269 3.3885-15.113-0.25585-3.5928-1.4901-6.7663-2.857-8.4062-3.5039l-0.05859-0.02344c-0.10757-0.21915-0.25122-0.41215-0.35938-0.63086-0.23887-0.47475-0.51593-0.92161-0.69726-1.4375-0.10332-0.31054-0.26689-0.57609-0.35157-0.90039-0.30874-1.1541-0.41357-2.4505-0.47656-3.7754-0.02094-0.40968-0.02824-0.82865-0.04883-1.2383 1.095-2.8773 3.3306-7.2118 6.3613-13.006 0.98745-1.9166 2.0656-3.7798 3.0918-5.6738 2.1773-4.0356 4.3921-8.0486 6.7383-11.975 1.4215-2.3696 2.9344-4.6763 4.416-7.0059 1.9479-3.0731 3.8827-6.155 5.9316-9.1543 2.0624-3.0107 4.2356-5.9372 6.3965-8.873 1.665-2.2664 3.2917-4.5638 5.0137-6.7832 2.5363-3.2649 5.1929-6.4254 7.8477-9.5879 1.5518-1.8488 3.0572-3.7386 4.6484-5.5508 2.6465-3.0152 5.4114-5.9134 8.1621-8.8262 1.8188-1.923 3.5898-3.895 5.4531-5.7715 2.2215-2.2422 4.5445-4.3696 6.8262-6.5449 2.6155-2.4857 5.1938-5.0132 7.8867-7.4082 1.1566-1.0329 2.369-1.9939 3.5391-3.0098 2.0347-1.7585 4.116-3.4559 6.1914-5.1621 3.1752-2.5757 6.3364-5.1697 9.5977-7.6309 0.62687-0.47712 1.2702-0.9299 1.9004-1.4023 22.202-16.042 47.028-29.974 71.826-40.566 8.8835-3.5383 17.94-6.7977 27.252-9.6074 9.7797-2.9508 27.061-6.6772 40.23-8.9941 4.0751-0.60936 8.1421-1.2738 12.242-1.7051l2.875-0.30274zm16.754 76.449c0.88038 0.09506 1.6567 0.24169 2.4434 0.38086 2.937 0.65941 4.9426 2.2096 6.8418 4.4609l0.03516 0.05664c1.8305 2.9622 6.0026 8.67 9.2715 12.684l4.2793 5.2539c0.15346 0.38923 0.48885 0.91653 0.53515 1.2246-0.37073 0.2222-0.87157 0.40998-1.666 0.52539l-0.19922 0.00977-6.123 0.2832h-4.623c-1.7339 0-3.4441 0.17186-5.1719 0.21875-2.8306 0.05445-5.6544 0.14569-8.4863 0.3457-1.214 0.08895-2.4208 0.14567-3.6348 0.26172-1.0096 0.09138-2.0011 0.27373-3.0078 0.38086-2.8252 0.31087-5.6435 0.62282-8.4609 1.0723-4.3024 0.65039-8.5555 1.4859-12.789 2.418-0.09951 0.02323-0.19933 0.04105-0.29882 0.06445-28.5 6.3208-55.31 18.813-78.602 36.357-30.519 22.247-54.431 52.434-68.004 87.771-2.0623 5.0077-3.9503 10.114-5.6289 15.322-1.7612 5.4646-2.4916 7.4416-3.2363 8.8457-0.52962 0.52086-1.0884 0.69373-1.7148 0.45703-0.05032-0.02112-0.0969-0.02279-0.14844-0.04882-0.98012-0.78169-3.4652-3.9663-5.8574-7.0859-1.5651-2.1864-2.6857-3.847-4.4531-6.1973-1.3558-1.9546-2.832-4.0027-3.6328-5.3594-0.57976-3.2352-0.32404-6.972 0.23047-10.887l1.9629-4.957c1.877-4.7395 3.9469-9.3998 6.168-13.986 0.50264-1.026 0.97297-1.8454 1.4766-2.8438 1.6917-3.362 3.4503-6.6906 5.3184-9.9609 10.114-16.159 23.059-33.453 35.475-46.525 2.7463-2.8214 5.5802-5.5413 8.4492-8.2207 0.14643-0.13497 0.29659-0.26578 0.44336-0.40039 0.95009-0.86098 1.9456-1.6764 2.9102-2.5234 20.958-18.07 50.434-34.938 77.98-46.395 5.239-1.9061 10.533-3.6065 15.881-5.1191 2.2834-0.63867 4.5551-1.3236 6.8555-1.8887 1.344-0.33983 2.7043-0.61823 4.0547-0.93555 0.12659-0.02889 0.25423-0.05142 0.38086-0.08008 4.2085-0.94187 8.4283-1.8264 12.68-2.5137 0.15584-0.02505 0.30894-0.06514 0.46484-0.08984 5.2923-0.84353 10.612-1.4869 15.949-1.9199l5.6523-0.45703zm233.09 11.758c2.3274-0.55462 5.7418 1.1659 9.7695 4.3457 1.1243 1.137 2.049 2.0109 3.4961 3.5332 5.9428 6.2067 11.535 12.642 16.873 19.227 3.5629 4.4126 6.8156 9.0165 10.117 13.59 0.99379 1.4491 1.9815 2.9267 2.9766 4.4219 2.4865 3.7803 4.9732 7.4434 7.4336 11.467 0.82824 1.3398 1.6094 2.7511 2.4297 4.1113 3.8761 6.4956 7.7121 13.139 11.295 19.922 0.0699 0.13171 0.1334 0.26279 0.20312 0.39453 3.8295 7.2683 7.3728 14.595 10.598 21.807 0.63203 1.4286 1.1811 2.8158 1.7793 4.2305 1.6396 3.8188 2.9611 7.4692 4.3535 11.164 0.43898 1.2046 0.82756 2.4237 1.252 3.6328 0.64778 1.8799 1.2941 3.7589 1.9082 5.6504 1.8503 5.7225 3.5672 11.489 5.1055 17.311 0.68982 2.5917 1.3624 5.1859 1.9902 7.793 1.5032 6.3017 2.78 12.656 3.9141 19.039 0.63545 3.8067 1.2561 7.6179 1.7598 11.459 0.09915 0.75466 0.20283 1.5079 0.29688 2.2637 0.62535 5.0343 1.1359 10.092 1.5371 15.164 0.05056 0.63961 0.10925 1.278 0.15624 1.918 0.38035 5.1743 0.63597 10.362 0.78516 15.551 0.01618 0.56854 0.04129 1.1365 0.05469 1.7051 0.12352 5.1714 0.11794 10.342 0.01367 15.504-0.01322 0.63915-0.01259 1.2792-0.0293 1.918-0.12781 4.9814-0.38413 9.9481-0.72265 14.898-0.05857 0.84896-0.09736 1.7011-0.16211 2.5488-0.25184 3.3237-0.63207 6.6152-0.97852 9.916-0.32119 2.7197-0.50589 5.4485-0.89648 8.1621-0.11611 0.89696-0.27725 1.7773-0.40039 2.6719-2.3905 15.676-5.8939 31.233-10.633 46.502-0.70269 2.2268-1.5647 4.4214-2.3184 6.6387-1.7239 5.1449-3.48 10.282-5.4785 15.35-2.0404 5.1272-4.3537 10.187-6.6758 15.244-0.54879 1.1984-1.0968 2.3964-1.625 3.6016-1.3504 2.7624-2.5195 5.5903-3.9609 8.3184-1.6356 3.0957-2.8496 5.3585-3.9062 7.0859-0.31873 0.51068-0.60372 0.74796-0.9082 1.1699-0.65909 0.92845-1.2999 1.775-1.8887 2.1582-1.0095 0.50833-2.155 0.34261-3.4805-0.24609-0.27372-0.16426-0.43104-0.16955-0.74414-0.37891-0.38679-0.24371-0.87789-0.59995-1.3242-0.92382-1.3437-0.96677-2.782-2.044-4.8965-3.6602-4.6928-3.5869-11.465-8.2543-15.049-10.373-1.5411-0.91108-2.7782-1.7959-3.8242-2.5976-0.4564-0.45259-0.95176-0.90971-1.2031-1.3438-0.11971-0.67765-0.18918-1.3919-0.05078-2.166 0.35367-1.1063 1.4585-3.5175 2.7344-6.2461 0.32698-0.66712 0.65252-1.3345 0.97461-2.002 5.7797-10.351 10.643-21.328 14.742-32.723 2.8291-7.5331 5.0442-15.308 7.1172-23.143 0.18258-0.68273 0.33463-1.3724 0.51172-2.0566 0.27272-1.1172 0.54417-2.2325 0.80273-3.3555 1.6056-6.6644 3.0146-13.371 4.0918-20.193 0.43556-2.5486 0.79329-5.1011 1.1582-7.6582 0.43904-2.812 0.76611-5.62 1.1191-8.4297 0.01432-0.13714 0.03471-0.27299 0.04883-0.41016 2.7146-21.863 2.8381-43.634 0.33985-65.156-0.19252-1.7373-0.43601-3.4651-0.66211-5.1973-0.54711-4.0262-1.1875-8.0408-1.918-12.047-0.57185-3.2319-1.1536-6.4593-1.8438-9.6699-0.24353-1.1059-0.54315-2.2044-0.80078-3.3086-3.2746-14.349-7.7474-28.456-13.385-42.279-0.66118-1.7978-1.1643-3.681-1.8633-5.457-12.01-30.7-29.218-58.037-51.057-79.336-0.85328-0.974-1.6007-1.9888-2.4688-2.957l-3.3106-3.6914-1.1777-1.3477c-0.67885-1.1877-1.4152-2.4569-1.4062-3.3984 0.03352-0.12668 0.05452-0.26186 0.10742-0.38867 0.15306-0.39555 0.27879-0.77872 0.61328-1.252 0.00252-0.00356 0.00138-0.0062 0.00391-0.00977l2.2344-2.3633c0.20115-0.19227 0.26587-0.29389 0.48438-0.50195 0.02577-0.02455 0.07341-0.09204 0.09961-0.11719l2.0976-2.2188c0.00144-0.00152 0.00247-0.00239 0.00391-0.00391l0.02148-0.02343c3.7834-4.0036 8.0037-8.9992 9.3789-11.102 0.58863-0.89987 1.3723-1.3958 2.2656-1.6543zm-67.555 49.023c1.1026 0.18745 2.2002 0.34771 3.332 0.69336 1.4096 0.4476 2.8487 1.067 4.2969 1.7559 0.35637 0.16447 0.70806 0.30009 1.0664 0.47852 2.3168 1.1864 4.7171 3.0805 7.0977 4.8047 1.5138 1.5788 2.6919 2.7548 4.7617 4.9316 11.78 12.389 21.821 26.575 30.369 41.777 0.78407 1.4991 1.5922 2.9162 2.3633 4.4453 1.4271 2.7853 2.7551 5.6409 4.0879 8.4961 1.4972 3.1771 2.9581 6.3807 4.375 9.6328 2.0661 4.9271 4.0089 9.9258 5.8008 14.996 0.40335 1.1437 0.83948 2.2721 1.2285 3.4219 2.1801 6.426 4.1771 12.93 5.9121 19.502 0.0297 0.11334 0.05051 0.22843 0.08008 0.3418 1.5649 5.9562 2.8698 11.966 4.0625 17.982 0.58771 3.004 1.0791 6.0122 1.5723 9.0215 0.32865 1.972 0.60851 3.9407 0.89648 5.9121 0.18214 1.467 0.45407 2.9289 0.61133 4.3965 0.09587 0.7502 0.1718 1.4983 0.26172 2.248 0.4233 4.2988 0.60414 8.5863 0.8125 12.875-0.31342 23.422-4.3748 50.97-10.637 75.305-2.6278 7.6965-5.6379 15.792-8.7305 23.338-0.28757 0.64674-0.57156 1.2707-0.86328 1.918-1.7176 3.9085-3.4128 7.4558-5.1172 11.025-1.8289 3.7505-3.6021 7.2778-5.1367 10.09-0.4662 0.83222-0.84046 1.4738-1.2324 2.1504-1.2167 2.1081-2.0317 3.1747-2.7344 3.957-0.88964 0.61928-4.5012 1.2278-9.3301 1.793-8.2115 0.39535-17.096 0.67532-23.543 0.67773-1.384-0.14033-2.4091-0.30897-3.3477-0.49219-0.1389-0.09932-0.39441-0.16172-0.51367-0.26758-0.49438-0.45155-0.8083-0.94017-1.1074-1.4316 1.0409-1.6024 2.6509-4.0343 5.8906-8.7383 9.5052-13.802 16.892-28.5 22.623-43.637 0.98405-2.5556 2.0722-5.086 2.9492-7.6641 0.1436-0.43048 0.2441-0.86962 0.38477-1.3008 11.71-35.181 13.46-72.232 5.7383-107.59-0.53621-2.5493-1.2257-5.058-1.8574-7.5859-0.67682-2.613-1.3021-5.2329-2.084-7.8223-0.5469-1.8743-1.0347-3.7601-1.6348-5.6191-8.8475-28.951-24.294-55.478-45.803-77.336-0.82165-0.86562-1.6549-1.7192-2.4941-2.5723-2.0214-1.9745-4.0601-3.9247-6.1856-5.8145-2.1921-2.0481-4.2504-4.1963-6.5508-6.1602l-1.5039-1.2832c-2.1021-2.1427-5.951-5.7938-6.1934-6.2676-0.01608-0.0292-0.00648-0.04259-0.01368-0.0664l15.793-3.8359 10.246-2.4863zm-472.89 102.48c1.7338 0.02961 3.5559 0.30782 5.4199 0.69921 1.5774 0.39634 3.2895 1.1528 4.9551 1.8242 3.6056 1.7087 7.593 3.6735 13.215 6.7656 5.5424 3.1635 10.369 5.9218 18.713 10.652l26.033 14.758c1.94 1.1467 6.2839 3.5914 7.4492 4.3106 4.0946 3.1251 6.5532 6.3937 8.0078 10.303l0.32031 42.764v0.0332l0.3125 41.742c-1.3841 4.9554-4.1895 8.6334-9.1191 12.291-0.89142 0.5479-2.058 1.2259-3.1602 1.8867-6.5282 3.8036-21.362 12.259-38.664 21.979-11.566 6.4973-14.817 8.2146-21.311 11.785-5.6544 2.1287-10.84 3.3655-16.213 3.1172-2.7907-0.36542-6.0354-1.3268-9.1816-2.1582-4.3682-2.2706-10.26-5.4564-15.885-8.4805-20.795-11.7-43.479-24.415-51.135-28.893l-0.86328-0.50195c-2.892-2.5586-4.9342-5.3426-6.1172-8.6484v-43.76-44.002c1.0683-2.9562 2.6419-5.5357 5.0938-7.8613l4.9844-2.8965c2.1546-1.2522 2.8108-1.6315 4.8379-2.8164l15.664-8.8613c14.49-8.1977 27.722-15.711 35.6-20.197 1.1865-0.56995 2.6502-1.392 3.75-1.873 0.56023-0.22248 1.2028-0.57055 1.7539-0.77343 3.1244-1.2859 5.809-1.9964 8.4199-2.5449 2.38-0.43382 4.7403-0.68322 7.1191-0.64257zm127.24 143.37c0.65997-0.03246 1.5242 1.0324 2.5586 2.6641l5.8613 11.789c11.88 23.89 28.147 44.62 47.229 61.807 1.8216 1.654 3.6069 3.3539 5.4805 4.9356 1.5748 1.3218 3.22 2.5392 4.8301 3.8125 2.801 2.2228 5.6063 4.4336 8.5098 6.498 0.60292 0.42911 1.1956 0.87041 1.8027 1.293 1.2567 0.88549 2.5874 1.6402 3.8613 2.4961 2.4324 1.609 4.8487 3.2385 7.3438 4.7383 16.395 10.034 34.035 17.658 52.463 22.686 25.774 7.1535 52.873 9.3312 79.797 5.5195 5.6351-0.79451 11.259-1.8472 16.855-3.1641 5.146-1.2109 8.3279-1.9095 10.672-2.291 1.4099-0.19103 2.6376-0.30865 3.1855-0.04492 0.43204 0.27116 0.68065 0.67335 0.64844 1.3184-0.02604 0.3546-0.21149 0.88189-0.36914 1.3789-0.50032 1.1079-1.1626 2.367-2.1758 4.2285-2.0779 3.8177-5.2341 11.104-7.0137 16.193-0.86649 2.4778-1.5087 4.2216-2.1992 5.7266-0.13218 0.25332-0.27079 0.64988-0.40625 0.87891-1.518 2.9174-3.4811 4.0904-8.0918 4.9121-0.33199 0.06986-0.85325 0.14386-1.2168 0.21289-2.3843 0.36811-5.2707 0.69178-9.2109 1.1152-39.578 3.9358-78.529-2.23-113.68-16.527-1.2874-0.53125-2.6016-0.999-3.8789-1.5527-1.5016-0.65422-2.9887-1.3388-4.4766-2.0234-4.2458-1.9465-8.4675-3.9456-12.588-6.1387l-0.00195-0.00195c-0.29209-0.15589-0.5772-0.32432-0.86914-0.48047-4.3048-2.3145-8.5178-4.7923-12.67-7.3691-1.2445-0.78891-2.4912-1.574-3.7227-2.3848-3.3456-2.1643-6.6347-4.4155-9.8672-6.748-0.92589-0.66911-1.8313-1.3665-2.748-2.0488-1.4107-1.0585-2.803-2.143-4.1914-3.2344-2.1707-1.6927-4.3441-3.3807-6.4551-5.1504-3.1178-2.6326-6.1532-5.3755-9.1426-8.1777-0.99219-0.92524-2.008-1.8225-2.9844-2.7656-3.5066-3.4022-6.903-6.9391-10.213-10.574-0.49453-0.54284-1.0085-1.0655-1.498-1.6133-3.1312-3.5035-6.1269-7.1558-9.0664-10.865-0.80701-1.0244-1.6453-2.0192-2.4355-3.0586-2.0723-2.7048-4.0172-5.534-5.9844-8.3418-1.8178-2.6302-3.6738-5.2295-5.3848-7.9453-0.52353-0.81434-1.0067-1.6641-1.5215-2.4863-2.0993-3.4299-4.0668-6.9582-5.9902-10.518-2.3827-7.853-2.7-15.04-0.57227-21.215 1.6669-2.8413 3.1789-5.2055 4.9336-8.6875l0.01757-0.03321 1.3457-2.6738c0.0047-0.0092 0.01294-0.02012 0.01758-0.0293l1.1035-2.1875 2.1094-3.8711zm-54.08 65.201c0.0894 0.02189 0.16469 0.10234 0.25195 0.13086 0.60249 0.1652 1.1395 0.89101 1.6894 1.3984 1.0838 1.3042 2.8379 3.7988 5.3984 7.8672 10.188 17.076 22.245 32.815 35.832 47.053 0.79862 0.8387 1.6716 1.5995 2.4805 2.4277 1.4381 1.4689 2.9337 2.8769 4.4043 4.3125 0.19635 0.19473 0.39494 0.38603 0.5918 0.58008 2.1434 2.0798 4.2082 4.2396 6.418 6.248 1.2162 1.1093 2.5049 2.1315 3.7402 3.2188 1.128 1.0041 2.2713 1.9852 3.4141 2.9688 0.53846 0.46278 1.0986 0.89546 1.6406 1.3535 0.94449 0.80011 1.9051 1.5771 2.8594 2.3633 1.6227 1.3249 3.192 2.7118 4.8438 4 9.6628 7.5906 19.814 14.456 30.383 20.639 2.1951 1.2959 4.4385 2.5009 6.668 3.7383 1.5857 0.86853 3.1265 1.8131 4.7305 2.6504 1.3359 0.70799 2.6989 1.3633 4.0469 2.0488 0.04189 0.02098 0.08505 0.03958 0.12695 0.06055 47.086 24.016 100.9 35.138 154.89 30.193l10.107-0.16602 2.5449 0.00782c0.05382 0.03399 0.09615 0.08149 0.14844 0.11718 0.11874 0.10738 0.17365 0.31505 0.27734 0.44532l0.70703 4.4824 0.17579 1.4941c0.02438 0.2075 0.17596 0.71325 0.20703 0.94141l0.41015 2.6016c0.66496 4.226 1.9042 8.6717 3.0254 12.957 0.23288 0.86836 0.30546 1.6407 0.53907 2.4473 0.0808 0.27897 0.09915 0.36434 0.17773 0.63085 0.23177 0.78546 0.43465 2.154 0.64844 2.7754 0.61896 1.799 0.95974 2.9532 1.2539 4.1152 0.18706 1.6361 0.07438 2.7577-0.36523 3.4062-0.02812 0.03758-0.03768 0.08683-0.06836 0.12305-0.15901 0.14613-0.27573 0.30908-0.49609 0.43554-0.28024 0.20714-1.1104 0.26974-1.5215 0.42969-1.8767 0.61726-5.4991 1.0678-10.49 1.4336-4.1851 0.32152-9.4352 0.61125-15.877 0.83203-1.8965 0.05718-2.8637 0.14457-4.8242 0.19336-7.0845 0.19125-13.228 0.19179-18.965 0.16796-0.75865 0.00105-1.525 0.01001-2.2344 0.00782-0.28764-0.01125-0.57572-0.01529-0.86328-0.02735-6.2288-0.43313-12.722-0.88075-16.73-1.2168-2.1571-0.21715-4.1492-0.36475-6.4316-0.63086-1.5935-0.16087-3.0002-0.34553-4.373-0.51172-3.1052-0.46841-6.3228-0.85926-9.3574-1.3789-2.4651-0.40105-4.9178-0.85732-7.3711-1.3164-6.0176-1.1356-11.815-2.4515-17.568-3.8066-3.2721-0.80593-6.5559-1.5686-9.7988-2.4766-19.432-5.8442-38.755-13.322-57.143-22.234-27.249-13.659-52.458-31.035-74.598-51.416-6.4089-5.9666-12.662-12.119-18.584-18.627-0.05552-0.0623-0.11052-0.1232-0.16602-0.18555-3.7588-4.2523-7.4299-8.6715-11.018-13.123-1.6234-1.9861-3.0475-3.9133-4.625-5.9082-2.5585-3.2835-5.1506-6.5749-7.5644-9.8262-1.4847-2.0843-2.9573-4.1783-4.4356-6.2676-0.90882-1.3572-1.8557-2.691-2.7402-4.0625-3.696-5.7476-7.2515-11.596-10.541-17.615l-1.9512-3.5684c-0.57295-1.1262-1.5017-2.7899-1.8008-3.5391-0.17484-0.42265-0.41609-0.92361-0.4707-1.2051-0.00619-0.05856-0.01145-0.11552-0.01563-0.17188-0.10984-0.5761 0.05154-0.82633 0.19532-1.0976 0.02781-0.06163 0.07248-0.11624 0.10546-0.17578l13.531-6.5274c6.5551-3.1618 10.299-4.8567 12.377-5.748 0.6793-0.13032 1.6054-0.57397 2.1504-0.46679zm-135.52 7.8281c1.7169 0.00264 4.9788 1.2738 10.236 3.2637 0.32605 0.12341 0.86921 0.25882 1.2168 0.38477 3.0439 1.0484 5.7226 1.9408 9.3105 2.9375 3.8039 1.0859 7.2242 1.8973 10.729 2.6562 1.6336 0.36282 3.2012 0.87842 4.8066 1.1914l10.268 2.002c0.62113 0.2764 1.3335 0.41407 1.8535 0.89844 0.5923 0.55273 1.2155 1.5021 1.8594 2.4902l4.1738 8.3809c5.2465 10.536 11.09 20.664 17.266 30.545 3.1963 5.2212 6.7072 10.175 10.141 15.197 1.6765 2.4497 3.2528 4.9767 4.9863 7.3789 4.4516 6.1822 9.1766 12.102 13.977 17.959 1.0582 1.2866 1.9992 2.6782 3.0742 3.9492 0.23008 0.27337 0.48007 0.52479 0.71484 0.79297 0.9117 1.087 1.7584 2.2398 2.6816 3.3144 1.9688 2.2684 4.0969 4.3649 6.1172 6.5801 24.83 27.48 53.381 50.823 84.949 69.291 4.8802 2.8851 9.9553 5.4144 14.961 8.0742 3.0242 1.5837 5.9408 3.354 9.0117 4.8535 7.0221 3.4883 14.211 6.6194 21.443 9.6621 13.993 6.0499 28.267 11.299 42.824 15.594 59.149 19.082 120.07 23.15 172.94 7.123 0.88-0.12591 1.7696-0.23175 2.4316-0.25 0.82369-0.00348 1.8344 0.1945 3.4863 1.1348 1.8103 0.93279 3.7339 2.2798 7.707 5.4414 4.0392 3.2142 6.354 4.8124 9.0762 6.8047 1.5526 1.1363 3.7702 2.9572 5.1875 3.8887 3.911 2.5695 7.721 4.6317 13.668 7.6562 1.7854 0.90806 2.4464 1.4101 3.666 2.1113 2.8352 1.779 4.6248 3.1259 4.7988 3.7598-0.04393 0.15848-0.00342 0.34093-0.20312 0.45703-0.67006 0.37119-2.974 1.0095-4.3613 1.502-2.222 0.78417-4.3664 1.5394-8.0488 2.5449-5.6461 1.5684-12.87 3.1987-19.965 4.8145-6.366 1.459-11.602 2.4746-17.369 3.6328-6.7684 1.3071-13.463 2.569-19.363 3.4121-11.729 1.303-32.176 2.3169-52.277 2.7754-1.2291 0.02549-2.3713 0.04174-3.5781 0.0625-4.451 0.07479-9.165 0.20197-13.121 0.20899-7.4538 0.00918-13.738-0.1091-17.355-0.41407-4.4094-0.37172-8.7493-0.98284-13.121-1.4863-1.3516-0.15744-2.6987-0.32967-4.0469-0.5-7.4547-1.0755-14.996-2.0666-22.191-3.3965-0.16016-0.02868-0.31464-0.06105-0.47461-0.08984-19.167-3.5607-37.273-8.2378-54.689-13.752-32.979-10.741-64.282-25.392-93.217-43.578-2.4732-1.5653-4.9441-3.1311-7.3848-4.748-5.4619-3.5954-10.83-7.3192-16.109-11.162-0.08071-0.05926-0.16152-0.11841-0.24219-0.17773-3.7828-2.7722-7.4854-5.6515-11.176-8.5508-1.7427-1.3632-3.4614-2.754-5.1816-4.1445-0.5581-0.45327-1.1201-0.90127-1.6758-1.3574-2.8111-2.3196-5.6516-4.5986-8.4043-6.9961-2.3807-2.0587-4.6706-4.2226-7.0059-6.3359-6.9424-6.332-13.66-12.94-20.193-19.771-15.438-16.401-30.017-34.266-42.924-52.809-2.549-3.7128-5.0555-7.4655-7.5-11.277-1.2291-1.9164-2.4712-3.8315-3.6816-5.752-8.9472-14.598-21.544-39.882-29.365-57.986-0.84933-2.0778-1.7971-4.0992-2.6133-6.1953-1.7917-4.4381-3.1289-8.127-3.7344-10.539-0.49694-2.159-0.43891-3.4593 1.0176-3.457zm571.3 34.785c2.964-0.02561 5.9236 0.50562 9.1387 1.5332 4.3357 2.4004 10.626 5.8577 19.506 10.66 9.1625 4.9556 23.053 12.471 34.467 18.648 6.5538 3.5541 11.808 6.4097 15.613 8.498 2.195 1.279 6.9823 3.8834 8.0723 4.5781 0.59077 1.041 1.1787 2.1039 1.7383 3.5625 0.56526 1.4879 1.1087 3.1715 1.6348 5.0215 0.67715 2.3666 1.2244 5.5279 1.8203 8.4082l0.2539 36.133 0.30664 43.348c-1.3721 4.8286-3.977 8.4843-8.668 12.031l-36.523 19.918c-4.5373 2.4744-6.494 3.524-10.193 5.5645-6.1562 3.3522-14.109 7.6892-17.854 9.7246-1.0835 0.58896-1.514 0.79294-2.4746 1.3223-5.815 2.9952-10.001 4.736-13.533 5.5879-4.0922 0.34162-8.5171-0.46785-14.512-2.959-6.0633-3.0528-14.232-7.2715-29.121-15.324-9.2722-5.0693-19.119-10.459-25.549-13.953-9.2302-5.0151-16.882-9.4248-20.215-11.512-2.5238-2.4567-4.3903-4.9907-5.541-7.873l-0.20898-29.488-0.11329-15.959v-0.02539-0.00781-0.02149-0.03125-0.00195-0.12109-0.10938-0.00195-0.0293-0.02344-0.03515l0.24414-34.127 0.02344-3.2539 0.05664-7.7676c1.2653-3.4541 3.5554-6.373 6.7617-9.0996l7.1777-3.8848c4.5488-2.4614 13.518-7.3862 21.504-11.758 10.694-5.8139 21.908-11.906 31.291-17.035l14.963-8.1797c3.5444-1.2302 6.775-1.9298 9.9336-1.957z"/>
</svg>
