<svg width="283.15mm" height="282.57mm" version="1.1" viewBox="0 0 283.15 282.57" xmlns="http://www.w3.org/2000/svg"><g transform="translate(-16.933 101.86)"><path d="m158.52-101.86c-54.876-1.5426-107.63 33.619-129.38 83.674-21.845 47.159-14.007 106.11 18.925 146.27 27.964 35.79 74.117 56.072 119.4 52.438 52.31-1.8344 101.04-36.686 121.41-84.634 12.89-29.273 14.22-62.936 6.7379-93.783-15.336-56.874-68.955-103.06-128.78-103.76-2.769-0.12399-5.5405-0.1991-8.3124-0.19589zm-0.0879 33.452c-2.7877 9.5216-1.6756 9.8204-17.925 10.486-33.328 6.2187-62.94 30.422-74.772 62.319-5.961 2.0736-15.845 7.3591-9.3419-3.1577 15.517-41.469 57.721-70.413 102.04-69.648zm23.561 1.7926c-5.0343-4.0199-8.8973-3.7113 22.242 10.189 6.7444 34.534 5.5417 17.383-15.843 39.426-11.45-4.7636-18.016-6.3088-21.199-10.451-3.1826-4.1418-2.9818-10.88-4.4698-22.67 18.818-16.747 0.97722-0.18238 19.27-16.495zm39.929 19.538c37.279 26.518 53.167 77.997 38.261 121.13-3.8424 9.9764-8.8875 26.159-16.48 31.212-5.2622-19.235-4.4024-3.1363 6.637-32.234 14.705-37.738 2.2501-83.038-28.336-109.17-1.0703-3.1351 0.14741-7.5288-0.0823-10.934zm-72.303 2.5363c3.7798 8.4739-6.1373 7.4159-12.029 8.9379-22.36 5.7956-40.521 22.718-50.011 43.421-12.392-1.6092 4.1623-17.561 7.1009-23.516 14.155-15.365 33.648-27.707 54.94-28.842zm4.5884 20.269c10.929 7.6944-2.8315 5.7096-8.8398 7.2881-19.763 4.0423-36.061 19.97-41.401 39.323-7.8489-7.3763-3.9136-11.002 10.916-29.354 10.569-9.9868 24.609-16.982 39.325-17.257zm61.185 3.0939c16.199 13.181 24.552 34.84 25.814 55.422-0.30927 13.495-1.3372 31.336-10.68 44.755-15.854-9.4011-4.151 3.8128 1.5304-34.194 1.8146-21.674-4.8356-44.963-20.78-60.271-1.0711-1.9677 3.1823-4.4058 4.1155-5.7128zm-17.086 12.744c11.277 7.3504 16.637 21.355 19.545 34.154 2.8286 14.917 0.1073 30.855-8.044 43.709-20.297 2.7961-2.1388-2.6297 0.0324-19.253 5.8265-20.72-2.8584-43.033-18.601-56.974zm-126.18 26.987c7.3814 2.5314 13.877 7.6263 20.924 11.124 2.6197 5.6806 1.1296 19.378 1.6353 25.653-12.235 6.6777-12.677 6.8856-22.411 12.403-12.04-4.6993-11.88-4.8267-23.033-12.88 0.20089-8.2033-0.20081-16.604 0.41134-24.688 6.4911-2.8334 15.604-11.083 22.474-11.612zm33.65 38.636c9.3872 20.968 31.677 35.812 54.948 33.755 7.8612-1.812 14.283-3.141 7.9631 6.0607-15.617 4.6427-33.44-0.93565-46.681-9.9173-7.5096-7.0825-23.561-17.473-16.639-29.141l0.12762-0.24751 0.28112-0.51005zm-13.959 17.01c14.063 25.652 45.346 41.108 75.459 37.261 2.6256 10.689 4.5515 9.2888-7.0872 10.451-30.838 1.062-61.678-16.739-75.664-44.294 1.7794-1.7944 4.8946-2.8632 7.2926-3.418zm-36.003 2.2045c12.031 3.0559 10.341-0.62909 21.771 19.053 21.967 31.16 63.227 48.87 100.73 39.886 4.548 4.1836 17.512 9.0103 4.3429 9.9311-51.961 13.417-110.03-17.935-126.85-68.87zm150.97 8.6088c8.0985 2.9752 15.391 8.2743 23.227 12.039 1.9208 8.0733 0.24957 17.928 0.72903 26.217-7.1632 6.1734-7.2396 5.2858-23.913 13.658-12.541-6.6183-12.599-6.6666-23.887-12.878-0.0996-7.6251-0.74258-18.954-0.66848-26.58 10.999-6.5757 16.094-7.9941 23.647-12.361l0.86558-0.09508z" stroke-width=".26458"/></g></svg>
