<?xml version="1.0" encoding="UTF-8" standalone="no"?>
<!-- Created with Inkscape (http://www.inkscape.org/) -->

<svg
   width="210mm"
   height="297mm"
   viewBox="0 0 210 297"
   version="1.1"
   id="svg1"
   inkscape:version="1.3.2 (091e20ef0f, 2023-11-25)"
   sodipodi:docname="xubuntu.svg"
   xmlns:inkscape="http://www.inkscape.org/namespaces/inkscape"
   xmlns:sodipodi="http://sodipodi.sourceforge.net/DTD/sodipodi-0.dtd"
   xmlns="http://www.w3.org/2000/svg"
   xmlns:svg="http://www.w3.org/2000/svg">
  <sodipodi:namedview
     id="namedview1"
     pagecolor="#ffffff"
     bordercolor="#000000"
     borderopacity="0.25"
     inkscape:showpageshadow="2"
     inkscape:pageopacity="0.0"
     inkscape:pagecheckerboard="0"
     inkscape:deskcolor="#d1d1d1"
     inkscape:document-units="mm"
     inkscape:zoom="0.92559624"
     inkscape:cx="397.04137"
     inkscape:cy="561.80003"
     inkscape:window-width="1721"
     inkscape:window-height="1058"
     inkscape:window-x="0"
     inkscape:window-y="0"
     inkscape:window-maximized="1"
     inkscape:current-layer="layer1" />
  <defs
     id="defs1" />
  <g
     inkscape:label="Vrstva 1"
     inkscape:groupmode="layer"
     id="layer1">
    <path
       fill-rule="evenodd"
       clip-rule="evenodd"
       d="m 96.728048,70.075391 c -37.787526,2.433638 -66.277066,35.395169 -63.215837,73.138239 2.998259,36.97341 35.145133,64.65729 72.162719,62.14455 37.69334,-2.55853 66.01593,-35.44544 62.96105,-73.10756 C 165.64672,95.392576 133.61917,67.700227 96.728048,70.075656 Z m 24.998622,25.376717 c 1.30678,0.675745 1.38272,5.668702 0.22728,14.930442 -1.54517,12.38276 -3.5171,17.58473 -5.65811,14.92646 -1.30255,-1.61686 -0.51277,-10.83336 1.8915,-22.06439 1.44463,-6.750583 2.22621,-8.471433 3.53933,-7.792512 z m 19.40958,3.74306 c 1.12077,0.785019 0.018,3.908162 -4.67837,13.249542 -6.86885,13.66282 -10.45289,18.14883 -12.14358,15.19872 -1.34514,-2.34685 1.9976,-10.46003 8.19176,-19.88343 4.45929,-6.78419 7.23689,-9.54088 8.63019,-8.564832 z m -50.891816,2.931052 c 4.350279,1.27794 6.381485,6.54341 6.598443,17.10373 0.03334,1.63883 0.08969,3.64675 0.124884,4.46193 l 0.06403,1.48167 1.259152,0.0794 c 7.930617,0.49741 14.607647,1.87007 23.103147,4.749 13.29796,4.50665 19.40878,9.25433 21.06296,16.36607 1.42478,6.1259 -5.80152,12.6373 -24.05433,21.6744 -14.81059,7.3324 -22.9579,10.24017 -32.078881,11.44826 -20.96426,2.77627 -29.924904,-7.99756 -26.610204,-31.99395 0.534458,-3.86794 1.804194,-8.66087 4.036748,-15.24 l 1.072621,-3.16071 -0.446617,-1.46738 c -3.265223,-10.73441 -1.963737,-17.39503 3.726392,-19.06773 3.570287,-1.04907 7.524485,3.40731 10.957983,12.35049 1.762389,4.58999 1.907381,4.7834 3.593306,4.79319 1.346465,0.008 1.385094,-0.1569 0.64479,-2.74902 -3.241675,-11.34798 -2.955661,-17.25427 0.957791,-19.76887 1.579827,-1.01547 4.425686,-1.51924 5.987786,-1.06045 z"
       fill="#0444AC"
       id="path3"
       style="fill:#000000;stroke-width:0.264583" />
  </g>
</svg>
